<svg width="169" height="51" viewBox="0 0 169 51" fill="none" xmlns="http://www.w3.org/2000/svg">
<g clip-path="url(#clip0)">
<path opacity="0.9" d="M0.20462 6.80518V49.0068H4.46226V6.80518H0.20462Z" fill="black"/>
<path opacity="0.9" d="M117.459 10.9082V6.80518H91.6221V49.0068H117.459V44.9039H95.8795V29.9575H113.96V25.8545H95.8795V10.9082H117.459Z" fill="black"/>
<path opacity="0.9" d="M164.063 49.0068H168.554L154.089 6.80518H148.374L133.91 49.0068H138.4L141.258 40.6837H161.205L164.063 49.0068ZM142.658 36.6394L151.173 11.6701L159.805 36.6394H142.658Z" fill="black"/>
<path d="M47.5526 7.19864C49.2548 7.19864 50.6347 5.8119 50.6347 4.10127C50.6347 2.39064 49.2548 1.00391 47.5526 1.00391C45.8504 1.00391 44.4706 2.39064 44.4706 4.10127C44.4706 5.8119 45.8504 7.19864 47.5526 7.19864Z" fill="#FFA800"/>
<path d="M41.9536 9.20159L24.5242 39.54L28.0782 41.6021L45.5076 11.2637L41.9536 9.20159Z" fill="#FFA800"/>
<path d="M53.1514 9.2016L70.5808 39.54L67.0269 41.6021L49.5975 11.2637L53.1514 9.2016Z" fill="#0099DC"/>
<path d="M65.0125 49.0083H30.0883V44.8841H65.0125V49.0083Z" fill="#FF8282"/>
<path d="M22.8917 50.0453C24.5938 50.0453 25.9737 48.6586 25.9737 46.948C25.9737 45.2373 24.5938 43.8506 22.8917 43.8506C21.1895 43.8506 19.8096 45.2373 19.8096 46.948C19.8096 48.6586 21.1895 50.0453 22.8917 50.0453Z" fill="#FF8282"/>
<path d="M72.2092 50.0453C73.9114 50.0453 75.2913 48.6586 75.2913 46.948C75.2913 45.2373 73.9114 43.8506 72.2092 43.8506C70.507 43.8506 69.1271 45.2373 69.1271 46.948C69.1271 48.6586 70.507 50.0453 72.2092 50.0453Z" fill="#0099DC"/>
</g>
<defs>
<clipPath id="clip0">
<rect width="169" height="50.0741" fill="white" transform="translate(0 0.481445)"/>
</clipPath>
</defs>
</svg>
