<svg width="188" height="68" viewBox="0 0 188 68" fill="none" xmlns="http://www.w3.org/2000/svg">
<path fill-rule="evenodd" clip-rule="evenodd" d="M170.593 60.9264L188 57.1698L172.199 52.2227L170.593 60.9264Z" fill="#0071BB"/>
<path fill-rule="evenodd" clip-rule="evenodd" d="M168.852 53.4834H46.0774C43.1356 53.4834 41.8544 56.7525 40.6202 59.9102C40.1902 61.0104 39.5113 62.7407 38.9926 63.4561C38.0526 62.5161 37.365 58.032 37.0952 56.2668L36.9437 55.292C35.9968 49.2255 35.1438 42.8231 34.3187 36.6348C30.7067 9.57495 28.9973 0.100098 23.97 0.000875944C17.6755 -0.114013 15.4404 11.0546 8.79074 44.2244L7.92037 48.5588C6.93337 53.4851 4.69304 53.4851 3.73563 53.4851H0.741556L0 57.7517H3.73563C6.23185 57.7517 10.6464 56.6655 12.1016 49.3961L12.9685 45.0617C17.0645 24.6167 20.9376 5.32928 23.6741 4.36317C26.0484 6.89595 28.3793 24.3469 30.0939 37.1988C30.9243 43.408 31.779 49.8313 32.7364 55.9465L32.8826 56.9074C33.6241 61.8024 34.5502 67.888 39.1353 67.888C42.0772 67.888 43.3531 64.6224 44.5873 61.4647C45.0643 60.2584 45.8302 58.3 46.3629 57.75H168.114L168.852 53.4834Z" fill="#0071BB"/>
<path fill-rule="evenodd" clip-rule="evenodd" d="M54.4887 20.8892H70.5609L71.0866 36.1293H71.2903L77.9678 20.8892H94L88.2521 48.741H78.5353L83.0699 26.8599H82.8297L72.7073 48.741H63.6763L62.7885 26.8599H62.5065L57.9667 48.741H48.7408L54.4887 20.8892Z" fill="#0071BB"/>
<path fill-rule="evenodd" clip-rule="evenodd" d="M109.667 20.8892L103.638 48.741H92.2592L98.2874 20.8892H109.667Z" fill="#0071BB"/>
<path fill-rule="evenodd" clip-rule="evenodd" d="M131.281 20.8892C137.24 20.8892 141 24.4298 141 29.1629C141 34.3782 136.794 40.8259 126.79 40.8259H120.503L118.87 48.741H107.926L113.723 20.8892H131.281ZM121.852 34.8151H124.667C129.085 34.8151 130.556 32.5748 130.556 30.6617C130.556 29.7635 130.08 27.8521 126.569 27.8521H123.323L121.852 34.8151Z" fill="#0071BB"/>
<path fill-rule="evenodd" clip-rule="evenodd" d="M172.333 20.8892L170.652 29.1229H161.196L157.189 48.741H146.452L150.456 29.1229H141L142.682 20.8892H172.333Z" fill="#0071BB"/>
</svg>
