<svg width="235" height="35" viewBox="0 0 235 35" fill="none" xmlns="http://www.w3.org/2000/svg">
<path fill-rule="evenodd" clip-rule="evenodd" d="M226.916 34.7376C219.701 34.9666 214.862 30.3289 214.688 23.9719V23.9155V17.5022H197.447V32.2749C197.447 33.6501 196.288 34.7376 194.781 34.7376H192V17.5022L186.204 17.4734L186.175 14.868C186.175 13.4652 187.392 12.2614 188.957 12.2614H192V10.9449V10.9161C192.173 4.53154 197.013 -0.106137 204.198 0.122869H212.312V2.58559C212.312 3.95842 211.182 5.07588 209.037 5.07588L206.458 5.0471C200.663 5.07588 197.62 5.82045 197.447 11.8322V12.2614H214.688V0.122869H217.47C218.977 0.122869 220.165 1.23912 220.165 2.61316V12.2614H226.743V14.8956C226.743 16.2996 225.554 17.5022 223.96 17.5022H220.165V23.0559C220.309 29.04 223.352 29.8134 229.147 29.8134L231.726 29.7846C233.871 29.7846 234.971 30.9296 235 32.2749V34.7376H226.916ZM172.758 34.7376H166.239C159.603 34.7376 154.127 30.2714 154.127 24.8028V22.5979C154.127 17.1293 158.126 12.6631 165.63 12.6631H172.932C179.829 12.6631 184.697 17.5297 184.697 22.5979V24.8028C184.697 30.2714 179.8 34.9954 172.758 34.7376ZM177.337 19.0764C176.235 18.218 174.353 17.6161 172.932 17.6161H165.63C164.297 17.6161 162.443 18.1604 161.371 18.9338C158.445 21.1087 158.474 26.3207 161.4 28.4669C162.501 29.2402 164.268 29.8709 165.63 29.8709H172.932C174.497 29.8709 176.525 29.3553 177.656 28.353C180.148 26.1481 180.031 21.1375 177.337 19.0764ZM140.711 34.7376C133.206 34.7376 125.991 34.7376 118.544 34.7376L118.515 32.4763C118.515 31.0735 119.703 29.8709 121.238 29.8709L140.42 29.8421C141.985 29.8421 143.492 29.2402 144.623 28.2379C147.143 26.0054 146.998 21.1663 144.333 19.0764C143.202 18.1892 141.811 17.7312 140.334 17.7312H129.178C123.383 17.7312 118.225 14.6102 118.225 8.88386V8.22562C118.225 2.41293 123.324 0.122869 129.004 0.122869C133.698 0.122869 141.406 0.122869 146.1 0.122869L146.071 2.55681C146.071 3.95842 144.854 5.13343 143.318 5.13343C138.624 5.13343 133.902 5.13343 129.206 5.13343C122.021 5.13343 122.137 12.548 129.294 12.548H140.711C146.738 12.548 151.693 17.1017 151.693 22.6554V24.8891C151.693 30.414 146.738 34.7376 140.711 34.7376ZM114.631 5.16101H103.215V32.3612C103.215 33.7065 101.969 34.7376 100.491 34.7376H97.7965L97.7677 5.16101C93.0737 5.16101 88.4372 5.16101 83.8007 5.16101V2.64194C83.8007 1.2679 84.9601 0.122869 86.4948 0.122869H117.356L117.327 2.64194C117.327 3.9884 116.139 5.13343 114.631 5.16101ZM84.1772 29.956H84.206L84.1772 29.9848C84.8438 30.8433 84.8151 32.0459 84.0609 32.9055L82.3811 34.8815L58.8222 17.2444L58.5908 17.0154C56.8523 15.7552 57.2 12.8921 60.1843 12.5767H71.4272C78.2662 12.5767 78.295 5.21856 71.8912 5.24733H54.5347L54.5047 32.161C54.5047 33.5638 53.2877 34.5661 51.8106 34.7376H49.0289V0.122869L71.8624 0.150446C78.2374 0.122869 82.3224 3.35773 82.3224 8.7124V8.88386C82.3224 14.4951 77.3094 17.6736 71.5147 17.6736H67.6612C72.9919 21.5955 78.295 25.6337 83.6844 29.4704C83.8583 29.6131 84.0321 29.7846 84.1772 29.956ZM28.3392 34.7376H0V30.5867H28.1078C28.5706 30.5867 29.0059 30.5291 29.4399 30.414C28.4843 30.3577 27.5863 30.1287 26.7746 29.7558C25.3837 29.1263 24.2243 28.0952 23.5289 26.8363C23.0361 25.919 22.7759 24.9167 22.7759 23.858C22.7759 23.2573 22.8623 22.6554 23.0361 22.1123C23.0361 22.5703 23.2399 22.9983 23.5289 23.3137C23.9054 23.7153 24.4857 23.9719 25.0936 23.9719C25.7602 23.9719 26.3693 23.6865 26.7746 23.2285C27.0359 22.8844 27.1798 22.484 27.1798 22.0547C27.1798 21.6243 27.0359 21.195 26.7746 20.8809C26.3693 20.4217 25.789 20.1363 25.1235 20.1363C24.4857 20.1363 23.9054 20.3941 23.5289 20.7946C23.3838 20.9373 23.2687 21.1087 23.1812 21.3101H0V12.9496L19.9943 17.2444C20.8923 17.2444 28.7745 17.2156 29.7876 17.2444C31.1496 17.2444 32.4829 17.6736 33.5548 18.2743L29.1509 0.150446H38.1913V25.9478C38.1913 30.9584 33.7574 34.7376 28.3392 34.7376ZM22.1968 0.150446H26.717L31.2947 16.1845L22.1968 0.150446ZM14.2859 0.150446H19.5878L29.3823 16.0418L14.2859 0.150446ZM5.911 0.895016H5.93978C7.12797 0.409427 8.46124 0.150446 9.85207 0.150446H10.9539H11.0403H11.069L27.3249 16.0982C27.3249 16.0982 7.91091 2.2127 5.911 0.895016ZM1.10187 5.07588C1.13064 5.0471 1.15942 5.01833 1.15942 4.98955C1.79728 3.90207 2.69532 2.9285 3.70966 2.15515C6.60641 4.01598 24.8622 16.0418 24.8622 16.0418L1.10187 5.07588ZM0 10.7159V9.25554C0 8.51097 0.116302 7.7676 0.290155 7.07938L22.5146 16.2996L0 10.7159Z" fill="#325598"/>
</svg>
