<svg width="439" height="87" viewBox="0 0 439 87" fill="none" xmlns="http://www.w3.org/2000/svg">
<path fill-rule="evenodd" clip-rule="evenodd" d="M3.34281 81.755C2.59996 81.0407 2.59996 80.3263 3.34281 79.612L11.1427 72.2303C7.67606 68.4204 4.95232 64.0748 2.97138 59.1933C0.990451 54.3119 0 49.0931 0 43.537C0 37.584 1.15553 31.9883 3.46661 26.7497C5.7777 21.511 8.93477 16.967 12.9379 13.1174C16.941 9.26779 21.6663 6.21196 27.1139 3.94983C32.5614 1.68769 38.3803 0.556641 44.5708 0.556641C50.5136 0.556641 56.1055 1.58848 61.3467 3.65218C66.5879 5.71588 71.1894 8.57328 75.1513 12.2244L83.3226 4.60465C83.9829 3.8903 84.6844 3.8903 85.4273 4.60465L85.9225 5.08089C86.6654 5.79525 86.6654 6.5096 85.9225 7.22396L77.875 14.8437C81.3417 18.6537 84.1067 23.0191 86.1701 27.9403C88.2336 32.8614 89.2653 38.0603 89.2653 43.537C89.2653 49.49 88.0892 55.0659 85.7368 60.2648C83.3844 65.4638 80.2068 69.988 76.2036 73.8376C72.2005 77.6872 67.4752 80.7232 62.0276 82.9456C56.5801 85.1681 50.7612 86.2793 44.5708 86.2793C38.5454 86.2793 32.9122 85.2871 27.671 83.3028C22.4298 81.3185 17.8283 78.5008 13.8665 74.8496L5.94277 82.2313C5.28246 82.9456 4.58089 82.9456 3.83804 82.2313L3.34281 81.755ZM71.3132 15.9152C67.764 12.7403 63.7197 10.2599 59.18 8.47399C54.6404 6.68809 49.7707 5.79516 44.5707 5.79516C39.1232 5.79516 34.0265 6.78731 29.2805 8.77164C24.5345 10.756 20.4076 13.4546 16.8997 16.8677C13.3918 20.2807 10.6062 24.2692 8.54269 28.8331C6.47922 33.3971 5.4475 38.2983 5.4475 43.537C5.4475 48.3787 6.29351 52.9029 7.98555 57.1097C9.6776 61.3165 12.0506 65.0867 15.1045 68.4203L71.3132 15.9152ZM17.8283 71.0393C21.2949 74.2143 25.3186 76.6748 29.8995 78.421C34.4804 80.1672 39.3708 81.0403 44.5707 81.0403C50.0183 81.0403 55.115 80.068 59.861 78.1234C64.607 76.1787 68.7545 73.4999 72.3037 70.0869C75.8528 66.6738 78.6591 62.7052 80.7226 58.1809C82.786 53.6567 83.8178 48.7753 83.8178 43.5367C83.8178 38.7743 82.9511 34.2501 81.2178 29.9639C79.4845 25.6778 77.0496 21.8679 73.9132 18.5342L17.8283 71.0393ZM112.913 2.10441C112.913 1.62817 113.098 1.25115 113.47 0.973348C113.841 0.695542 114.274 0.556641 114.77 0.556641H116.874L176.302 74.9687H176.426V3.295C176.426 2.26315 176.962 1.74723 178.035 1.74723H180.512C181.585 1.74723 182.121 2.26315 182.121 3.295V84.7315C182.121 85.2871 181.915 85.684 181.502 85.9221C181.089 86.1602 180.635 86.2793 180.14 86.2793H178.531L178.159 85.9221C177.912 85.684 177.189 84.8506 175.993 83.4219C174.796 81.9931 172.98 79.7707 170.545 76.7545C168.11 73.7384 164.685 69.4523 160.269 63.8961C155.853 58.34 150.261 51.2759 143.493 42.7036C136.725 34.1313 128.43 23.6145 118.608 11.1529H118.484V83.5409C118.484 84.5728 117.947 85.0887 116.874 85.0887H114.522C113.449 85.0887 112.913 84.5728 112.913 83.5409V2.10441ZM209.916 3.34831C209.916 2.95144 210.06 2.59427 210.349 2.27678C210.638 1.95928 210.989 1.80054 211.402 1.80054H237.649C243.674 1.80054 249.328 2.8919 254.61 5.07467C259.893 7.25743 264.515 10.2339 268.477 14.0041C272.439 17.7743 275.555 22.1795 277.824 27.2197C280.094 32.2599 281.229 37.6373 281.229 43.3522C281.229 49.1464 280.094 54.5834 277.824 59.6633C275.555 64.7432 272.439 69.1682 268.477 72.9384C264.515 76.7086 259.893 79.6851 254.61 81.8678C249.328 84.0506 243.674 85.142 237.649 85.142H211.402C210.989 85.142 210.638 84.9832 210.349 84.6657C210.06 84.3482 209.916 83.9911 209.916 83.5942V3.34831ZM236.658 79.9692C242.106 79.9692 247.161 79.0365 251.825 77.1713C256.488 75.306 260.533 72.7264 263.958 69.4324C267.383 66.1384 270.086 62.269 272.067 57.8241C274.048 53.3792 275.039 48.5375 275.039 43.2989C275.039 38.1397 274.048 33.3377 272.067 28.8928C270.086 24.4479 267.383 20.5983 263.958 17.344C260.533 14.0897 256.488 11.53 251.825 9.66469C247.161 7.79942 242.106 6.8668 236.658 6.8668H215.735V79.9692H236.658ZM302.524 3.34831C302.524 2.31646 303.061 1.80054 304.134 1.80054H353.78C354.853 1.80054 355.39 2.31646 355.39 3.34831V5.37231C355.39 6.40417 354.853 6.92008 353.78 6.92008H308.467V39.7804H347.714C348.787 39.7804 349.323 40.2963 349.323 41.3282V43.3522C349.323 44.384 348.787 44.9 347.714 44.9H308.467V80.1415H353.78C354.853 80.1415 355.39 80.6574 355.39 81.6893V83.5942C355.39 84.6261 354.853 85.142 353.78 85.142H304.134C303.061 85.142 302.524 84.6261 302.524 83.5942V3.34831ZM378.728 3.34831C378.728 2.31646 379.264 1.80054 380.337 1.80054H411.041C414.838 1.80054 418.408 2.45536 421.751 3.76502C425.094 5.07467 428.024 6.86054 430.541 9.12268C433.059 11.3848 435.039 14.0636 436.484 17.1592C437.928 20.2547 438.651 23.628 438.651 27.2792C438.651 30.2954 438.135 33.1329 437.103 35.7919C436.071 38.4509 434.647 40.8519 432.832 42.995C431.016 45.1381 428.87 47.0033 426.394 48.5908C423.917 50.1783 421.194 51.3688 418.222 52.1626L436.298 82.9989C436.628 83.4752 436.732 83.9514 436.608 84.4276C436.484 84.9039 436.092 85.142 435.432 85.142H431.594C430.768 85.142 430.19 84.7848 429.86 84.0704L411.908 52.8769C411.083 52.9563 410.319 52.996 409.618 52.996H384.547V83.5942C384.547 84.6261 383.886 85.142 382.566 85.142H380.337C379.264 85.142 378.728 84.6261 378.728 83.5942V3.34831ZM410.794 47.9422C413.765 47.9422 416.571 47.4065 419.213 46.3349C421.854 45.2634 424.186 43.8148 426.208 41.9893C428.23 40.1637 429.819 37.981 430.974 35.441C432.13 32.9011 432.708 30.1627 432.708 27.2259C432.708 24.3685 432.13 21.7294 430.974 19.3085C429.819 16.8876 428.23 14.7843 426.208 12.9984C424.186 11.2125 421.833 9.80363 419.151 8.77178C416.468 7.73993 413.641 7.22401 410.67 7.22401H384.67V47.9422H410.794Z" fill="black"/>
</svg>
