<svg width="865" height="769" viewBox="0 0 865 769" fill="none" xmlns="http://www.w3.org/2000/svg">
<g id="Graph">
<g id="Mask Group">
<mask id="mask0" mask-type="alpha" maskUnits="userSpaceOnUse" x="3" y="220" width="862" height="475">
<rect id="Gradient BG mask" x="3" y="220.578" width="861.153" height="474" rx="8" fill="url(#paint0_linear)"/>
</mask>
<g mask="url(#mask0)">
<path id="Gradient BG" opacity="0.1" d="M-500 231.965C-500 225.676 -494.902 220.578 -488.613 220.578H1114.11C1120.4 220.578 1125.5 225.676 1125.5 231.965V683.191C1125.5 689.48 1120.4 694.578 1114.11 694.578H-488.613C-494.902 694.578 -500 689.48 -500 683.191V231.965Z" fill="url(#paint1_linear)"/>
</g>
</g>
<path id="Load of node substations" d="M4.96289 723.578V709.301H6.62305V722.074H12.9219V723.578H4.96289ZM24.3477 718.217C24.3477 719.962 23.9082 721.326 23.0293 722.309C22.1504 723.285 20.9362 723.773 19.3867 723.773C18.4297 723.773 17.5801 723.549 16.8379 723.1C16.0957 722.65 15.5228 722.006 15.1191 721.166C14.7155 720.326 14.5137 719.343 14.5137 718.217C14.5137 716.472 14.9499 715.115 15.8223 714.145C16.6947 713.168 17.9056 712.68 19.4551 712.68C20.9525 712.68 22.1406 713.178 23.0195 714.174C23.9049 715.17 24.3477 716.518 24.3477 718.217ZM16.1934 718.217C16.1934 719.584 16.4668 720.626 17.0137 721.342C17.5605 722.058 18.3646 722.416 19.4258 722.416C20.487 722.416 21.291 722.061 21.8379 721.352C22.3913 720.635 22.668 719.59 22.668 718.217C22.668 716.856 22.3913 715.824 21.8379 715.121C21.291 714.411 20.4805 714.057 19.4062 714.057C18.3451 714.057 17.5443 714.405 17.0039 715.102C16.4635 715.798 16.1934 716.837 16.1934 718.217ZM33.7812 723.578L33.459 722.055H33.3809C32.847 722.725 32.3132 723.181 31.7793 723.422C31.252 723.656 30.5911 723.773 29.7969 723.773C28.7357 723.773 27.9023 723.5 27.2969 722.953C26.6979 722.406 26.3984 721.628 26.3984 720.619C26.3984 718.458 28.127 717.325 31.584 717.221L33.4004 717.162V716.498C33.4004 715.658 33.2181 715.04 32.8535 714.643C32.4954 714.239 31.9193 714.037 31.125 714.037C30.2331 714.037 29.224 714.311 28.0977 714.857L27.5996 713.617C28.127 713.331 28.7031 713.106 29.3281 712.943C29.9596 712.781 30.5911 712.699 31.2227 712.699C32.4987 712.699 33.4427 712.982 34.0547 713.549C34.6732 714.115 34.9824 715.023 34.9824 716.273V723.578H33.7812ZM30.1191 722.436C31.1283 722.436 31.9193 722.159 32.4922 721.605C33.0716 721.052 33.3613 720.277 33.3613 719.281V718.314L31.7402 718.383C30.4512 718.428 29.5202 718.63 28.9473 718.988C28.3809 719.34 28.0977 719.89 28.0977 720.639C28.0977 721.225 28.2734 721.671 28.625 721.977C28.9831 722.283 29.4811 722.436 30.1191 722.436ZM45.6172 722.143H45.5293C44.7806 723.23 43.6608 723.773 42.1699 723.773C40.7702 723.773 39.6797 723.295 38.8984 722.338C38.1237 721.381 37.7363 720.02 37.7363 718.256C37.7363 716.492 38.127 715.121 38.9082 714.145C39.6895 713.168 40.7767 712.68 42.1699 712.68C43.6217 712.68 44.735 713.207 45.5098 714.262H45.6367L45.5684 713.49L45.5293 712.738V708.383H47.1504V723.578H45.832L45.6172 722.143ZM42.375 722.416C43.4818 722.416 44.2826 722.117 44.7773 721.518C45.2786 720.912 45.5293 719.939 45.5293 718.598V718.256C45.5293 716.739 45.2754 715.658 44.7676 715.014C44.2663 714.363 43.4622 714.037 42.3555 714.037C41.4049 714.037 40.6758 714.408 40.168 715.15C39.6667 715.886 39.416 716.928 39.416 718.275C39.416 719.643 39.6667 720.674 40.168 721.371C40.6693 722.068 41.4049 722.416 42.375 722.416ZM65.0312 718.217C65.0312 719.962 64.5918 721.326 63.7129 722.309C62.834 723.285 61.6198 723.773 60.0703 723.773C59.1133 723.773 58.2637 723.549 57.5215 723.1C56.7793 722.65 56.2064 722.006 55.8027 721.166C55.3991 720.326 55.1973 719.343 55.1973 718.217C55.1973 716.472 55.6335 715.115 56.5059 714.145C57.3783 713.168 58.5892 712.68 60.1387 712.68C61.6361 712.68 62.8242 713.178 63.7031 714.174C64.5885 715.17 65.0312 716.518 65.0312 718.217ZM56.877 718.217C56.877 719.584 57.1504 720.626 57.6973 721.342C58.2441 722.058 59.0482 722.416 60.1094 722.416C61.1706 722.416 61.9746 722.061 62.5215 721.352C63.0749 720.635 63.3516 719.59 63.3516 718.217C63.3516 716.856 63.0749 715.824 62.5215 715.121C61.9746 714.411 61.1641 714.057 60.0898 714.057C59.0286 714.057 58.2279 714.405 57.6875 715.102C57.1471 715.798 56.877 716.837 56.877 718.217ZM72.707 714.135H69.9824V723.578H68.3613V714.135H66.4473V713.402L68.3613 712.816V712.221C68.3613 709.59 69.5104 708.275 71.8086 708.275C72.375 708.275 73.0391 708.389 73.8008 708.617L73.3809 709.916C72.7559 709.714 72.222 709.613 71.7793 709.613C71.1673 709.613 70.7148 709.818 70.4219 710.229C70.1289 710.632 69.9824 711.283 69.9824 712.182V712.875H72.707V714.135ZM87.1797 723.578V716.654C87.1797 715.782 86.9811 715.131 86.584 714.701C86.1868 714.271 85.5651 714.057 84.7188 714.057C83.599 714.057 82.7786 714.359 82.2578 714.965C81.737 715.57 81.4766 716.57 81.4766 717.963V723.578H79.8555V712.875H81.1738L81.4375 714.34H81.5156C81.8477 713.812 82.3132 713.406 82.9121 713.119C83.5111 712.826 84.1784 712.68 84.9141 712.68C86.2031 712.68 87.1732 712.992 87.8242 713.617C88.4753 714.236 88.8008 715.229 88.8008 716.596V723.578H87.1797ZM101.379 718.217C101.379 719.962 100.939 721.326 100.061 722.309C99.1816 723.285 97.9674 723.773 96.418 723.773C95.4609 723.773 94.6113 723.549 93.8691 723.1C93.127 722.65 92.554 722.006 92.1504 721.166C91.7467 720.326 91.5449 719.343 91.5449 718.217C91.5449 716.472 91.9811 715.115 92.8535 714.145C93.7259 713.168 94.9368 712.68 96.4863 712.68C97.9837 712.68 99.1719 713.178 100.051 714.174C100.936 715.17 101.379 716.518 101.379 718.217ZM93.2246 718.217C93.2246 719.584 93.498 720.626 94.0449 721.342C94.5918 722.058 95.3958 722.416 96.457 722.416C97.5182 722.416 98.3223 722.061 98.8691 721.352C99.4225 720.635 99.6992 719.59 99.6992 718.217C99.6992 716.856 99.4225 715.824 98.8691 715.121C98.3223 714.411 97.5117 714.057 96.4375 714.057C95.3763 714.057 94.5755 714.405 94.0352 715.102C93.4948 715.798 93.2246 716.837 93.2246 718.217ZM111.516 722.143H111.428C110.679 723.23 109.559 723.773 108.068 723.773C106.669 723.773 105.578 723.295 104.797 722.338C104.022 721.381 103.635 720.02 103.635 718.256C103.635 716.492 104.025 715.121 104.807 714.145C105.588 713.168 106.675 712.68 108.068 712.68C109.52 712.68 110.633 713.207 111.408 714.262H111.535L111.467 713.49L111.428 712.738V708.383H113.049V723.578H111.73L111.516 722.143ZM108.273 722.416C109.38 722.416 110.181 722.117 110.676 721.518C111.177 720.912 111.428 719.939 111.428 718.598V718.256C111.428 716.739 111.174 715.658 110.666 715.014C110.165 714.363 109.361 714.037 108.254 714.037C107.303 714.037 106.574 714.408 106.066 715.15C105.565 715.886 105.314 716.928 105.314 718.275C105.314 719.643 105.565 720.674 106.066 721.371C106.568 722.068 107.303 722.416 108.273 722.416ZM121.018 723.773C119.436 723.773 118.186 723.292 117.268 722.328C116.356 721.365 115.9 720.027 115.9 718.314C115.9 716.589 116.324 715.219 117.17 714.203C118.023 713.188 119.165 712.68 120.598 712.68C121.939 712.68 123 713.122 123.781 714.008C124.562 714.887 124.953 716.049 124.953 717.494V718.52H117.58C117.613 719.776 117.928 720.73 118.527 721.381C119.133 722.032 119.982 722.357 121.076 722.357C122.229 722.357 123.368 722.117 124.494 721.635V723.08C123.921 723.327 123.378 723.503 122.863 723.607C122.355 723.718 121.74 723.773 121.018 723.773ZM120.578 714.037C119.719 714.037 119.032 714.317 118.518 714.877C118.01 715.437 117.71 716.212 117.619 717.201H123.215C123.215 716.179 122.987 715.398 122.531 714.857C122.076 714.311 121.424 714.037 120.578 714.037ZM139.826 720.658C139.826 721.654 139.455 722.423 138.713 722.963C137.971 723.503 136.929 723.773 135.588 723.773C134.169 723.773 133.062 723.549 132.268 723.1V721.596C132.782 721.856 133.332 722.061 133.918 722.211C134.51 722.361 135.08 722.436 135.627 722.436C136.473 722.436 137.124 722.302 137.58 722.035C138.036 721.762 138.264 721.348 138.264 720.795C138.264 720.378 138.081 720.023 137.717 719.73C137.359 719.431 136.656 719.079 135.607 718.676C134.611 718.305 133.902 717.982 133.479 717.709C133.062 717.429 132.749 717.113 132.541 716.762C132.339 716.41 132.238 715.99 132.238 715.502C132.238 714.63 132.593 713.943 133.303 713.441C134.012 712.934 134.986 712.68 136.223 712.68C137.375 712.68 138.501 712.914 139.602 713.383L139.025 714.701C137.951 714.258 136.978 714.037 136.105 714.037C135.337 714.037 134.758 714.158 134.367 714.398C133.977 714.639 133.781 714.971 133.781 715.395C133.781 715.681 133.853 715.925 133.996 716.127C134.146 716.329 134.383 716.521 134.709 716.703C135.035 716.885 135.66 717.149 136.584 717.494C137.854 717.956 138.71 718.422 139.152 718.891C139.602 719.359 139.826 719.949 139.826 720.658ZM143.996 712.875V719.818C143.996 720.691 144.195 721.342 144.592 721.771C144.989 722.201 145.611 722.416 146.457 722.416C147.577 722.416 148.394 722.11 148.908 721.498C149.429 720.886 149.689 719.887 149.689 718.5V712.875H151.311V723.578H149.973L149.738 722.143H149.65C149.318 722.67 148.856 723.074 148.264 723.354C147.678 723.633 147.007 723.773 146.252 723.773C144.95 723.773 143.973 723.464 143.322 722.846C142.678 722.227 142.355 721.238 142.355 719.877V712.875H143.996ZM159.738 712.699C161.145 712.699 162.235 713.181 163.01 714.145C163.791 715.102 164.182 716.459 164.182 718.217C164.182 719.975 163.788 721.342 163 722.318C162.219 723.288 161.132 723.773 159.738 723.773C159.042 723.773 158.404 723.646 157.824 723.393C157.251 723.132 156.77 722.735 156.379 722.201H156.262L155.92 723.578H154.758V708.383H156.379V712.074C156.379 712.901 156.353 713.643 156.301 714.301H156.379C157.134 713.233 158.254 712.699 159.738 712.699ZM159.504 714.057C158.397 714.057 157.6 714.376 157.111 715.014C156.623 715.645 156.379 716.713 156.379 718.217C156.379 719.721 156.63 720.798 157.131 721.449C157.632 722.094 158.436 722.416 159.543 722.416C160.539 722.416 161.281 722.055 161.77 721.332C162.258 720.603 162.502 719.558 162.502 718.197C162.502 716.804 162.258 715.766 161.77 715.082C161.281 714.398 160.526 714.057 159.504 714.057ZM173.928 720.658C173.928 721.654 173.557 722.423 172.814 722.963C172.072 723.503 171.031 723.773 169.689 723.773C168.27 723.773 167.163 723.549 166.369 723.1V721.596C166.883 721.856 167.434 722.061 168.02 722.211C168.612 722.361 169.182 722.436 169.729 722.436C170.575 722.436 171.226 722.302 171.682 722.035C172.137 721.762 172.365 721.348 172.365 720.795C172.365 720.378 172.183 720.023 171.818 719.73C171.46 719.431 170.757 719.079 169.709 718.676C168.713 718.305 168.003 717.982 167.58 717.709C167.163 717.429 166.851 717.113 166.643 716.762C166.441 716.41 166.34 715.99 166.34 715.502C166.34 714.63 166.695 713.943 167.404 713.441C168.114 712.934 169.087 712.68 170.324 712.68C171.477 712.68 172.603 712.914 173.703 713.383L173.127 714.701C172.053 714.258 171.079 714.037 170.207 714.037C169.439 714.037 168.859 714.158 168.469 714.398C168.078 714.639 167.883 714.971 167.883 715.395C167.883 715.681 167.954 715.925 168.098 716.127C168.247 716.329 168.485 716.521 168.811 716.703C169.136 716.885 169.761 717.149 170.686 717.494C171.955 717.956 172.811 718.422 173.254 718.891C173.703 719.359 173.928 719.949 173.928 720.658ZM180.031 722.436C180.318 722.436 180.594 722.416 180.861 722.377C181.128 722.331 181.34 722.286 181.496 722.24V723.48C181.32 723.565 181.06 723.633 180.715 723.686C180.376 723.744 180.07 723.773 179.797 723.773C177.727 723.773 176.691 722.683 176.691 720.502V714.135H175.158V713.354L176.691 712.68L177.375 710.395H178.312V712.875H181.418V714.135H178.312V720.434C178.312 721.078 178.465 721.573 178.771 721.918C179.077 722.263 179.497 722.436 180.031 722.436ZM190.227 723.578L189.904 722.055H189.826C189.292 722.725 188.758 723.181 188.225 723.422C187.697 723.656 187.036 723.773 186.242 723.773C185.181 723.773 184.348 723.5 183.742 722.953C183.143 722.406 182.844 721.628 182.844 720.619C182.844 718.458 184.572 717.325 188.029 717.221L189.846 717.162V716.498C189.846 715.658 189.663 715.04 189.299 714.643C188.941 714.239 188.365 714.037 187.57 714.037C186.678 714.037 185.669 714.311 184.543 714.857L184.045 713.617C184.572 713.331 185.148 713.106 185.773 712.943C186.405 712.781 187.036 712.699 187.668 712.699C188.944 712.699 189.888 712.982 190.5 713.549C191.118 714.115 191.428 715.023 191.428 716.273V723.578H190.227ZM186.564 722.436C187.574 722.436 188.365 722.159 188.938 721.605C189.517 721.052 189.807 720.277 189.807 719.281V718.314L188.186 718.383C186.896 718.428 185.965 718.63 185.393 718.988C184.826 719.34 184.543 719.89 184.543 720.639C184.543 721.225 184.719 721.671 185.07 721.977C185.428 722.283 185.926 722.436 186.564 722.436ZM198.234 722.436C198.521 722.436 198.798 722.416 199.064 722.377C199.331 722.331 199.543 722.286 199.699 722.24V723.48C199.523 723.565 199.263 723.633 198.918 723.686C198.579 723.744 198.273 723.773 198 723.773C195.93 723.773 194.895 722.683 194.895 720.502V714.135H193.361V713.354L194.895 712.68L195.578 710.395H196.516V712.875H199.621V714.135H196.516V720.434C196.516 721.078 196.669 721.573 196.975 721.918C197.281 722.263 197.701 722.436 198.234 722.436ZM203.469 723.578H201.848V712.875H203.469V723.578ZM201.711 709.975C201.711 709.604 201.802 709.333 201.984 709.164C202.167 708.988 202.395 708.9 202.668 708.9C202.928 708.9 203.153 708.988 203.342 709.164C203.531 709.34 203.625 709.61 203.625 709.975C203.625 710.339 203.531 710.613 203.342 710.795C203.153 710.971 202.928 711.059 202.668 711.059C202.395 711.059 202.167 710.971 201.984 710.795C201.802 710.613 201.711 710.339 201.711 709.975ZM216.145 718.217C216.145 719.962 215.705 721.326 214.826 722.309C213.947 723.285 212.733 723.773 211.184 723.773C210.227 723.773 209.377 723.549 208.635 723.1C207.893 722.65 207.32 722.006 206.916 721.166C206.512 720.326 206.311 719.343 206.311 718.217C206.311 716.472 206.747 715.115 207.619 714.145C208.492 713.168 209.702 712.68 211.252 712.68C212.749 712.68 213.938 713.178 214.816 714.174C215.702 715.17 216.145 716.518 216.145 718.217ZM207.99 718.217C207.99 719.584 208.264 720.626 208.811 721.342C209.357 722.058 210.161 722.416 211.223 722.416C212.284 722.416 213.088 722.061 213.635 721.352C214.188 720.635 214.465 719.59 214.465 718.217C214.465 716.856 214.188 715.824 213.635 715.121C213.088 714.411 212.277 714.057 211.203 714.057C210.142 714.057 209.341 714.405 208.801 715.102C208.26 715.798 207.99 716.837 207.99 718.217ZM226.32 723.578V716.654C226.32 715.782 226.122 715.131 225.725 714.701C225.327 714.271 224.706 714.057 223.859 714.057C222.74 714.057 221.919 714.359 221.398 714.965C220.878 715.57 220.617 716.57 220.617 717.963V723.578H218.996V712.875H220.314L220.578 714.34H220.656C220.988 713.812 221.454 713.406 222.053 713.119C222.652 712.826 223.319 712.68 224.055 712.68C225.344 712.68 226.314 712.992 226.965 713.617C227.616 714.236 227.941 715.229 227.941 716.596V723.578H226.32ZM238.186 720.658C238.186 721.654 237.814 722.423 237.072 722.963C236.33 723.503 235.288 723.773 233.947 723.773C232.528 723.773 231.421 723.549 230.627 723.1V721.596C231.141 721.856 231.691 722.061 232.277 722.211C232.87 722.361 233.439 722.436 233.986 722.436C234.833 722.436 235.484 722.302 235.939 722.035C236.395 721.762 236.623 721.348 236.623 720.795C236.623 720.378 236.441 720.023 236.076 719.73C235.718 719.431 235.015 719.079 233.967 718.676C232.971 718.305 232.261 717.982 231.838 717.709C231.421 717.429 231.109 717.113 230.9 716.762C230.699 716.41 230.598 715.99 230.598 715.502C230.598 714.63 230.952 713.943 231.662 713.441C232.372 712.934 233.345 712.68 234.582 712.68C235.734 712.68 236.861 712.914 237.961 713.383L237.385 714.701C236.311 714.258 235.337 714.037 234.465 714.037C233.697 714.037 233.117 714.158 232.727 714.398C232.336 714.639 232.141 714.971 232.141 715.395C232.141 715.681 232.212 715.925 232.355 716.127C232.505 716.329 232.743 716.521 233.068 716.703C233.394 716.885 234.019 717.149 234.943 717.494C236.213 717.956 237.069 718.422 237.512 718.891C237.961 719.359 238.186 719.949 238.186 720.658Z" fill="#022133"/>
<g id="Graph_2">
<mask id="mask1" mask-type="alpha" maskUnits="userSpaceOnUse" x="3" y="0" width="861" height="693">
<path id="Rectangle" d="M3 0.267822H864V692.755H3V0.267822Z" fill="#C4C4C4"/>
</mask>
<g mask="url(#mask1)">
<g id="Line">
<path id="net-load-1" d="M349.058 351.621L349.119 349.487L349.089 349.486H349.058V351.621ZM118.5 48.3453V50.4804V48.3453ZM-18.1675 572.966L-19.2011 574.835L-15.4645 576.902L-14.431 575.034L-18.1675 572.966ZM874.016 509.214L874.73 507.202L870.706 505.774L869.992 507.786L874.016 509.214ZM348.996 353.755C372.877 354.445 398.85 346.784 424.954 339.105C451.216 331.379 477.672 323.611 503.058 323.611V319.341C476.943 319.341 449.874 327.323 423.749 335.009C397.464 342.741 372.188 350.153 349.119 349.487L348.996 353.755ZM503.058 323.611C526.841 323.611 545.078 343.163 561.237 374.133C577.324 404.964 590.836 446.093 605.614 487.533C620.347 528.846 636.325 570.424 657.314 601.678C678.321 632.958 704.626 654.291 740.058 654.291V650.021C706.663 650.021 681.492 630.019 660.859 599.297C640.209 568.548 624.385 527.456 609.636 486.099C594.933 444.869 581.287 403.329 565.023 372.157C548.831 341.124 529.525 319.341 503.058 319.341V323.611ZM-14.431 575.034C30.9539 492.994 55.0092 361.183 72.5611 250.269C81.3535 194.709 88.5101 144.401 95.8934 107.939C99.587 89.6976 103.311 75.0606 107.278 65.0187C109.265 59.9878 111.261 56.2486 113.252 53.8021C115.25 51.3454 116.996 50.4804 118.5 50.4804V46.2102C115.162 46.2102 112.324 48.1762 109.939 51.1072C107.546 54.0484 105.359 58.2537 103.307 63.4498C99.1935 73.8622 95.4099 88.81 91.7081 107.091C84.3007 143.673 77.1168 194.161 68.3434 249.602C50.7637 360.691 26.7861 491.707 -18.1675 572.966L-14.431 575.034ZM740.058 654.291C771.467 654.291 797.64 638.678 819.568 612.808C841.464 586.977 859.254 550.786 874.016 509.214L869.992 507.786C855.305 549.147 837.724 584.784 816.31 610.047C794.929 635.273 769.853 650.021 740.058 650.021V654.291ZM349.058 349.486C313.508 349.486 284.632 330.997 260.417 302.842C236.178 274.66 216.791 236.992 200.277 199.13C192.026 180.213 184.51 161.29 177.467 143.517C170.432 125.761 163.861 109.13 157.522 94.8652C151.194 80.6227 145.038 68.5998 138.8 60.1123C132.64 51.7312 125.972 46.2102 118.5 46.2102V50.4804C123.778 50.4804 129.329 54.4368 135.359 62.6411C141.31 70.739 147.315 82.4095 153.62 96.5991C159.915 110.767 166.451 127.307 173.498 145.09C180.537 162.857 188.079 181.844 196.363 200.837C212.918 238.793 232.51 276.944 257.179 305.626C281.87 334.335 311.828 353.756 349.058 353.756V349.486Z" fill="url(#paint2_linear)"/>
<path id="net-load-2" d="M349.232 328.91L349.283 326.775L349.258 326.775H349.232V328.91ZM-17.7716 510.551L-18.9633 512.323L-15.42 514.706L-14.2284 512.934L-17.7716 510.551ZM873.96 458.737L874.807 456.777L870.886 455.084L870.04 457.044L873.96 458.737ZM349.182 331.044C372.983 331.609 398.889 325.329 425.002 319.011C451.241 312.662 477.74 306.261 503.18 306.261V301.991C477.138 301.991 450.129 308.538 423.998 314.86C397.741 321.213 372.414 327.325 349.283 326.775L349.182 331.044ZM503.18 306.261C527.161 306.261 545.369 322.435 561.429 347.75C577.483 373.055 590.968 406.814 605.753 440.912C620.482 474.881 636.479 509.124 657.502 534.87C678.58 560.684 704.864 578.135 740.099 578.135V573.865C706.531 573.865 681.356 557.332 660.81 532.169C640.207 506.939 624.413 473.213 609.671 439.214C594.985 405.344 581.321 371.134 565.034 345.462C548.755 319.801 529.432 301.991 503.18 301.991V306.261ZM-14.2284 512.934C31.1229 445.511 50.0305 378.255 66.7738 328.202C75.1736 303.091 82.966 282.508 93.1589 268.193C103.246 254.026 115.578 246.135 133.248 246.135V241.865C113.931 241.865 100.402 250.659 89.6805 265.716C79.0648 280.625 71.1012 301.804 62.7242 326.847C45.9139 377.1 27.1848 443.715 -17.7716 510.551L-14.2284 512.934ZM740.099 578.135C802.682 578.135 844.473 527.033 873.96 458.737L870.04 457.044C840.649 525.118 799.884 573.865 740.099 573.865V578.135ZM349.232 326.775C331.762 326.775 314.003 321.588 296.005 313.688C278.003 305.786 259.908 295.238 241.734 284.612C223.605 274.012 205.393 263.333 187.324 255.316C169.25 247.296 151.162 241.865 133.248 241.865V246.135C150.322 246.135 167.785 251.318 185.592 259.219C203.402 267.122 221.4 277.67 239.579 288.298C257.712 298.9 276.022 309.579 294.289 317.598C312.561 325.618 330.937 331.045 349.232 331.045V326.775Z" fill="url(#paint3_linear)"/>
<path id="net-load-3" d="M349.232 364.506L349.246 362.371H349.232V364.506ZM-16.7828 410.981L-18.7692 411.764L-17.2037 415.737L-15.2172 414.954L-16.7828 410.981ZM873.117 400.513L874.937 399.396L872.703 395.757L870.883 396.874L873.117 400.513ZM349.219 366.641C372.775 366.79 398.47 365.141 424.637 363.463C450.835 361.783 477.519 360.072 503.18 360.072V355.802C477.358 355.802 450.535 357.523 424.363 359.202C398.161 360.882 372.623 362.518 349.246 362.371L349.219 366.641ZM503.18 360.072C552.739 360.072 577.091 377.752 606.598 395.79C636.297 413.946 670.794 432.135 740.099 432.135V427.865C671.797 427.865 638.068 410.023 608.825 392.147C579.391 374.153 554.087 355.802 503.18 355.802V360.072ZM-15.2172 414.954C30.2703 397.03 49.3174 379.091 66.075 365.812C74.405 359.212 82.0747 353.841 92.1646 350.085C102.261 346.327 114.922 344.135 133.248 344.135V339.865C114.587 339.865 101.387 342.096 90.6748 346.083C79.956 350.074 71.8698 355.772 63.423 362.466C46.6271 375.774 28.0374 393.32 -16.7828 410.981L-15.2172 414.954ZM740.099 432.135C801.605 432.135 843.285 418.828 873.117 400.513L870.883 396.874C841.837 414.706 800.961 427.865 740.099 427.865V432.135ZM349.232 362.371C313.658 362.371 277.32 356.774 240.983 351.143C204.711 345.522 168.431 339.865 133.248 339.865V344.135C168.042 344.135 203.987 349.731 240.329 355.363C276.607 360.985 313.273 366.641 349.232 366.641V362.371Z" fill="url(#paint4_linear)"/>
</g>
</g>
</g>
<g id="Ticks">
<path id="&#208;&#148;&#208;&#181;&#208;&#189;&#209;&#140;" opacity="0.5" d="M252.993 669.303C252.993 671.66 252.351 673.463 251.069 674.713C249.793 675.956 247.954 676.578 245.551 676.578H241.596V662.301H245.971C248.191 662.301 249.917 662.916 251.147 664.146C252.378 665.377 252.993 667.096 252.993 669.303ZM251.235 669.361C251.235 667.499 250.766 666.096 249.829 665.152C248.898 664.208 247.511 663.736 245.669 663.736H243.256V675.143H245.278C247.257 675.143 248.745 674.658 249.741 673.688C250.737 672.711 251.235 671.269 251.235 669.361ZM262.524 676.578L262.202 675.055H262.124C261.59 675.725 261.056 676.181 260.522 676.422C259.995 676.656 259.334 676.773 258.54 676.773C257.478 676.773 256.645 676.5 256.04 675.953C255.441 675.406 255.141 674.628 255.141 673.619C255.141 671.458 256.87 670.325 260.327 670.221L262.143 670.162V669.498C262.143 668.658 261.961 668.04 261.596 667.643C261.238 667.239 260.662 667.037 259.868 667.037C258.976 667.037 257.967 667.311 256.84 667.857L256.342 666.617C256.87 666.331 257.446 666.106 258.071 665.943C258.702 665.781 259.334 665.699 259.965 665.699C261.241 665.699 262.185 665.982 262.797 666.549C263.416 667.115 263.725 668.023 263.725 669.273V676.578H262.524ZM258.862 675.436C259.871 675.436 260.662 675.159 261.235 674.605C261.814 674.052 262.104 673.277 262.104 672.281V671.314L260.483 671.383C259.194 671.428 258.263 671.63 257.69 671.988C257.124 672.34 256.84 672.89 256.84 673.639C256.84 674.225 257.016 674.671 257.368 674.977C257.726 675.283 258.224 675.436 258.862 675.436ZM265.376 665.875H267.114L269.458 671.979C269.972 673.372 270.291 674.378 270.415 674.996H270.493C270.577 674.664 270.753 674.098 271.02 673.297C271.294 672.49 272.179 670.016 273.676 665.875H275.415L270.815 678.062C270.359 679.267 269.825 680.12 269.213 680.621C268.608 681.129 267.863 681.383 266.977 681.383C266.482 681.383 265.994 681.327 265.512 681.217V679.918C265.87 679.996 266.271 680.035 266.713 680.035C267.827 680.035 268.621 679.41 269.096 678.16L269.692 676.637L265.376 665.875Z" fill="#022133"/>
<path id="&#208;&#159;&#208;&#190;&#208;&#187;&#208;&#189;&#208;&#190;&#209;&#135;&#209;&#140;" opacity="0.5" d="M673.701 676.578H671.807L664.004 664.596H663.926C664.03 666.002 664.082 667.291 664.082 668.463V676.578H662.549V662.301H664.424L672.207 674.234H672.285C672.272 674.059 672.243 673.495 672.197 672.545C672.152 671.588 672.136 670.904 672.149 670.494V662.301H673.701V676.578ZM679.004 676.578H677.383V665.875H679.004V676.578ZM677.246 662.975C677.246 662.604 677.337 662.333 677.52 662.164C677.702 661.988 677.93 661.9 678.203 661.9C678.464 661.9 678.688 661.988 678.877 662.164C679.066 662.34 679.16 662.61 679.16 662.975C679.16 663.339 679.066 663.613 678.877 663.795C678.688 663.971 678.464 664.059 678.203 664.059C677.93 664.059 677.702 663.971 677.52 663.795C677.337 663.613 677.246 663.339 677.246 662.975ZM691.201 665.875V666.9L689.219 667.135C689.401 667.363 689.564 667.662 689.707 668.033C689.85 668.398 689.922 668.811 689.922 669.273C689.922 670.322 689.564 671.158 688.848 671.783C688.132 672.408 687.149 672.721 685.899 672.721C685.58 672.721 685.28 672.695 685 672.643C684.31 673.007 683.965 673.466 683.965 674.02C683.965 674.312 684.085 674.531 684.326 674.674C684.567 674.811 684.981 674.879 685.567 674.879H687.461C688.62 674.879 689.509 675.123 690.127 675.611C690.752 676.1 691.065 676.809 691.065 677.74C691.065 678.925 690.589 679.827 689.639 680.445C688.688 681.07 687.302 681.383 685.479 681.383C684.079 681.383 682.998 681.122 682.237 680.602C681.481 680.081 681.104 679.345 681.104 678.395C681.104 677.743 681.312 677.18 681.729 676.705C682.145 676.23 682.731 675.908 683.487 675.738C683.213 675.615 682.982 675.423 682.793 675.162C682.611 674.902 682.52 674.599 682.52 674.254C682.52 673.863 682.624 673.521 682.832 673.229C683.041 672.936 683.369 672.652 683.819 672.379C683.265 672.151 682.813 671.764 682.461 671.217C682.116 670.67 681.944 670.045 681.944 669.342C681.944 668.17 682.295 667.268 682.998 666.637C683.701 665.999 684.697 665.68 685.987 665.68C686.546 665.68 687.051 665.745 687.5 665.875H691.201ZM682.666 678.375C682.666 678.954 682.91 679.394 683.399 679.693C683.887 679.993 684.587 680.143 685.498 680.143C686.859 680.143 687.865 679.938 688.516 679.527C689.173 679.124 689.502 678.574 689.502 677.877C689.502 677.298 689.323 676.894 688.965 676.666C688.607 676.445 687.933 676.334 686.944 676.334H685C684.265 676.334 683.692 676.51 683.281 676.861C682.871 677.213 682.666 677.717 682.666 678.375ZM683.545 669.303C683.545 670.051 683.757 670.618 684.18 671.002C684.603 671.386 685.192 671.578 685.947 671.578C687.529 671.578 688.32 670.81 688.32 669.273C688.32 667.665 687.52 666.861 685.918 666.861C685.156 666.861 684.57 667.066 684.16 667.477C683.75 667.887 683.545 668.495 683.545 669.303ZM700.723 676.578V669.654C700.723 668.782 700.524 668.131 700.127 667.701C699.73 667.271 699.108 667.057 698.262 667.057C697.136 667.057 696.312 667.363 695.791 667.975C695.277 668.587 695.02 669.589 695.02 670.982V676.578H693.399V661.383H695.02V665.982C695.02 666.536 694.994 666.995 694.942 667.359H695.039C695.358 666.845 695.811 666.441 696.397 666.148C696.989 665.849 697.663 665.699 698.418 665.699C699.727 665.699 700.707 666.012 701.358 666.637C702.015 667.255 702.344 668.242 702.344 669.596V676.578H700.723ZM709.141 675.436C709.427 675.436 709.704 675.416 709.971 675.377C710.238 675.331 710.449 675.286 710.606 675.24V676.48C710.43 676.565 710.169 676.633 709.824 676.686C709.486 676.744 709.18 676.773 708.906 676.773C706.836 676.773 705.801 675.683 705.801 673.502V667.135H704.268V666.354L705.801 665.68L706.485 663.395H707.422V665.875H710.528V667.135H707.422V673.434C707.422 674.078 707.575 674.573 707.881 674.918C708.187 675.263 708.607 675.436 709.141 675.436Z" fill="#022133"/>
</g>
</g>
<defs>
<linearGradient id="paint0_linear" x1="3" y1="579.097" x2="864" y2="579.097" gradientUnits="userSpaceOnUse">
<stop offset="0.28312" stop-color="#333363"/>
<stop offset="0.372103" stop-color="white"/>
<stop offset="0.785506" stop-color="white"/>
<stop offset="0.872636" stop-color="#323263"/>
</linearGradient>
<linearGradient id="paint1_linear" x1="-221.001" y1="579.097" x2="639.999" y2="579.097" gradientUnits="userSpaceOnUse">
<stop offset="0.28312" stop-color="#333363"/>
<stop offset="0.372103" stop-color="white"/>
<stop offset="0.785506" stop-color="white"/>
<stop offset="0.872636" stop-color="#323263"/>
</linearGradient>
<linearGradient id="paint2_linear" x1="234" y1="642" x2="234" y2="48" gradientUnits="userSpaceOnUse">
<stop stop-color="#00A5BA"/>
<stop offset="0.515286" stop-color="#F7C604"/>
<stop offset="1" stop-color="#FF0000"/>
</linearGradient>
<linearGradient id="paint3_linear" x1="233.504" y1="430.261" x2="233.504" y2="-40.925" gradientUnits="userSpaceOnUse">
<stop stop-color="#00A5BA"/>
<stop offset="0.515286" stop-color="#F7C604"/>
<stop offset="1" stop-color="#FF0000"/>
</linearGradient>
<linearGradient id="paint4_linear" x1="233.504" y1="391.37" x2="233.504" y2="266.478" gradientUnits="userSpaceOnUse">
<stop stop-color="#00A5BA"/>
<stop offset="0.515286" stop-color="#F7C604"/>
<stop offset="1" stop-color="#FF0000"/>
</linearGradient>
</defs>
</svg>
