<svg width="190" height="38" viewBox="0 0 190 38" fill="none" xmlns="http://www.w3.org/2000/svg">
<rect width="190" height="38" fill="#E5E5E5"/>
<rect width="1440" height="6572" transform="translate(-63 -12)" fill="white"/>
<rect x="-63" y="-12" width="1440" height="64" fill="black"/>
<path fill-rule="evenodd" clip-rule="evenodd" d="M1.44564 35.5595C1.12434 35.2505 1.12434 34.9415 1.44564 34.6326L4.81923 31.4398C3.31985 29.792 2.14178 27.9124 1.28499 25.8011C0.428205 23.6898 -0.000183105 21.4326 -0.000183105 19.0295C-0.000183105 16.4547 0.499603 14.0345 1.49919 11.7687C2.49878 9.50287 3.86426 7.53749 5.59569 5.87247C7.32712 4.20745 9.37088 2.88576 11.7271 1.90734C14.0832 0.928927 16.6 0.439728 19.2775 0.439728C21.8478 0.439728 24.2664 0.886015 26.5334 1.7786C28.8003 2.67119 30.7905 3.90706 32.5041 5.48626L36.0383 2.19057C36.3239 1.88159 36.6273 1.88159 36.9486 2.19057L37.1628 2.39655C37.4841 2.70552 37.4841 3.01449 37.1628 3.32346L33.6821 6.61915C35.1815 8.26701 36.3774 10.1551 37.2699 12.2836C38.1624 14.4121 38.6087 16.6607 38.6087 19.0295C38.6087 21.6043 38.0999 24.0159 37.0825 26.2646C36.0651 28.5132 34.6907 30.47 32.9592 32.135C31.2278 33.8001 29.184 35.1132 26.8279 36.0744C24.4717 37.0357 21.9549 37.5163 19.2775 37.5163C16.6714 37.5163 14.2349 37.0872 11.968 36.2289C9.7011 35.3706 7.71088 34.1519 5.99731 32.5727L2.57017 35.7654C2.28457 36.0744 1.98113 36.0744 1.65984 35.7654L1.44564 35.5595ZM30.844 7.08261C29.309 5.70939 27.5597 4.63659 25.5962 3.86415C23.6328 3.09172 21.5265 2.70551 19.2775 2.70551C16.9213 2.70551 14.7169 3.13463 12.6642 3.99289C10.6114 4.85115 8.82649 6.01836 7.30926 7.49457C5.79203 8.97077 4.58719 10.6958 3.6947 12.6698C2.80221 14.6438 2.35597 16.7637 2.35597 19.0295C2.35597 21.1237 2.72189 23.0805 3.45373 24.9C4.18557 26.7195 5.21191 28.3501 6.5328 29.792L30.844 7.08261ZM7.71088 30.9249C9.21026 32.2981 10.9506 33.3623 12.9319 34.1176C14.9132 34.8729 17.0284 35.2505 19.2775 35.2505C21.6336 35.2505 23.838 34.83 25.8908 33.9889C27.9435 33.1478 29.7374 31.9891 31.2724 30.5129C32.8075 29.0367 34.0213 27.3202 34.9138 25.3634C35.8063 23.4066 36.2525 21.2953 36.2525 19.0295C36.2525 16.9697 35.8777 15.0129 35.128 13.1591C34.3783 11.3052 33.3252 9.65739 31.9686 8.21551L7.71088 30.9249ZM48.8365 1.10917C48.8365 0.903184 48.9168 0.740117 49.0775 0.619961C49.2381 0.499805 49.4256 0.439728 49.6398 0.439728H50.5501L76.2536 32.6242H76.3072V1.62412C76.3072 1.17782 76.5392 0.95468 77.0033 0.95468H78.0743C78.5384 0.95468 78.7704 1.17782 78.7704 1.62412V36.8468C78.7704 37.0872 78.6812 37.2588 78.5027 37.3618C78.3242 37.4648 78.1278 37.5163 77.9136 37.5163H77.2175L77.0568 37.3618C76.9498 37.2588 76.6374 36.8983 76.1197 36.2804C75.6021 35.6625 74.8167 34.7012 73.7636 33.3967C72.7104 32.0921 71.2289 30.2383 69.319 27.8352C67.4091 25.4321 64.9905 22.3767 62.0631 18.669C59.1358 14.9614 55.548 10.4127 51.2998 5.0228H51.2462V36.3319C51.2462 36.7782 51.0142 37.0013 50.5501 37.0013H49.5327C49.0686 37.0013 48.8365 36.7782 48.8365 36.3319V1.10917ZM90.7922 1.64731C90.7922 1.47566 90.8546 1.32118 90.9796 1.18385C91.1045 1.04653 91.2563 0.977873 91.4348 0.977873H102.787C105.393 0.977873 107.839 1.44991 110.123 2.39399C112.408 3.33808 114.407 4.62544 116.121 6.25613C117.834 7.88682 119.182 9.79213 120.164 11.9721C121.146 14.1521 121.636 16.4779 121.636 18.9497C121.636 21.4558 121.146 23.8074 120.164 26.0045C119.182 28.2017 117.834 30.1156 116.121 31.7463C114.407 33.3769 112.408 34.6643 110.123 35.6084C107.839 36.5525 105.393 37.0245 102.787 37.0245H91.4348C91.2563 37.0245 91.1045 36.9559 90.9796 36.8185C90.8546 36.6812 90.7922 36.5267 90.7922 36.3551V1.64731ZM102.359 34.787C104.715 34.787 106.901 34.3837 108.918 33.5769C110.936 32.7701 112.685 31.6544 114.166 30.2297C115.648 28.805 116.817 27.1314 117.674 25.2089C118.531 23.2864 118.959 21.1923 118.959 18.9265C118.959 16.695 118.531 14.6181 117.674 12.6956C116.817 10.7731 115.648 9.10809 114.166 7.70055C112.685 6.29301 110.936 5.18587 108.918 4.37911C106.901 3.57235 104.715 3.16897 102.359 3.16897H93.309V34.787H102.359ZM130.847 1.64731C130.847 1.20102 131.079 0.977873 131.543 0.977873H153.016C153.48 0.977873 153.712 1.20102 153.712 1.64731V2.52273C153.712 2.96902 153.48 3.19217 153.016 3.19217H133.417V17.4048H150.392C150.856 17.4048 151.088 17.628 151.088 18.0743V18.9497C151.088 19.396 150.856 19.6191 150.392 19.6191H133.417V34.8617H153.016C153.48 34.8617 153.712 35.0849 153.712 35.5312V36.3551C153.712 36.8014 153.48 37.0245 153.016 37.0245H131.543C131.079 37.0245 130.847 36.8014 130.847 36.3551V1.64731ZM163.806 1.64731C163.806 1.20102 164.038 0.977873 164.502 0.977873H177.783C179.425 0.977873 180.969 1.26109 182.415 1.82754C183.86 2.39399 185.128 3.16641 186.216 4.14483C187.305 5.12324 188.162 6.28187 188.787 7.62076C189.412 8.95964 189.724 10.4187 189.724 11.9978C189.724 13.3024 189.501 14.5297 189.055 15.6798C188.608 16.8298 187.993 17.8683 187.207 18.7952C186.422 19.7221 185.494 20.5289 184.423 21.2155C183.352 21.9021 182.174 22.417 180.888 22.7603L188.707 36.0976C188.849 36.3036 188.894 36.5096 188.84 36.7155C188.787 36.9215 188.617 37.0245 188.332 37.0245H186.672C186.315 37.0245 186.065 36.87 185.922 36.5611L178.157 23.0693C177.8 23.1036 177.47 23.1208 177.167 23.1208H166.323V36.3551C166.323 36.8014 166.037 37.0245 165.466 37.0245H164.502C164.038 37.0245 163.806 36.8014 163.806 36.3551V1.64731ZM177.675 20.9348C178.961 20.9348 180.174 20.7031 181.317 20.2396C182.459 19.7762 183.468 19.1496 184.342 18.36C185.217 17.5704 185.904 16.6264 186.404 15.5278C186.904 14.4292 187.154 13.2449 187.154 11.9746C187.154 10.7388 186.904 9.59729 186.404 8.55021C185.904 7.50314 185.217 6.5934 184.342 5.82097C183.468 5.04854 182.45 4.43918 181.29 3.99289C180.13 3.5466 178.907 3.32345 177.622 3.32345H166.377V20.9348H177.675Z" fill="white"/>
</svg>
