<svg width="215" height="42" viewBox="0 0 215 42" fill="none" xmlns="http://www.w3.org/2000/svg">
<path fill-rule="evenodd" clip-rule="evenodd" d="M1.63844 39.7833C1.27434 39.4333 1.27434 39.0833 1.63844 38.7333L5.46147 35.1167C3.76234 33.25 2.42733 31.1208 1.45639 28.7292C0.485459 26.3375 0 23.7806 0 21.0583C0 18.1417 0.566369 15.4 1.69912 12.8333C2.83188 10.2667 4.37928 8.04029 6.34138 6.15417C8.30347 4.26805 10.6195 2.77084 13.2896 1.6625C15.9596 0.554161 18.8117 0 21.8459 0C24.7587 0 27.4995 0.50555 30.0684 1.51667C32.6374 2.52778 34.8927 3.92777 36.8346 5.71667L40.8397 1.98333C41.1633 1.63333 41.5072 1.63333 41.8713 1.98333L42.114 2.21667C42.4781 2.56667 42.4781 2.91667 42.114 3.26667L38.1696 7C39.8688 8.86668 41.224 11.0055 42.2354 13.4167C43.2468 15.8278 43.7525 18.375 43.7525 21.0583C43.7525 23.975 43.176 26.7069 42.023 29.2542C40.87 31.8014 39.3125 34.018 37.3504 35.9042C35.3883 37.7903 33.0723 39.2778 30.4022 40.3667C27.7321 41.4556 24.8801 42 21.8459 42C18.8926 42 16.1316 41.5139 13.5627 40.5417C10.9937 39.5694 8.73837 38.1889 6.7965 36.4L2.91279 40.0167C2.58914 40.3667 2.24527 40.3667 1.88117 40.0167L1.63844 39.7833ZM34.9534 7.52501C33.2138 5.96945 31.2315 4.75418 29.0065 3.87917C26.7814 3.00417 24.3946 2.56667 21.8459 2.56667C19.1758 2.56667 16.6777 3.05278 14.3515 4.02501C12.0253 4.99724 10.0026 6.31945 8.28321 7.99168C6.56385 9.66391 5.19849 11.6181 4.18711 13.8542C3.17572 16.0903 2.67003 18.4917 2.67003 21.0584C2.67003 23.4306 3.08469 25.6472 3.91403 27.7084C4.74337 29.7695 5.90645 31.6167 7.40331 33.25L34.9534 7.52501ZM8.7384 34.5329C10.4375 36.0885 12.4097 37.294 14.655 38.1496C16.9003 39.0051 19.2972 39.4329 21.8459 39.4329C24.516 39.4329 27.0141 38.9565 29.3403 38.0038C31.6665 37.051 33.6993 35.7385 35.4389 34.0663C37.1785 32.394 38.554 30.4496 39.5654 28.2329C40.5768 26.0162 41.0825 23.6246 41.0825 21.0579C41.0825 18.7246 40.6577 16.5079 39.8081 14.4079C38.9585 12.3079 37.7651 10.4413 36.2278 8.80793L8.7384 34.5329ZM55.3429 0.758333C55.3429 0.524999 55.434 0.340278 55.616 0.204167C55.7981 0.0680549 56.0105 0 56.2532 0H57.2848L86.4127 36.4583H86.4733V1.34167C86.4733 0.836109 86.7363 0.583333 87.2622 0.583333H88.4759C89.0018 0.583333 89.2648 0.836109 89.2648 1.34167V41.2417C89.2648 41.5139 89.1636 41.7083 88.9613 41.825C88.7591 41.9417 88.5366 42 88.2938 42H87.5049L87.3229 41.825C87.2015 41.7083 86.8475 41.3 86.2609 40.6C85.6743 39.9 84.7843 38.8111 83.5909 37.3333C82.3975 35.8555 80.7186 33.7556 78.5542 31.0333C76.3898 28.3111 73.649 24.85 70.3316 20.65C67.0143 16.45 62.9486 11.2973 58.1344 5.19167H58.0737V40.6583C58.0737 41.1639 57.8107 41.4167 57.2848 41.4167H56.1318C55.6059 41.4167 55.3429 41.1639 55.3429 40.6583V0.758333ZM102.888 1.36759C102.888 1.17314 102.959 0.998146 103.1 0.84259C103.242 0.687033 103.414 0.609256 103.616 0.609256H116.481C119.434 0.609256 122.205 1.14397 124.795 2.21342C127.384 3.28287 129.649 4.74119 131.591 6.58842C133.533 8.43565 135.06 10.594 136.173 13.0634C137.285 15.5329 137.841 18.1676 137.841 20.9676C137.841 23.8065 137.285 26.4704 136.173 28.9593C135.06 31.4482 133.533 33.6162 131.591 35.4634C129.649 37.3107 127.384 38.769 124.795 39.8384C122.205 40.9079 119.434 41.4426 116.481 41.4426H103.616C103.414 41.4426 103.242 41.3648 103.1 41.2092C102.959 41.0537 102.888 40.8787 102.888 40.6843V1.36759ZM115.996 38.9083C118.666 38.9083 121.144 38.4513 123.429 37.5374C125.715 36.6236 127.697 35.3597 129.376 33.7458C131.055 32.1319 132.38 30.2361 133.351 28.0583C134.322 25.8805 134.807 23.5083 134.807 20.9416C134.807 18.4138 134.322 16.0611 133.351 13.8833C132.38 11.7055 131.055 9.8194 129.376 8.22495C127.697 6.63049 125.715 5.37634 123.429 4.46245C121.144 3.54855 118.666 3.09161 115.996 3.09161H105.74V38.9083H115.996ZM148.279 1.36759C148.279 0.862032 148.542 0.609256 149.068 0.609256H173.402C173.928 0.609256 174.191 0.862032 174.191 1.36759V2.35926C174.191 2.86481 173.928 3.11759 173.402 3.11759H151.192V19.2176H170.428C170.954 19.2176 171.217 19.4704 171.217 19.9759V20.9676C171.217 21.4731 170.954 21.7259 170.428 21.7259H151.192V38.9926H173.402C173.928 38.9926 174.191 39.2454 174.191 39.7509V40.6843C174.191 41.1898 173.928 41.4426 173.402 41.4426H149.068C148.542 41.4426 148.279 41.1898 148.279 40.6843V1.36759ZM185.629 1.36759C185.629 0.862032 185.892 0.609256 186.418 0.609256H201.468C203.329 0.609256 205.078 0.930086 206.717 1.57176C208.355 2.21343 209.791 3.08842 211.025 4.19676C212.259 5.30509 213.23 6.61758 213.938 8.13426C214.646 9.65093 215 11.3037 215 13.0926C215 14.5704 214.747 15.9606 214.241 17.2634C213.736 18.5662 213.038 19.7426 212.148 20.7926C211.258 21.8426 210.206 22.7565 208.992 23.5343C207.779 24.312 206.444 24.8954 204.987 25.2843L213.847 40.3926C214.009 40.6259 214.059 40.8593 213.999 41.0926C213.938 41.3259 213.746 41.4426 213.422 41.4426H211.541C211.136 41.4426 210.853 41.2676 210.691 40.9176L201.892 25.6343C201.488 25.6731 201.114 25.6926 200.77 25.6926H188.481V40.6843C188.481 41.1898 188.158 41.4426 187.51 41.4426H186.418C185.892 41.4426 185.629 41.1898 185.629 40.6843V1.36759ZM201.346 23.2166C202.803 23.2166 204.178 22.9541 205.473 22.4291C206.767 21.9041 207.91 21.1944 208.901 20.2999C209.893 19.4055 210.671 18.336 211.238 17.0916C211.804 15.8471 212.087 14.5055 212.087 13.0666C212.087 11.6666 211.804 10.3735 211.238 9.18742C210.671 8.0013 209.893 6.97076 208.901 6.09576C207.91 5.22075 206.757 4.53048 205.442 4.02493C204.128 3.51937 202.742 3.26659 201.286 3.26659H188.542V23.2166H201.346Z" fill="black"/>
</svg>
