<svg width="164" height="33" viewBox="0 0 164 33" fill="none" xmlns="http://www.w3.org/2000/svg">
<path fill-rule="evenodd" clip-rule="evenodd" d="M1.24768 31.1438C0.970373 30.8771 0.970373 30.6105 1.24768 30.3438L4.15935 27.5882C2.86527 26.166 1.8485 24.5438 1.10903 22.7216C0.369549 20.8993 -0.000183105 18.9512 -0.000183105 16.8771C-0.000183105 14.6549 0.431171 12.566 1.29389 10.6104C2.15662 8.65488 3.33514 6.95861 4.8295 5.52156C6.32385 4.08452 8.08779 2.94379 10.1213 2.09934C12.1549 1.25489 14.3271 0.832672 16.6379 0.832672C18.8564 0.832672 20.9438 1.21785 22.9004 1.98823C24.8569 2.7586 26.5746 3.82526 28.0536 5.18823L31.1039 2.34378C31.3504 2.07712 31.6123 2.07712 31.8896 2.34378L32.0744 2.52156C32.3517 2.78823 32.3517 3.05489 32.0744 3.32156L29.0703 6.16601C30.3644 7.58823 31.3966 9.21785 32.1669 11.0549C32.9372 12.8919 33.3223 14.8327 33.3223 16.8771C33.3223 19.0993 32.8832 21.1808 32.0051 23.1216C31.127 25.0623 29.9408 26.7512 28.4464 28.1882C26.952 29.6253 25.1881 30.7586 23.1545 31.5882C21.121 32.4179 18.9488 32.8327 16.6379 32.8327C14.3887 32.8327 12.2859 32.4623 10.3293 31.7216C8.37279 30.9808 6.65508 29.929 5.17612 28.566L2.21823 31.3216C1.97174 31.5882 1.70985 31.5882 1.43254 31.3216L1.24768 31.1438ZM26.6208 6.56598C25.2959 5.38079 23.7862 4.45487 22.0915 3.7882C20.3969 3.12153 18.5791 2.7882 16.6379 2.7882C14.6044 2.7882 12.7018 3.15857 10.9301 3.89932C9.15847 4.64006 7.61792 5.64746 6.30843 6.92154C4.99894 8.19562 3.95907 9.68449 3.18878 11.3882C2.4185 13.0919 2.03336 14.9215 2.03336 16.8771C2.03336 18.6845 2.34917 20.3734 2.98081 21.9438C3.61244 23.5141 4.49826 24.9215 5.63829 26.166L26.6208 6.56598ZM6.65505 27.1438C7.94913 28.329 9.45117 29.2475 11.1612 29.8993C12.8712 30.5512 14.6968 30.8771 16.6379 30.8771C18.6715 30.8771 20.5741 30.5142 22.3457 29.7882C24.1174 29.0623 25.6656 28.0623 26.9905 26.7882C28.3154 25.5142 29.363 24.0327 30.1333 22.3438C30.9036 20.6549 31.2887 18.8327 31.2887 16.8771C31.2887 15.0993 30.9652 13.4105 30.3182 11.8105C29.6711 10.2104 28.7622 8.78824 27.5914 7.54379L6.65505 27.1438ZM42.1498 1.41045C42.1498 1.23267 42.2191 1.09193 42.3577 0.988228C42.4964 0.884523 42.6581 0.832672 42.843 0.832672H43.6287L65.8129 28.6105H65.8591V1.85489C65.8591 1.46971 66.0594 1.27712 66.4599 1.27712H67.3842C67.7848 1.27712 67.9851 1.46971 67.9851 1.85489V32.2549C67.9851 32.4623 67.908 32.6104 67.754 32.6993C67.5999 32.7882 67.4305 32.8327 67.2456 32.8327H66.6448L66.5061 32.6993C66.4137 32.6104 66.1441 32.2993 65.6973 31.766C65.2506 31.2327 64.5727 30.403 63.6638 29.2771C62.7548 28.1512 61.4762 26.5512 59.8278 24.4771C58.1794 22.403 56.0919 19.766 53.5654 16.566C51.0388 13.366 47.9423 9.4401 44.2757 4.78823H44.2295V31.8104C44.2295 32.1956 44.0293 32.3882 43.6287 32.3882H42.7506C42.35 32.3882 42.1498 32.1956 42.1498 31.8104V1.41045ZM78.3608 1.87489C78.3608 1.72675 78.4147 1.59341 78.5226 1.47489C78.6304 1.35637 78.7613 1.29712 78.9154 1.29712H88.7134C90.9626 1.29712 93.0732 1.70452 95.0451 2.51934C97.0171 3.33416 98.7425 4.44526 100.221 5.85267C101.7 7.26009 102.864 8.90451 103.711 10.786C104.558 12.6675 104.982 14.6749 104.982 16.8082C104.982 18.9712 104.558 21.0008 103.711 22.8971C102.864 24.7934 101.7 26.4453 100.221 27.8527C98.7425 29.2601 97.0171 30.3712 95.0451 31.186C93.0732 32.0008 90.9626 32.4082 88.7134 32.4082H78.9154C78.7613 32.4082 78.6304 32.349 78.5226 32.2304C78.4147 32.1119 78.3608 31.9786 78.3608 31.8304V1.87489ZM88.3437 30.4771C90.3772 30.4771 92.2644 30.129 94.0052 29.4327C95.7461 28.7364 97.2558 27.7734 98.5345 26.5438C99.8132 25.3141 100.822 23.8697 101.562 22.2104C102.301 20.5512 102.671 18.7438 102.671 16.7882C102.671 14.8623 102.301 13.0697 101.562 11.4104C100.822 9.75117 99.8132 8.31415 98.5345 7.09933C97.2558 5.88451 95.7461 4.92896 94.0052 4.23266C92.2644 3.53636 90.3772 3.18822 88.3437 3.18822H80.533V30.4771H88.3437ZM112.931 1.87489C112.931 1.48971 113.131 1.29712 113.532 1.29712H132.065C132.466 1.29712 132.666 1.48971 132.666 1.87489V2.63045C132.666 3.01564 132.466 3.20823 132.065 3.20823H115.15V15.4749H129.8C130.201 15.4749 130.401 15.6675 130.401 16.0527V16.8082C130.401 17.1934 130.201 17.386 129.8 17.386H115.15V30.5416H132.065C132.466 30.5416 132.666 30.7341 132.666 31.1193V31.8304C132.666 32.2156 132.466 32.4082 132.065 32.4082H113.532C113.131 32.4082 112.931 32.2156 112.931 31.8304V1.87489ZM141.378 1.87489C141.378 1.48971 141.578 1.29712 141.978 1.29712H153.44C154.858 1.29712 156.19 1.54156 157.438 2.03045C158.686 2.51934 159.78 3.186 160.72 4.03045C161.659 4.8749 162.399 5.87489 162.938 7.03045C163.477 8.18601 163.747 9.44526 163.747 10.8082C163.747 11.9342 163.554 12.9934 163.169 13.986C162.784 14.9786 162.252 15.8749 161.575 16.6749C160.897 17.4749 160.096 18.1712 159.171 18.7638C158.247 19.3564 157.23 19.8008 156.121 20.0971L162.869 31.6082C162.992 31.786 163.03 31.9638 162.984 32.1416C162.938 32.3193 162.792 32.4082 162.545 32.4082H161.112C160.804 32.4082 160.589 32.2749 160.465 32.0082L153.764 20.3638C153.456 20.3934 153.171 20.4082 152.909 20.4082H143.55V31.8304C143.55 32.2156 143.303 32.4082 142.81 32.4082H141.978C141.578 32.4082 141.378 32.2156 141.378 31.8304V1.87489ZM153.348 18.5215C154.457 18.5215 155.505 18.3215 156.491 17.9215C157.477 17.5215 158.347 16.9808 159.102 16.2993C159.857 15.6178 160.45 14.803 160.881 13.8549C161.313 12.9067 161.528 11.8845 161.528 10.7882C161.528 9.72153 161.313 8.73636 160.881 7.83265C160.45 6.92895 159.857 6.14377 159.102 5.4771C158.347 4.81043 157.469 4.28451 156.468 3.89932C155.466 3.51414 154.411 3.32155 153.302 3.32155H143.596V18.5215H153.348Z" fill="black"/>
</svg>
