<svg width="237" height="47" viewBox="0 0 237 47" fill="none" xmlns="http://www.w3.org/2000/svg">
<path fill-rule="evenodd" clip-rule="evenodd" d="M1.80008 43.7307C1.40001 43.346 1.40001 42.9613 1.80008 42.5765L6.00083 38.601C4.13382 36.5491 2.66691 34.2087 1.60004 31.5797C0.53318 28.9507 -0.000244141 26.1401 -0.000244141 23.1478C-0.000244141 19.9417 0.622084 16.928 1.86676 14.1067C3.11143 11.2853 4.81172 8.83806 6.96767 6.7648C9.12363 4.69153 11.6685 3.04577 14.6024 1.82746C17.5363 0.609146 20.6701 0 24.0041 0C27.2047 0 30.2163 0.555712 33.039 1.66715C35.8618 2.77859 38.34 4.31749 40.4737 6.28389L44.8745 2.18012C45.2301 1.79539 45.6079 1.79539 46.008 2.18012L46.2747 2.43661C46.6748 2.82134 46.6748 3.20606 46.2747 3.59079L41.9406 7.69455C43.8076 9.74645 45.2968 12.0975 46.4081 14.7479C47.5194 17.3983 48.0751 20.1982 48.0751 23.1478C48.0751 26.3539 47.4416 29.3568 46.1747 32.1568C44.9078 34.9568 43.1964 37.3934 41.0405 39.4667C38.8845 41.5399 36.3396 43.175 33.4058 44.3719C30.4719 45.5689 27.338 46.1673 24.0041 46.1673C20.759 46.1673 17.7252 45.633 14.9024 44.5643C12.0797 43.4956 9.60149 41.9781 7.46776 40.0117L3.20033 43.9872C2.84471 44.3719 2.46687 44.3719 2.06679 43.9872L1.80008 43.7307ZM38.4066 8.27162C36.4952 6.56171 34.317 5.22586 31.8721 4.26404C29.4272 3.30221 26.8046 2.82131 24.0041 2.82131C21.0702 2.82131 18.3253 3.35565 15.7692 4.42434C13.2132 5.49304 10.9906 6.94644 9.10138 8.78459C7.21214 10.6227 5.71188 12.7708 4.60057 15.2288C3.48925 17.6868 2.9336 20.3264 2.9336 23.1478C2.9336 25.7554 3.38923 28.192 4.30051 30.4576C5.21179 32.7232 6.48979 34.7537 8.13454 36.5491L38.4066 8.27162ZM9.60147 37.9598C11.4685 39.6697 13.6355 40.9949 16.1026 41.9353C18.5698 42.8758 21.2035 43.346 24.0041 43.346C26.9379 43.346 29.6828 42.8223 32.2389 41.775C34.7949 40.7277 37.0286 39.285 38.9401 37.4468C40.8515 35.6087 42.3629 33.4713 43.4742 31.0347C44.5855 28.5981 45.1412 25.9691 45.1412 23.1478C45.1412 20.5829 44.6744 18.1463 43.7409 15.838C42.8074 13.5296 41.4961 11.4777 39.8069 9.68233L9.60147 37.9598ZM60.8107 0.833577C60.8107 0.57709 60.9107 0.374042 61.1107 0.224425C61.3108 0.0748074 61.5442 0 61.8109 0H62.9444L94.9501 40.0758H95.0168V1.47479C95.0168 0.919069 95.3058 0.641213 95.8837 0.641213H97.2172C97.7951 0.641213 98.084 0.919069 98.084 1.47479V45.3338C98.084 45.633 97.9729 45.8467 97.7507 45.975C97.5284 46.1032 97.2839 46.1673 97.0172 46.1673H96.1504L95.9503 45.975C95.817 45.8467 95.428 45.3979 94.7835 44.6284C94.1389 43.859 93.1609 42.662 91.8496 41.0376C90.5382 39.4132 88.6935 37.1049 86.3153 34.1125C83.937 31.1202 80.9254 27.3157 77.2803 22.6989C73.6352 18.0822 69.1678 12.4182 63.8779 5.70679H63.8112V44.6925C63.8112 45.2483 63.5223 45.5261 62.9444 45.5261H61.6775C61.0996 45.5261 60.8107 45.2483 60.8107 44.6925V0.833577ZM113.053 1.50365C113.053 1.28991 113.131 1.09755 113.287 0.926556C113.442 0.755565 113.631 0.670071 113.854 0.670071H127.989C131.234 0.670071 134.279 1.25784 137.124 2.43341C139.969 3.60897 142.459 5.21198 144.592 7.2425C146.726 9.27302 148.404 11.6455 149.627 14.36C150.849 17.0744 151.46 19.9706 151.46 23.0484C151.46 26.169 150.849 29.0972 149.627 31.833C148.404 34.5689 146.726 36.952 144.592 38.9825C142.459 41.0131 139.969 42.6161 137.124 43.7916C134.279 44.9672 131.234 45.555 127.989 45.555H113.854C113.631 45.555 113.442 45.4695 113.287 45.2985C113.131 45.1275 113.053 44.9351 113.053 44.7214V1.50365ZM127.456 42.7689C130.39 42.7689 133.113 42.2666 135.624 41.262C138.136 40.2575 140.314 38.8682 142.159 37.0942C144.003 35.3201 145.459 33.2362 146.526 30.8423C147.593 28.4485 148.126 25.8409 148.126 23.0195C148.126 20.2409 147.593 17.6547 146.526 15.2609C145.459 12.867 144.003 10.7937 142.159 9.04109C140.314 7.28843 138.136 5.90984 135.624 4.90526C133.113 3.90069 130.39 3.39841 127.456 3.39841H116.187V42.7689H127.456ZM162.929 1.50365C162.929 0.947927 163.218 0.670071 163.796 0.670071H190.534C191.112 0.670071 191.401 0.947927 191.401 1.50365V2.59371C191.401 3.14943 191.112 3.42729 190.534 3.42729H166.13V21.1248H187.267C187.845 21.1248 188.134 21.4026 188.134 21.9583V23.0484C188.134 23.6041 187.845 23.882 187.267 23.882H166.13V42.8619H190.534C191.112 42.8619 191.401 43.1397 191.401 43.6954V44.7214C191.401 45.2771 191.112 45.555 190.534 45.555H163.796C163.218 45.555 162.929 45.2771 162.929 44.7214V1.50365ZM203.97 1.50365C203.97 0.947927 204.259 0.670071 204.837 0.670071H221.373C223.418 0.670071 225.34 1.02273 227.141 1.72807C228.941 2.43341 230.519 3.39522 231.875 4.61353C233.231 5.83184 234.297 7.27455 235.075 8.94172C235.853 10.6089 236.242 12.4256 236.242 14.392C236.242 16.0164 235.964 17.5446 235.409 18.9767C234.853 20.4087 234.086 21.7018 233.108 22.856C232.13 24.0102 230.975 25.0148 229.641 25.8697C228.307 26.7247 226.84 27.3659 225.24 27.7934L234.975 44.4008C235.153 44.6573 235.209 44.9138 235.142 45.1702C235.075 45.4267 234.864 45.555 234.509 45.555H232.442C231.997 45.555 231.686 45.3626 231.508 44.9779L221.84 28.1781C221.395 28.2208 220.984 28.2422 220.606 28.2422H207.104V44.7214C207.104 45.2771 206.748 45.555 206.037 45.555H204.837C204.259 45.555 203.97 45.2771 203.97 44.7214V1.50365ZM221.24 25.5202C222.84 25.5202 224.351 25.2317 225.774 24.6546C227.196 24.0775 228.452 23.2974 229.541 22.3142C230.63 21.331 231.486 20.1554 232.108 18.7875C232.73 17.4196 233.042 15.9448 233.042 14.3631C233.042 12.8242 232.73 11.4029 232.108 10.0991C231.486 8.79527 230.63 7.66248 229.541 6.70065C228.452 5.73883 227.185 4.98007 225.74 4.42435C224.296 3.86863 222.773 3.59077 221.173 3.59077H207.17V25.5202H221.24Z" fill="black"/>
</svg>
