<svg width="1440" height="416" viewBox="0 0 1440 416" fill="none" xmlns="http://www.w3.org/2000/svg">
<path d="M-119.752 0.762604L-107.987 2.93392L-100.144 5.70089L-94.6927 8.23733L-90.575 10.4855L-87.0064 12.6184L-83.8298 14.7128L-80.9278 16.7688L-78.1827 18.8057L-75.6336 20.8425L-73.2022 22.8408L-70.8885 24.8584L-68.6531 26.8376L-66.4962 28.836L-64.4178 30.8151L-62.4177 32.7943L-60.4569 34.7734L-58.5746 36.7334L-56.6922 38.7126L-54.8882 40.6725L-53.1235 42.6325L-51.398 44.5924L-49.7117 46.5524L-48.0254 48.5123L-46.4175 50.4723L-44.8096 52.413L-43.2018 54.3729L-41.6723 56.3137L-40.1037 58.2736L-38.6135 60.2144L-37.1232 62.1551L-35.633 64.115L-34.182 66.0558L-32.731 67.9965L-31.3192 69.9372L-29.9074 71.878L-28.5349 73.8187L-27.1623 75.7594L-25.7897 77.7001L-24.4172 79.6409L-23.0838 81.5816L-21.7505 83.5223L-20.4563 85.4631L-19.1622 87.3846L-17.868 89.3253L-16.5739 91.2661L-15.2798 93.2068L-14.0248 95.1283L-12.7699 97.069L-11.515 99.0098L-10.2601 100.931L-9.04438 102.872L-7.82867 104.813L-6.61297 106.734L-5.39726 108.675L-4.18156 110.597L-2.96586 112.537L-1.78936 114.459L-0.612877 116.4L0.563607 118.321L1.7401 120.262L2.91659 122.183L4.09308 124.105L5.26956 126.046L6.40684 127.967L7.54411 129.908L8.7206 131.829L9.85787 133.751L10.9951 135.692L12.1324 137.613L13.2697 139.535L14.3677 141.475L15.505 143.397L16.6423 145.318L17.7403 147.24L18.8776 149.181L19.9757 151.102L21.0737 153.024L22.211 154.945L23.3091 156.886L24.4071 158.807L25.5052 160.729L26.6032 162.65L27.7013 164.572L28.7993 166.493L29.8974 168.434L30.9954 170.356L32.0543 172.277L33.1524 174.199L34.2504 176.12L35.3485 178.042L36.4073 179.963L37.5054 181.885L38.6034 183.806L39.6622 185.728L40.7603 187.669L41.8191 189.59L42.9172 191.512L43.976 193.433L45.0741 195.355L46.1329 197.276L47.231 199.198L48.329 201.119L49.3879 203.041L50.4859 204.962L51.5448 206.884L52.6428 208.805L53.7017 210.708L54.7997 212.629L55.8586 214.551L56.9566 216.472L58.0547 218.394L59.1135 220.315L60.2116 222.237L61.3096 224.158L62.3685 226.08L63.4665 228.001L64.5646 229.904L65.6626 231.825L66.7607 233.747L67.8588 235.668L68.9568 237.59L70.0549 239.511L71.1529 241.413L72.251 243.335L73.349 245.256L74.4471 247.178L75.5844 249.099L76.6824 251.002L77.8197 252.923L78.9178 254.845L80.055 256.766L81.1531 258.669L82.2903 260.59L83.4276 262.512L84.5649 264.414L85.7022 266.335L86.8394 268.257L87.9767 270.159L89.1532 272.081L90.2905 274.002L91.467 275.905L92.6042 277.826L93.7807 279.728L94.9572 281.65L96.1337 283.572L97.3102 285.474L98.5259 287.395L99.7024 289.298L100.918 291.219L102.095 293.121L103.31 295.043L104.526 296.945L105.742 298.867L106.997 300.769L108.212 302.671L109.467 304.593L110.722 306.495L111.977 308.417L113.271 310.319L114.526 312.221L115.82 314.143L117.114 316.045L118.409 317.947L119.742 319.85L121.075 321.771L122.409 323.674L123.742 325.576L125.075 327.478L126.448 329.38L127.86 331.283L129.232 333.185L130.644 335.087L132.056 336.99L133.507 338.892L134.958 340.794L136.409 342.697L137.899 344.599L139.389 346.501L140.919 348.403L142.448 350.287L143.978 352.189L145.585 354.091L147.154 355.974L148.801 357.877L150.409 359.76L152.095 361.662L153.782 363.545L155.507 365.428L157.272 367.311L159.076 369.214L160.88 371.097L162.723 372.98L164.645 374.844L166.566 376.727L168.566 378.61L170.605 380.474L172.684 382.337L174.841 384.201L177.037 386.065L179.311 387.929L181.704 389.774L184.135 391.638L186.684 393.463L189.351 395.308L192.135 397.133L195.076 398.939L198.174 400.746L201.508 402.533L205.077 404.281L208.959 406.011L213.312 407.702L218.253 409.316L224.136 410.814L231.665 412.083L239.508 412.621L247.352 412.352L255.195 411.314L263.038 409.527L270.881 406.971L276.803 404.569L281.548 402.36L285.666 400.246L289.392 398.152L292.843 396.115L296.058 394.078L299.117 392.06L302.019 390.043L304.804 388.044L307.47 386.065L310.019 384.067L312.529 382.088L314.961 380.128L317.314 378.149L319.627 376.189L321.863 374.209L324.059 372.25L326.216 370.29L328.294 368.349L330.373 366.389L332.412 364.429L334.412 362.488L336.412 360.528L338.333 358.588L340.255 356.647L342.177 354.687L344.02 352.746L345.863 350.805L347.706 348.865L349.51 346.924L351.314 344.983L353.079 343.042L354.844 341.102L356.569 339.161L358.334 337.239L360.02 335.299L361.746 333.358L363.432 331.417L365.118 329.496L366.765 327.555L368.452 325.634L370.099 323.693L371.707 321.771L373.354 319.831L374.962 317.909L376.609 315.968L378.216 314.047L379.785 312.106L381.393 310.185L383.001 308.263L384.57 306.322L386.138 304.401L387.707 302.479L389.275 300.539L390.844 298.617L392.413 296.695L393.981 294.774L395.511 292.852L397.079 290.912L398.648 288.99L400.178 287.069L401.707 285.147L403.276 283.226L404.805 281.304L406.335 279.383L407.903 277.461L409.433 275.54L410.962 273.618L412.531 271.697L414.06 269.775L415.59 267.854L417.119 265.932L418.688 264.01L420.217 262.089L421.786 260.167L423.315 258.265L424.884 256.344L426.413 254.422L427.982 252.501L429.551 250.579L431.119 248.677L432.688 246.755L434.257 244.834L435.825 242.912L437.394 241.01L439.002 239.088L440.57 237.167L442.178 235.265L443.786 233.343L445.394 231.441L447.002 229.519L448.61 227.617L450.257 225.695L451.904 223.793L453.551 221.872L455.198 219.969L456.845 218.048L458.531 216.145L460.218 214.224L461.904 212.322L463.63 210.419L465.355 208.517L467.081 206.596L468.806 204.693L470.571 202.791L472.336 200.889L474.139 198.986L475.943 197.084L477.787 195.182L479.591 193.279L481.473 191.377L483.355 189.475L485.238 187.573L487.159 185.67L489.12 183.768L491.081 181.866L493.081 179.983L495.081 178.08L497.12 176.197L499.199 174.295L501.316 172.412L503.473 170.529L505.669 168.626L507.865 166.743L510.14 164.86L512.454 162.977L514.807 161.094L517.238 159.23L519.709 157.347L522.258 155.483L524.846 153.619L527.513 151.755L530.297 149.892L533.121 148.028L536.101 146.183L539.16 144.338L542.337 142.513L545.709 140.687L549.239 138.862L552.964 137.056L556.925 135.269L561.2 133.52L565.866 131.772L571.043 130.081L576.925 128.447L583.827 126.929L591.671 125.719L599.514 125.066L607.357 124.95L615.2 125.373L623.044 126.315L630.887 127.756L638.73 129.696L646.495 132.079L652.77 134.327L658.142 136.46L662.927 138.555L667.358 140.611L671.476 142.647L675.397 144.665L679.123 146.663L682.692 148.662L686.104 150.66L689.437 152.639L692.653 154.599L695.751 156.578L698.81 158.538L701.79 160.498L704.731 162.458L707.594 164.418L710.418 166.378L713.163 168.319L715.908 170.279L718.575 172.22L721.241 174.16L723.869 176.101L726.457 178.061L729.006 179.983L731.555 181.923L734.065 183.864L736.575 185.805L739.045 187.745L741.516 189.667L743.948 191.608L746.379 193.529L748.81 195.47L751.242 197.391L753.634 199.313L756.026 201.254L758.418 203.175L760.771 205.097L763.164 207.018L765.516 208.959L767.909 210.881L770.262 212.802L772.615 214.724L775.007 216.645L777.36 218.547L779.752 220.469L782.105 222.39L784.497 224.312L786.85 226.233L789.242 228.136L791.674 230.057L794.066 231.96L796.497 233.881L798.89 235.803L801.36 237.705L803.792 239.607L806.262 241.529L808.772 243.431L811.243 245.333L813.792 247.255L816.302 249.157L818.89 251.059L821.478 252.962L824.066 254.864L826.733 256.766L829.4 258.649L832.106 260.552L834.812 262.454L837.596 264.337L840.42 266.239L843.282 268.123L846.184 270.025L849.126 271.908L852.145 273.791L855.204 275.674L858.341 277.538L861.557 279.421L864.812 281.304L868.185 283.168L871.675 285.032L875.244 286.896L878.93 288.74L882.734 290.585L886.695 292.43L890.852 294.274L895.205 296.081L899.793 297.906L904.656 299.693L909.832 301.461L915.48 303.229L921.637 304.939L928.578 306.591L936.421 308.148L944.264 309.358L952.108 310.204L959.951 310.723L967.794 310.876L975.637 310.723L983.481 310.242L991.324 309.435L999.167 308.34L1007.01 306.937L1014.85 305.265L1022.7 303.344L1030.5 301.173L1037.44 299.059L1043.72 297.003L1049.6 294.966L1055.13 292.949L1060.38 290.95L1065.4 288.952L1070.31 286.973L1075.05 284.993L1079.64 283.033L1084.15 281.074L1088.58 279.114L1092.93 277.173L1097.21 275.232L1101.44 273.291L1105.6 271.351L1109.76 269.41L1113.87 267.469L1117.99 265.548L1122.07 263.626L1126.11 261.705L1130.19 259.783L1134.23 257.862L1138.31 255.94L1142.39 254.019L1146.5 252.116L1150.62 250.214L1154.74 248.292L1158.93 246.39L1163.13 244.488L1167.4 242.605L1171.72 240.702L1176.11 238.819L1180.54 236.917L1185.05 235.034L1189.68 233.151L1194.39 231.287L1199.21 229.404L1204.15 227.54L1209.25 225.676L1214.54 223.832L1219.99 221.987L1225.68 220.142L1231.64 218.317L1237.96 216.511L1244.62 214.724L1251.76 212.956L1259.48 211.207L1267.33 209.632L1275.17 208.267L1283.01 207.076L1290.86 206.096L1298.7 205.327L1306.54 204.732L1314.39 204.328L1322.23 204.117L1330.07 204.098L1337.92 204.232L1345.76 204.559L1353.6 205.039L1361.45 205.673L1369.29 206.461L1377.13 207.383L1384.98 208.44L1392.82 209.612L1400.66 210.9L1408.51 212.283L1416.35 213.763L1424.19 215.319L1432.04 216.933L1439.88 218.605L1447.72 220.334L1455.57 222.102L1463.41 223.87L1471.25 225.676L1479.1 227.482L1486.94 229.289L1494.78 231.056L1502.63 232.824L1510.47 234.554L1518.31 236.245L1526.16 237.897L1534 239.473L1541.84 241.01L1549.69 242.47L1557.53 243.854L1565.37 245.18L1573.22 246.409L1581.06 247.543L1588.9 248.619L1596.74 249.58L1604.59 250.464L1612.43 251.252L1620.27 251.943L1628.12 252.558L1635.96 253.058L1643.8 253.481L1651.65 253.826L1659.49 254.057L1667.33 254.23L1675.18 254.307H1683.02L1690.86 254.23L1698.71 254.076L1706.55 253.865L1714.39 253.596L1722.24 253.269L1730.08 252.885L1737.92 252.443L1745.77 251.982L1753.61 251.463L1761.45 250.925L1769.3 250.348L1777.14 249.753L1784.98 249.157L1792.83 248.523L1800.67 247.889L1808.51 247.255L1816.36 246.621L1824.2 246.006L1832.04 245.372L1839.89 244.776L1847.73 244.18L1855.57 243.604L1863.42 243.066L1871.26 242.528L1879.1 242.028L1886.95 241.567L1894.79 241.125L1902.63 240.702L1910.48 240.337L1918.32 239.991L1926.16 239.665L1934 239.396L1941.85 239.146L1949.69 238.935L1957.53 238.743L1965.38 238.589L1973.22 238.474L1981.06 238.377L1988.91 238.32L1996.75 238.281L2004.59 238.262H2012.44L2020.28 238.301L2028.12 238.339L2035.97 238.397L2043.81 238.474L2051.65 238.57L2059.5 238.666L2067.34 238.762L2075.18 238.877L2083.03 238.992L2090.87 239.127L2098.71 239.242L2106.56 239.357L2114.4 239.473L2122.24 239.588L2130.09 239.703L2137.93 239.819L2145.77 239.915L2153.62 240.011L2161.46 240.088L2169.3 240.164L2177.15 240.241L2184.99 240.299L2192.83 240.337L2200.68 240.395L2208.52 240.433L2216.36 240.453L2224.21 240.472L2232.05 240.491L2239.89 240.51H2247.74H2255.58H2263.42H2271.26H2279.11H2286.95L2294.79 240.53H2302.64H2310.48L2318.32 240.549L2326.17 240.568L2334.01 240.587L2341.85 240.626L2349.7 240.664L2357.54 240.722L2365.38 240.76L2373.23 240.837L2381.07 240.895L2388.91 240.991L2396.76 241.068L2404.6 241.164L2412.44 241.26L2420.29 241.375L2428.13 241.49" stroke="url(#paint0_linear)" stroke-width="5" stroke-linecap="square"/>
<path d="M-94.696 0.762604L-82.9312 2.93392L-75.0879 5.70089L-69.6368 8.23733L-65.5191 10.4855L-61.9504 12.6184L-58.7739 14.7128L-55.8719 16.7688L-53.1268 18.8057L-50.5777 20.8425L-48.1463 22.8408L-45.8326 24.8584L-43.5972 26.8376L-41.4403 28.836L-39.3619 30.8151L-37.3618 32.7943L-35.401 34.7734L-33.5186 36.7334L-31.6363 38.7126L-29.8323 40.6725L-28.0676 42.6325L-26.3421 44.5924L-24.6558 46.5524L-22.9695 48.5123L-21.3616 50.4723L-19.7537 52.413L-18.1459 54.3729L-16.6164 56.3137L-15.0478 58.2736L-13.5575 60.2144L-12.0673 62.1551L-10.5771 64.115L-9.12611 66.0558L-7.67511 67.9965L-6.26332 69.9372L-4.85154 71.878L-3.47897 73.8187L-2.10639 75.7594L-0.733826 77.7001L0.638748 79.6409L1.9721 81.5816L3.30545 83.5223L4.59959 85.4631L5.89372 87.3846L7.18787 89.3253L8.482 91.2661L9.77614 93.2068L11.0311 95.1283L12.286 97.069L13.5409 99.0098L14.7958 100.931L16.0115 102.872L17.2272 104.813L18.4429 106.734L19.6586 108.675L20.8743 110.597L22.0901 112.537L23.2665 114.459L24.443 116.4L25.6195 118.321L26.796 120.262L27.9725 122.183L29.149 124.105L30.3255 126.046L31.4627 127.967L32.6 129.908L33.7765 131.829L34.9138 133.751L36.0511 135.692L37.1883 137.613L38.3256 139.535L39.4237 141.475L40.5609 143.397L41.6982 145.318L42.7963 147.24L43.9335 149.181L45.0316 151.102L46.1296 153.024L47.2669 154.945L48.365 156.886L49.463 158.807L50.5611 160.729L51.6591 162.65L52.7572 164.572L53.8552 166.493L54.9533 168.434L56.0514 170.356L57.1102 172.277L58.2083 174.199L59.3063 176.12L60.4044 178.042L61.4632 179.963L62.5613 181.885L63.6593 183.806L64.7182 185.728L65.8162 187.669L66.875 189.59L67.9731 191.512L69.032 193.433L70.13 195.355L71.1888 197.276L72.2869 199.198L73.385 201.119L74.4438 203.041L75.5418 204.962L76.6007 206.884L77.6987 208.805L78.7576 210.708L79.8556 212.629L80.9145 214.551L82.0125 216.472L83.1106 218.394L84.1694 220.315L85.2675 222.237L86.3655 224.158L87.4244 226.08L88.5224 228.001L89.6205 229.904L90.7186 231.825L91.8166 233.747L92.9147 235.668L94.0127 237.59L95.1108 239.511L96.2088 241.413L97.3069 243.335L98.4049 245.256L99.503 247.178L100.64 249.099L101.738 251.002L102.876 252.923L103.974 254.845L105.111 256.766L106.209 258.669L107.346 260.59L108.484 262.512L109.621 264.414L110.758 266.335L111.895 268.257L113.033 270.159L114.209 272.081L115.346 274.002L116.523 275.905L117.66 277.826L118.837 279.728L120.013 281.65L121.19 283.572L122.366 285.474L123.582 287.395L124.758 289.298L125.974 291.219L127.15 293.121L128.366 295.043L129.582 296.945L130.798 298.867L132.053 300.769L133.268 302.671L134.523 304.593L135.778 306.495L137.033 308.417L138.327 310.319L139.582 312.221L140.876 314.143L142.17 316.045L143.464 317.947L144.798 319.85L146.131 321.771L147.465 323.674L148.798 325.576L150.131 327.478L151.504 329.38L152.916 331.283L154.288 333.185L155.7 335.087L157.112 336.99L158.563 338.892L160.014 340.794L161.465 342.697L162.955 344.599L164.445 346.501L165.975 348.403L167.504 350.287L169.033 352.189L170.641 354.091L172.21 355.974L173.857 357.877L175.465 359.76L177.151 361.662L178.838 363.545L180.563 365.428L182.328 367.311L184.132 369.214L185.936 371.097L187.779 372.98L189.7 374.844L191.622 376.727L193.622 378.61L195.661 380.474L197.74 382.337L199.897 384.201L202.093 386.065L204.367 387.929L206.76 389.774L209.191 391.638L211.74 393.463L214.407 395.308L217.191 397.133L220.132 398.939L223.23 400.746L226.564 402.533L230.132 404.281L234.015 406.011L238.368 407.702L243.309 409.316L249.192 410.814L256.721 412.083L264.564 412.621L272.408 412.352L280.251 411.314L288.094 409.527L295.937 406.971L301.859 404.569L306.604 402.36L310.722 400.246L314.447 398.152L317.899 396.115L321.114 394.078L324.173 392.06L327.075 390.043L329.859 388.044L332.526 386.065L335.075 384.067L337.585 382.088L340.016 380.128L342.369 378.149L344.683 376.189L346.919 374.209L349.115 372.25L351.272 370.29L353.35 368.349L355.428 366.389L357.468 364.429L359.468 362.488L361.468 360.528L363.389 358.588L365.311 356.647L367.233 354.687L369.076 352.746L370.919 350.805L372.762 348.865L374.566 346.924L376.37 344.983L378.135 343.042L379.899 341.102L381.625 339.161L383.39 337.239L385.076 335.299L386.802 333.358L388.488 331.417L390.174 329.496L391.821 327.555L393.507 325.634L395.155 323.693L396.762 321.771L398.41 319.831L400.017 317.909L401.664 315.968L403.272 314.047L404.841 312.106L406.449 310.185L408.057 308.263L409.625 306.322L411.194 304.401L412.763 302.479L414.331 300.539L415.9 298.617L417.469 296.695L419.037 294.774L420.567 292.852L422.135 290.912L423.704 288.99L425.233 287.069L426.763 285.147L428.332 283.226L429.861 281.304L431.39 279.383L432.959 277.461L434.489 275.54L436.018 273.618L437.587 271.697L439.116 269.775L440.645 267.854L442.175 265.932L443.744 264.01L445.273 262.089L446.842 260.167L448.371 258.265L449.94 256.344L451.469 254.422L453.038 252.501L454.606 250.579L456.175 248.677L457.744 246.755L459.312 244.834L460.881 242.912L462.45 241.01L464.058 239.088L465.626 237.167L467.234 235.265L468.842 233.343L470.45 231.441L472.058 229.519L473.666 227.617L475.313 225.695L476.96 223.793L478.607 221.872L480.254 219.969L481.901 218.048L483.587 216.145L485.274 214.224L486.96 212.322L488.685 210.419L490.411 208.517L492.136 206.596L493.862 204.693L495.627 202.791L497.391 200.889L499.195 198.986L500.999 197.084L502.843 195.182L504.646 193.279L506.529 191.377L508.411 189.475L510.294 187.573L512.215 185.67L514.176 183.768L516.137 181.866L518.137 179.983L520.137 178.08L522.176 176.197L524.255 174.295L526.372 172.412L528.529 170.529L530.725 168.626L532.921 166.743L535.196 164.86L537.51 162.977L539.863 161.094L542.294 159.23L544.765 157.347L547.314 155.483L549.902 153.619L552.569 151.755L555.353 149.892L558.177 148.028L561.157 146.183L564.216 144.338L567.393 142.513L570.765 140.687L574.295 138.862L578.02 137.056L581.981 135.269L586.256 133.52L590.922 131.772L596.099 130.081L601.981 128.447L608.883 126.929L616.727 125.719L624.57 125.066L632.413 124.95L640.256 125.373L648.1 126.315L655.943 127.756L663.786 129.696L671.551 132.079L677.826 134.327L683.198 136.46L687.983 138.555L692.414 140.611L696.532 142.647L700.453 144.665L704.179 146.663L707.748 148.662L711.159 150.66L714.493 152.639L717.709 154.599L720.807 156.578L723.865 158.538L726.846 160.498L729.787 162.458L732.65 164.418L735.474 166.378L738.219 168.319L740.964 170.279L743.631 172.22L746.297 174.16L748.925 176.101L751.513 178.061L754.062 179.983L756.611 181.923L759.121 183.864L761.631 185.805L764.101 187.745L766.572 189.667L769.003 191.608L771.435 193.529L773.866 195.47L776.298 197.391L778.69 199.313L781.082 201.254L783.474 203.175L785.827 205.097L788.219 207.018L790.572 208.959L792.965 210.881L795.318 212.802L797.671 214.724L800.063 216.645L802.416 218.547L804.808 220.469L807.161 222.39L809.553 224.312L811.906 226.233L814.298 228.136L816.73 230.057L819.122 231.96L821.553 233.881L823.945 235.803L826.416 237.705L828.848 239.607L831.318 241.529L833.828 243.431L836.299 245.333L838.848 247.255L841.357 249.157L843.946 251.059L846.534 252.962L849.122 254.864L851.789 256.766L854.456 258.649L857.162 260.552L859.868 262.454L862.652 264.337L865.476 266.239L868.338 268.123L871.24 270.025L874.182 271.908L877.201 273.791L880.26 275.674L883.397 277.538L886.613 279.421L889.868 281.304L893.241 283.168L896.731 285.032L900.3 286.896L903.986 288.74L907.79 290.585L911.751 292.43L915.908 294.274L920.261 296.081L924.849 297.906L929.712 299.693L934.888 301.461L940.536 303.229L946.692 304.939L953.634 306.591L961.477 308.148L969.32 309.358L977.164 310.204L985.007 310.723L992.85 310.876L1000.69 310.723L1008.54 310.242L1016.38 309.435L1024.22 308.34L1032.07 306.937L1039.91 305.265L1047.75 303.344L1055.56 301.173L1062.5 299.059L1068.77 297.003L1074.66 294.966L1080.18 292.949L1085.44 290.95L1090.46 288.952L1095.36 286.973L1100.11 284.993L1104.69 283.033L1109.2 281.074L1113.64 279.114L1117.99 277.173L1122.26 275.232L1126.5 273.291L1130.66 271.351L1134.81 269.41L1138.93 267.469L1143.05 265.548L1147.13 263.626L1151.17 261.705L1155.24 259.783L1159.28 257.862L1163.36 255.94L1167.44 254.019L1171.56 252.116L1175.68 250.214L1179.79 248.292L1183.99 246.39L1188.19 244.488L1192.46 242.605L1196.77 240.702L1201.17 238.819L1205.6 236.917L1210.11 235.034L1214.74 233.151L1219.44 231.287L1224.27 229.404L1229.21 227.54L1234.3 225.676L1239.6 223.832L1245.05 221.987L1250.74 220.142L1256.7 218.317L1263.01 216.511L1269.68 214.724L1276.82 212.956L1284.54 211.207L1292.38 209.632L1300.23 208.267L1308.07 207.076L1315.91 206.096L1323.76 205.327L1331.6 204.732L1339.44 204.328L1347.29 204.117L1355.13 204.098L1362.97 204.232L1370.82 204.559L1378.66 205.039L1386.5 205.673L1394.35 206.461L1402.19 207.383L1410.03 208.44L1417.88 209.612L1425.72 210.9L1433.56 212.283L1441.41 213.763L1449.25 215.319L1457.09 216.933L1464.94 218.605L1472.78 220.334L1480.62 222.102L1488.47 223.87L1496.31 225.676L1504.15 227.482L1512 229.289L1519.84 231.056L1527.68 232.824L1535.52 234.554L1543.37 236.245L1551.21 237.897L1559.05 239.473L1566.9 241.01L1574.74 242.47L1582.58 243.854L1590.43 245.18L1598.27 246.409L1606.11 247.543L1613.96 248.619L1621.8 249.58L1629.64 250.464L1637.49 251.252L1645.33 251.943L1653.17 252.558L1661.02 253.058L1668.86 253.481L1676.7 253.826L1684.55 254.057L1692.39 254.23L1700.23 254.307H1708.08L1715.92 254.23L1723.76 254.076L1731.61 253.865L1739.45 253.596L1747.29 253.269L1755.14 252.885L1762.98 252.443L1770.82 251.982L1778.67 251.463L1786.51 250.925L1794.35 250.348L1802.2 249.753L1810.04 249.157L1817.88 248.523L1825.73 247.889L1833.57 247.255L1841.41 246.621L1849.26 246.006L1857.1 245.372L1864.94 244.776L1872.78 244.18L1880.63 243.604L1888.47 243.066L1896.31 242.528L1904.16 242.028L1912 241.567L1919.84 241.125L1927.69 240.702L1935.53 240.337L1943.37 239.991L1951.22 239.665L1959.06 239.396L1966.9 239.146L1974.75 238.935L1982.59 238.743L1990.43 238.589L1998.28 238.474L2006.12 238.377L2013.96 238.32L2021.81 238.281L2029.65 238.262H2037.49L2045.34 238.301L2053.18 238.339L2061.02 238.397L2068.87 238.474L2076.71 238.57L2084.55 238.666L2092.4 238.762L2100.24 238.877L2108.08 238.992L2115.93 239.127L2123.77 239.242L2131.61 239.357L2139.46 239.473L2147.3 239.588L2155.14 239.703L2162.99 239.819L2170.83 239.915L2178.67 240.011L2186.52 240.088L2194.36 240.164L2202.2 240.241L2210.05 240.299L2217.89 240.337L2225.73 240.395L2233.57 240.433L2241.42 240.453L2249.26 240.472L2257.1 240.491L2264.95 240.51H2272.79H2280.63H2288.48H2296.32H2304.16H2312.01L2319.85 240.53H2327.69H2335.54L2343.38 240.549L2351.22 240.568L2359.07 240.587L2366.91 240.626L2374.75 240.664L2382.6 240.722L2390.44 240.76L2398.28 240.837L2406.13 240.895L2413.97 240.991L2421.81 241.068L2429.66 241.164L2437.5 241.26L2445.34 241.375L2453.19 241.49" stroke="url(#paint1_linear)" stroke-width="4" stroke-linecap="square"/>
<path d="M-69.6399 0.762604L-57.875 2.93392L-50.0317 5.70089L-44.5807 8.23733L-40.463 10.4855L-36.8943 12.6184L-33.7178 14.7128L-30.8158 16.7688L-28.0706 18.8057L-25.5216 20.8425L-23.0902 22.8408L-20.7764 24.8584L-18.5411 26.8376L-16.3842 28.836L-14.3057 30.8151L-12.3057 32.7943L-10.3449 34.7734L-8.46249 36.7334L-6.5801 38.7126L-4.77616 40.6725L-3.01142 42.6325L-1.28591 44.5924L0.400395 46.5524L2.0867 48.5123L3.69456 50.4723L5.30243 52.413L6.9103 54.3729L8.43973 56.3137L10.0084 58.2736L11.4986 60.2144L12.9888 62.1551L14.479 64.115L15.93 66.0558L17.381 67.9965L18.7928 69.9372L20.2046 71.878L21.5772 73.8187L22.9498 75.7594L24.3223 77.7001L25.6949 79.6409L27.0283 81.5816L28.3616 83.5223L29.6557 85.4631L30.9499 87.3846L32.244 89.3253L33.5382 91.2661L34.8323 93.2068L36.0872 95.1283L37.3421 97.069L38.5971 99.0098L39.852 100.931L41.0677 102.872L42.2834 104.813L43.4991 106.734L44.7148 108.675L45.9305 110.597L47.1462 112.537L48.3227 114.459L49.4992 116.4L50.6757 118.321L51.8522 120.262L53.0286 122.183L54.2051 124.105L55.3816 126.046L56.5189 127.967L57.6562 129.908L58.8327 131.829L59.9699 133.751L61.1072 135.692L62.2445 137.613L63.3817 139.535L64.4798 141.475L65.6171 143.397L66.7543 145.318L67.8524 147.24L68.9897 149.181L70.0877 151.102L71.1858 153.024L72.3231 154.945L73.4211 156.886L74.5192 158.807L75.6172 160.729L76.7153 162.65L77.8133 164.572L78.9114 166.493L80.0095 168.434L81.1075 170.356L82.1664 172.277L83.2644 174.199L84.3625 176.12L85.4605 178.042L86.5194 179.963L87.6174 181.885L88.7155 183.806L89.7743 185.728L90.8724 187.669L91.9312 189.59L93.0293 191.512L94.0881 193.433L95.1862 195.355L96.245 197.276L97.343 199.198L98.4411 201.119L99.5 203.041L100.598 204.962L101.657 206.884L102.755 208.805L103.814 210.708L104.912 212.629L105.971 214.551L107.069 216.472L108.167 218.394L109.226 220.315L110.324 222.237L111.422 224.158L112.481 226.08L113.579 228.001L114.677 229.904L115.775 231.825L116.873 233.747L117.971 235.668L119.069 237.59L120.167 239.511L121.265 241.413L122.363 243.335L123.461 245.256L124.559 247.178L125.696 249.099L126.794 251.002L127.932 252.923L129.03 254.845L130.167 256.766L131.265 258.669L132.402 260.59L133.54 262.512L134.677 264.414L135.814 266.335L136.951 268.257L138.089 270.159L139.265 272.081L140.403 274.002L141.579 275.905L142.716 277.826L143.893 279.728L145.069 281.65L146.246 283.572L147.422 285.474L148.638 287.395L149.814 289.298L151.03 291.219L152.207 293.121L153.422 295.043L154.638 296.945L155.854 298.867L157.109 300.769L158.324 302.671L159.579 304.593L160.834 306.495L162.089 308.417L163.383 310.319L164.638 312.221L165.932 314.143L167.226 316.045L168.521 317.947L169.854 319.85L171.187 321.771L172.521 323.674L173.854 325.576L175.187 327.478L176.56 329.38L177.972 331.283L179.344 333.185L180.756 335.087L182.168 336.99L183.619 338.892L185.07 340.794L186.521 342.697L188.011 344.599L189.501 346.501L191.031 348.403L192.56 350.287L194.09 352.189L195.697 354.091L197.266 355.974L198.913 357.877L200.521 359.76L202.207 361.662L203.894 363.545L205.619 365.428L207.384 367.311L209.188 369.214L210.992 371.097L212.835 372.98L214.757 374.844L216.678 376.727L218.678 378.61L220.717 380.474L222.796 382.337L224.953 384.201L227.149 386.065L229.424 387.929L231.816 389.774L234.247 391.638L236.796 393.463L239.463 395.308L242.247 397.133L245.188 398.939L248.287 400.746L251.62 402.533L255.189 404.281L259.071 406.011L263.424 407.702L268.365 409.316L274.248 410.814L281.777 412.083L289.621 412.621L297.464 412.352L305.307 411.314L313.15 409.527L320.994 406.971L326.915 404.569L331.66 402.36L335.778 400.246L339.504 398.152L342.955 396.115L346.17 394.078L349.229 392.06L352.131 390.043L354.916 388.044L357.582 386.065L360.131 384.067L362.641 382.088L365.073 380.128L367.426 378.149L369.739 376.189L371.975 374.209L374.171 372.25L376.328 370.29L378.406 368.349L380.485 366.389L382.524 364.429L384.524 362.488L386.524 360.528L388.446 358.588L390.367 356.647L392.289 354.687L394.132 352.746L395.975 350.805L397.818 348.865L399.622 346.924L401.426 344.983L403.191 343.042L404.956 341.102L406.681 339.161L408.446 337.239L410.132 335.299L411.858 333.358L413.544 331.417L415.23 329.496L416.877 327.555L418.564 325.634L420.211 323.693L421.819 321.771L423.466 319.831L425.074 317.909L426.721 315.968L428.328 314.047L429.897 312.106L431.505 310.185L433.113 308.263L434.682 306.322L436.25 304.401L437.819 302.479L439.387 300.539L440.956 298.617L442.525 296.695L444.093 294.774L445.623 292.852L447.192 290.912L448.76 288.99L450.29 287.069L451.819 285.147L453.388 283.226L454.917 281.304L456.447 279.383L458.015 277.461L459.545 275.54L461.074 273.618L462.643 271.697L464.172 269.775L465.702 267.854L467.231 265.932L468.8 264.01L470.329 262.089L471.898 260.167L473.427 258.265L474.996 256.344L476.525 254.422L478.094 252.501L479.663 250.579L481.231 248.677L482.8 246.755L484.369 244.834L485.937 242.912L487.506 241.01L489.114 239.088L490.682 237.167L492.29 235.265L493.898 233.343L495.506 231.441L497.114 229.519L498.722 227.617L500.369 225.695L502.016 223.793L503.663 221.872L505.31 219.969L506.957 218.048L508.643 216.145L510.33 214.224L512.016 212.322L513.742 210.419L515.467 208.517L517.193 206.596L518.918 204.693L520.683 202.791L522.448 200.889L524.252 198.986L526.055 197.084L527.899 195.182L529.703 193.279L531.585 191.377L533.467 189.475L535.35 187.573L537.271 185.67L539.232 183.768L541.193 181.866L543.193 179.983L545.193 178.08L547.232 176.197L549.311 174.295L551.428 172.412L553.585 170.529L555.781 168.626L557.978 166.743L560.252 164.86L562.566 162.977L564.919 161.094L567.35 159.23L569.821 157.347L572.37 155.483L574.958 153.619L577.625 151.755L580.409 149.892L583.233 148.028L586.213 146.183L589.272 144.338L592.449 142.513L595.821 140.687L599.351 138.862L603.076 137.056L607.037 135.269L611.312 133.52L615.978 131.772L621.155 130.081L627.037 128.447L633.939 126.929L641.783 125.719L649.626 125.066L657.469 124.95L665.313 125.373L673.156 126.315L680.999 127.756L688.842 129.696L696.607 132.079L702.882 134.327L708.254 136.46L713.039 138.555L717.47 140.611L721.588 142.647L725.51 144.665L729.235 146.663L732.804 148.662L736.216 150.66L739.549 152.639L742.765 154.599L745.863 156.578L748.922 158.538L751.902 160.498L754.843 162.458L757.706 164.418L760.53 166.378L763.275 168.319L766.02 170.279L768.687 172.22L771.353 174.16L773.981 176.101L776.569 178.061L779.118 179.983L781.667 181.923L784.177 183.864L786.687 185.805L789.158 187.745L791.628 189.667L794.06 191.608L796.491 193.529L798.922 195.47L801.354 197.391L803.746 199.313L806.138 201.254L808.53 203.175L810.883 205.097L813.276 207.018L815.629 208.959L818.021 210.881L820.374 212.802L822.727 214.724L825.119 216.645L827.472 218.547L829.864 220.469L832.217 222.39L834.609 224.312L836.962 226.233L839.354 228.136L841.786 230.057L844.178 231.96L846.609 233.881L849.002 235.803L851.472 237.705L853.904 239.607L856.374 241.529L858.884 243.431L861.355 245.333L863.904 247.255L866.414 249.157L869.002 251.059L871.59 252.962L874.178 254.864L876.845 256.766L879.512 258.649L882.218 260.552L884.924 262.454L887.708 264.337L890.532 266.239L893.394 268.123L896.296 270.025L899.238 271.908L902.257 273.791L905.316 275.674L908.453 277.538L911.669 279.421L914.924 281.304L918.297 283.168L921.787 285.032L925.356 286.896L929.042 288.74L932.846 290.585L936.807 292.43L940.964 294.274L945.317 296.081L949.905 297.906L954.768 299.693L959.944 301.461L965.592 303.229L971.749 304.939L978.69 306.591L986.533 308.148L994.376 309.358L1002.22 310.204L1010.06 310.723L1017.91 310.876L1025.75 310.723L1033.59 310.242L1041.44 309.435L1049.28 308.34L1057.12 306.937L1064.97 305.265L1072.81 303.344L1080.61 301.173L1087.55 299.059L1093.83 297.003L1099.71 294.966L1105.24 292.949L1110.5 290.95L1115.52 288.952L1120.42 286.973L1125.16 284.993L1129.75 283.033L1134.26 281.074L1138.69 279.114L1143.05 277.173L1147.32 275.232L1151.56 273.291L1155.71 271.351L1159.87 269.41L1163.99 267.469L1168.1 265.548L1172.18 263.626L1176.22 261.705L1180.3 259.783L1184.34 257.862L1188.42 255.94L1192.5 254.019L1196.61 252.116L1200.73 250.214L1204.85 248.292L1209.05 246.39L1213.24 244.488L1217.52 242.605L1221.83 240.702L1226.22 238.819L1230.65 236.917L1235.16 235.034L1239.79 233.151L1244.5 231.287L1249.32 229.404L1254.26 227.54L1259.36 225.676L1264.66 223.832L1270.11 221.987L1275.79 220.142L1281.75 218.317L1288.07 216.511L1294.73 214.724L1301.87 212.956L1309.6 211.207L1317.44 209.632L1325.28 208.267L1333.13 207.076L1340.97 206.096L1348.81 205.327L1356.66 204.732L1364.5 204.328L1372.34 204.117L1380.19 204.098L1388.03 204.232L1395.87 204.559L1403.72 205.039L1411.56 205.673L1419.4 206.461L1427.25 207.383L1435.09 208.44L1442.93 209.612L1450.78 210.9L1458.62 212.283L1466.46 213.763L1474.31 215.319L1482.15 216.933L1489.99 218.605L1497.84 220.334L1505.68 222.102L1513.52 223.87L1521.36 225.676L1529.21 227.482L1537.05 229.289L1544.89 231.056L1552.74 232.824L1560.58 234.554L1568.42 236.245L1576.27 237.897L1584.11 239.473L1591.95 241.01L1599.8 242.47L1607.64 243.854L1615.48 245.18L1623.33 246.409L1631.17 247.543L1639.01 248.619L1646.86 249.58L1654.7 250.464L1662.54 251.252L1670.39 251.943L1678.23 252.558L1686.07 253.058L1693.92 253.481L1701.76 253.826L1709.6 254.057L1717.45 254.23L1725.29 254.307H1733.13L1740.98 254.23L1748.82 254.076L1756.66 253.865L1764.51 253.596L1772.35 253.269L1780.19 252.885L1788.04 252.443L1795.88 251.982L1803.72 251.463L1811.57 250.925L1819.41 250.348L1827.25 249.753L1835.1 249.157L1842.94 248.523L1850.78 247.889L1858.62 247.255L1866.47 246.621L1874.31 246.006L1882.15 245.372L1890 244.776L1897.84 244.18L1905.68 243.604L1913.53 243.066L1921.37 242.528L1929.21 242.028L1937.06 241.567L1944.9 241.125L1952.74 240.702L1960.59 240.337L1968.43 239.991L1976.27 239.665L1984.12 239.396L1991.96 239.146L1999.8 238.935L2007.65 238.743L2015.49 238.589L2023.33 238.474L2031.18 238.377L2039.02 238.32L2046.86 238.281L2054.71 238.262H2062.55L2070.39 238.301L2078.24 238.339L2086.08 238.397L2093.92 238.474L2101.77 238.57L2109.61 238.666L2117.45 238.762L2125.3 238.877L2133.14 238.992L2140.98 239.127L2148.83 239.242L2156.67 239.357L2164.51 239.473L2172.36 239.588L2180.2 239.703L2188.04 239.819L2195.88 239.915L2203.73 240.011L2211.57 240.088L2219.41 240.164L2227.26 240.241L2235.1 240.299L2242.94 240.337L2250.79 240.395L2258.63 240.433L2266.47 240.453L2274.32 240.472L2282.16 240.491L2290 240.51H2297.85H2305.69H2313.53H2321.38H2329.22H2337.06L2344.91 240.53H2352.75H2360.59L2368.44 240.549L2376.28 240.568L2384.12 240.587L2391.97 240.626L2399.81 240.664L2407.65 240.722L2415.5 240.76L2423.34 240.837L2431.18 240.895L2439.03 240.991L2446.87 241.068L2454.71 241.164L2462.56 241.26L2470.4 241.375L2478.24 241.49" stroke="url(#paint2_linear)" stroke-width="3" stroke-linecap="square"/>
<path d="M-44.584 0.762604L-32.8191 2.93393L-24.9758 5.7009L-19.5248 8.23734L-15.4071 10.4855L-11.8384 12.6184L-8.66187 14.7128L-5.75986 16.7689L-3.01472 18.8057L-0.46566 20.8425L1.96575 22.8409L4.27951 24.8584L6.51484 26.8376L8.67173 28.836L10.7502 30.8151L12.7502 32.7943L14.711 34.7735L16.5934 36.7334L18.4758 38.7126L20.2798 40.6725L22.0445 42.6325L23.77 44.5924L25.4563 46.5524L27.1426 48.5123L28.7505 50.4723L30.3583 52.413L31.9662 54.373L33.4956 56.3137L35.0643 58.2736L36.5545 60.2144L38.0447 62.1551L39.535 64.115L40.986 66.0558L42.437 67.9965L43.8487 69.9372L45.2605 71.878L46.6331 73.8187L48.0057 75.7594L49.3782 77.7001L50.7508 79.6409L52.0842 81.5816L53.4175 83.5223L54.7117 85.4631L56.0058 87.3846L57.2999 89.3253L58.5941 91.2661L59.8882 93.2068L61.1431 95.1283L62.398 97.0691L63.653 99.0098L64.9079 100.931L66.1236 102.872L67.3393 104.813L68.555 106.734L69.7707 108.675L70.9864 110.597L72.2021 112.537L73.3786 114.459L74.5551 116.4L75.7316 118.321L76.9081 120.262L78.0846 122.183L79.2611 124.105L80.4375 126.046L81.5748 127.967L82.7121 129.908L83.8886 131.829L85.0258 133.751L86.1631 135.692L87.3004 137.613L88.4377 139.535L89.5357 141.475L90.673 143.397L91.8103 145.318L92.9083 147.24L94.0456 149.181L95.1436 151.102L96.2417 153.024L97.379 154.945L98.477 156.886L99.5751 158.807L100.673 160.729L101.771 162.65L102.869 164.572L103.967 166.493L105.065 168.434L106.163 170.356L107.222 172.277L108.32 174.199L109.418 176.12L110.516 178.042L111.575 179.963L112.673 181.885L113.771 183.806L114.83 185.728L115.928 187.669L116.987 189.59L118.085 191.512L119.144 193.433L120.242 195.355L121.301 197.276L122.399 199.198L123.497 201.119L124.556 203.041L125.654 204.962L126.713 206.884L127.811 208.805L128.87 210.708L129.968 212.629L131.027 214.551L132.125 216.472L133.223 218.394L134.282 220.315L135.38 222.237L136.478 224.158L137.536 226.08L138.635 228.001L139.733 229.904L140.831 231.825L141.929 233.747L143.027 235.668L144.125 237.59L145.223 239.511L146.321 241.413L147.419 243.335L148.517 245.256L149.615 247.178L150.752 249.099L151.85 251.002L152.988 252.923L154.086 254.845L155.223 256.766L156.321 258.669L157.458 260.59L158.596 262.512L159.733 264.414L160.87 266.335L162.007 268.257L163.145 270.159L164.321 272.081L165.458 274.002L166.635 275.905L167.772 277.826L168.949 279.728L170.125 281.65L171.302 283.572L172.478 285.474L173.694 287.395L174.87 289.298L176.086 291.219L177.263 293.121L178.478 295.043L179.694 296.945L180.91 298.867L182.165 300.769L183.38 302.671L184.635 304.593L185.89 306.495L187.145 308.417L188.439 310.319L189.694 312.221L190.988 314.143L192.282 316.045L193.577 317.947L194.91 319.85L196.243 321.771L197.577 323.674L198.91 325.576L200.243 327.478L201.616 329.38L203.028 331.283L204.4 333.185L205.812 335.087L207.224 336.99L208.675 338.892L210.126 340.794L211.577 342.697L213.067 344.599L214.557 346.501L216.087 348.404L217.616 350.287L219.146 352.189L220.753 354.091L222.322 355.974L223.969 357.877L225.577 359.76L227.263 361.662L228.95 363.545L230.675 365.428L232.44 367.311L234.244 369.214L236.048 371.097L237.891 372.98L239.813 374.844L241.734 376.727L243.734 378.61L245.773 380.474L247.852 382.337L250.009 384.201L252.205 386.065L254.479 387.929L256.872 389.774L259.303 391.638L261.852 393.463L264.519 395.308L267.303 397.133L270.244 398.939L273.342 400.746L276.676 402.533L280.245 404.281L284.127 406.011L288.48 407.702L293.421 409.316L299.304 410.814L306.833 412.083L314.676 412.621L322.52 412.352L330.363 411.314L338.206 409.527L346.049 406.971L351.971 404.569L356.716 402.36L360.834 400.246L364.56 398.152L368.011 396.115L371.226 394.078L374.285 392.06L377.187 390.043L379.972 388.044L382.638 386.065L385.187 384.067L387.697 382.088L390.129 380.128L392.482 378.149L394.795 376.189L397.031 374.209L399.227 372.25L401.384 370.29L403.462 368.349L405.541 366.389L407.58 364.429L409.58 362.488L411.58 360.528L413.501 358.588L415.423 356.647L417.345 354.687L419.188 352.746L421.031 350.805L422.874 348.865L424.678 346.924L426.482 344.983L428.247 343.042L430.012 341.102L431.737 339.161L433.502 337.239L435.188 335.299L436.914 333.358L438.6 331.417L440.286 329.496L441.933 327.555L443.62 325.634L445.267 323.693L446.875 321.771L448.522 319.831L450.129 317.909L451.777 315.968L453.384 314.047L454.953 312.106L456.561 310.185L458.169 308.263L459.737 306.322L461.306 304.401L462.875 302.479L464.443 300.539L466.012 298.617L467.581 296.695L469.149 294.774L470.679 292.852L472.247 290.912L473.816 288.99L475.346 287.069L476.875 285.147L478.444 283.226L479.973 281.304L481.503 279.383L483.071 277.461L484.601 275.54L486.13 273.618L487.699 271.697L489.228 269.775L490.758 267.854L492.287 265.932L493.856 264.01L495.385 262.089L496.954 260.167L498.483 258.265L500.052 256.344L501.581 254.422L503.15 252.501L504.719 250.579L506.287 248.677L507.856 246.755L509.424 244.834L510.993 242.912L512.562 241.01L514.17 239.088L515.738 237.167L517.346 235.265L518.954 233.343L520.562 231.441L522.17 229.519L523.778 227.617L525.425 225.695L527.072 223.793L528.719 221.872L530.366 219.969L532.013 218.048L533.699 216.145L535.386 214.224L537.072 212.322L538.797 210.419L540.523 208.517L542.249 206.596L543.974 204.693L545.739 202.791L547.503 200.889L549.307 198.986L551.111 197.084L552.955 195.182L554.759 193.279L556.641 191.377L558.523 189.475L560.406 187.573L562.327 185.67L564.288 183.768L566.249 181.866L568.249 179.983L570.249 178.08L572.288 176.197L574.367 174.295L576.484 172.412L578.641 170.529L580.837 168.626L583.033 166.743L585.308 164.86L587.622 162.977L589.975 161.094L592.406 159.23L594.877 157.347L597.426 155.483L600.014 153.619L602.681 151.755L605.465 149.892L608.289 148.028L611.269 146.183L614.328 144.338L617.505 142.513L620.877 140.688L624.407 138.862L628.132 137.056L632.093 135.269L636.368 133.52L641.034 131.772L646.211 130.081L652.093 128.447L658.995 126.929L666.839 125.719L674.682 125.066L682.525 124.95L690.368 125.373L698.212 126.315L706.055 127.756L713.898 129.696L721.663 132.079L727.938 134.327L733.31 136.46L738.095 138.555L742.526 140.611L746.644 142.647L750.565 144.665L754.291 146.663L757.86 148.662L761.271 150.66L764.605 152.639L767.821 154.599L770.919 156.578L773.978 158.538L776.958 160.498L779.899 162.458L782.762 164.418L785.586 166.378L788.331 168.319L791.076 170.279L793.743 172.22L796.409 174.16L799.037 176.101L801.625 178.061L804.174 179.983L806.723 181.923L809.233 183.864L811.743 185.805L814.214 187.745L816.684 189.667L819.116 191.608L821.547 193.529L823.978 195.47L826.41 197.391L828.802 199.313L831.194 201.254L833.586 203.175L835.939 205.097L838.332 207.018L840.684 208.959L843.077 210.881L845.43 212.802L847.783 214.724L850.175 216.645L852.528 218.547L854.92 220.469L857.273 222.39L859.665 224.312L862.018 226.233L864.41 228.136L866.842 230.057L869.234 231.96L871.665 233.881L874.058 235.803L876.528 237.705L878.96 239.607L881.43 241.529L883.94 243.431L886.411 245.333L888.96 247.255L891.47 249.157L894.058 251.059L896.646 252.962L899.234 254.864L901.901 256.766L904.568 258.649L907.274 260.552L909.98 262.454L912.764 264.337L915.588 266.239L918.45 268.123L921.352 270.025L924.294 271.908L927.313 273.791L930.372 275.674L933.509 277.538L936.725 279.421L939.98 281.304L943.353 283.168L946.843 285.032L950.412 286.896L954.098 288.74L957.902 290.585L961.863 292.43L966.02 294.274L970.373 296.081L974.961 297.906L979.824 299.693L985 301.461L990.648 303.229L996.805 304.939L1003.75 306.591L1011.59 308.148L1019.43 309.358L1027.28 310.204L1035.12 310.723L1042.96 310.876L1050.81 310.723L1058.65 310.242L1066.49 309.435L1074.34 308.34L1082.18 306.937L1090.02 305.265L1097.86 303.344L1105.67 301.173L1112.61 299.059L1118.88 297.003L1124.77 294.966L1130.3 292.949L1135.55 290.95L1140.57 288.952L1145.47 286.973L1150.22 284.993L1154.81 283.033L1159.32 281.074L1163.75 279.114L1168.1 277.173L1172.38 275.232L1176.61 273.291L1180.77 271.351L1184.93 269.41L1189.04 267.469L1193.16 265.548L1197.24 263.626L1201.28 261.705L1205.36 259.783L1209.4 257.862L1213.47 255.94L1217.55 254.019L1221.67 252.116L1225.79 250.214L1229.91 248.292L1234.1 246.39L1238.3 244.488L1242.57 242.605L1246.89 240.702L1251.28 238.819L1255.71 236.917L1260.22 235.034L1264.85 233.151L1269.55 231.287L1274.38 229.404L1279.32 227.54L1284.42 225.676L1289.71 223.832L1295.16 221.987L1300.85 220.142L1306.81 218.317L1313.12 216.511L1319.79 214.724L1326.93 212.956L1334.65 211.207L1342.5 209.632L1350.34 208.267L1358.18 207.076L1366.03 206.096L1373.87 205.327L1381.71 204.732L1389.56 204.328L1397.4 204.117L1405.24 204.098L1413.09 204.232L1420.93 204.559L1428.77 205.039L1436.62 205.673L1444.46 206.461L1452.3 207.383L1460.14 208.44L1467.99 209.612L1475.83 210.9L1483.67 212.283L1491.52 213.763L1499.36 215.319L1507.2 216.933L1515.05 218.605L1522.89 220.334L1530.73 222.102L1538.58 223.87L1546.42 225.676L1554.26 227.482L1562.11 229.289L1569.95 231.056L1577.79 232.824L1585.64 234.554L1593.48 236.245L1601.32 237.897L1609.17 239.473L1617.01 241.01L1624.85 242.47L1632.7 243.854L1640.54 245.18L1648.38 246.409L1656.23 247.543L1664.07 248.619L1671.91 249.58L1679.76 250.464L1687.6 251.252L1695.44 251.943L1703.29 252.558L1711.13 253.058L1718.97 253.481L1726.82 253.826L1734.66 254.057L1742.5 254.23L1750.35 254.307H1758.19L1766.03 254.23L1773.88 254.076L1781.72 253.865L1789.56 253.596L1797.41 253.269L1805.25 252.885L1813.09 252.443L1820.93 251.982L1828.78 251.463L1836.62 250.925L1844.46 250.348L1852.31 249.753L1860.15 249.157L1867.99 248.523L1875.84 247.889L1883.68 247.255L1891.52 246.621L1899.37 246.006L1907.21 245.372L1915.05 244.776L1922.9 244.18L1930.74 243.604L1938.58 243.066L1946.43 242.528L1954.27 242.028L1962.11 241.567L1969.96 241.125L1977.8 240.702L1985.64 240.337L1993.49 239.992L2001.33 239.665L2009.17 239.396L2017.02 239.146L2024.86 238.935L2032.7 238.743L2040.55 238.589L2048.39 238.473L2056.23 238.377L2064.08 238.32L2071.92 238.281L2079.76 238.262H2087.61L2095.45 238.301L2103.29 238.339L2111.14 238.397L2118.98 238.473L2126.82 238.57L2134.67 238.666L2142.51 238.762L2150.35 238.877L2158.19 238.992L2166.04 239.127L2173.88 239.242L2181.72 239.357L2189.57 239.473L2197.41 239.588L2205.25 239.703L2213.1 239.819L2220.94 239.915L2228.78 240.011L2236.63 240.088L2244.47 240.164L2252.31 240.241L2260.16 240.299L2268 240.337L2275.84 240.395L2283.69 240.433L2291.53 240.453L2299.37 240.472L2307.22 240.491L2315.06 240.51H2322.9H2330.75H2338.59H2346.43H2354.28H2362.12L2369.96 240.53H2377.81H2385.65L2393.49 240.549L2401.34 240.568L2409.18 240.587L2417.02 240.626L2424.87 240.664L2432.71 240.722L2440.55 240.76L2448.4 240.837L2456.24 240.895L2464.08 240.991L2471.93 241.068L2479.77 241.164L2487.61 241.26L2495.46 241.375L2503.3 241.49" stroke="url(#paint3_linear)" stroke-width="2" stroke-linecap="square"/>
<path d="M-19.5281 0.762604L-7.76319 2.93392L0.0800672 5.70089L5.53113 8.23733L9.64884 10.4855L13.2175 12.6184L16.394 14.7128L19.296 16.7688L22.0412 18.8057L24.5902 20.8425L27.0217 22.8408L29.3354 24.8584L31.5707 26.8376L33.7276 28.836L35.8061 30.8151L37.8061 32.7943L39.7669 34.7734L41.6493 36.7334L43.5317 38.7126L45.3357 40.6725L47.1004 42.6325L48.8259 44.5924L50.5122 46.5524L52.1985 48.5123L53.8064 50.4723L55.4142 52.413L57.0221 54.3729L58.5515 56.3137L60.1202 58.2736L61.6104 60.2144L63.1006 62.1551L64.5909 64.115L66.0419 66.0558L67.4929 67.9965L68.9046 69.9372L70.3164 71.878L71.689 73.8187L73.0616 75.7594L74.4341 77.7001L75.8067 79.6409L77.1401 81.5816L78.4734 83.5223L79.7676 85.4631L81.0617 87.3846L82.3558 89.3253L83.65 91.2661L84.9441 93.2068L86.199 95.1283L87.4539 97.069L88.7089 99.0098L89.9638 100.931L91.1795 102.872L92.3952 104.813L93.6109 106.734L94.8266 108.675L96.0423 110.597L97.258 112.537L98.4345 114.459L99.611 116.4L100.787 118.321L101.964 120.262L103.14 122.183L104.317 124.105L105.493 126.046L106.631 127.967L107.768 129.908L108.944 131.829L110.082 133.751L111.219 135.692L112.356 137.613L113.494 139.535L114.592 141.475L115.729 143.397L116.866 145.318L117.964 147.24L119.101 149.181L120.2 151.102L121.298 153.024L122.435 154.945L123.533 156.886L124.631 158.807L125.729 160.729L126.827 162.65L127.925 164.572L129.023 166.493L130.121 168.434L131.219 170.356L132.278 172.277L133.376 174.199L134.474 176.12L135.572 178.042L136.631 179.963L137.729 181.885L138.827 183.806L139.886 185.728L140.984 187.669L142.043 189.59L143.141 191.512L144.2 193.433L145.298 195.355L146.357 197.276L147.455 199.198L148.553 201.119L149.612 203.041L150.71 204.962L151.769 206.884L152.867 208.805L153.926 210.708L155.024 212.629L156.082 214.551L157.181 216.472L158.279 218.394L159.337 220.315L160.435 222.237L161.534 224.158L162.592 226.08L163.69 228.001L164.788 229.904L165.887 231.825L166.985 233.747L168.083 235.668L169.181 237.59L170.279 239.511L171.377 241.413L172.475 243.335L173.573 245.256L174.671 247.178L175.808 249.099L176.906 251.002L178.044 252.923L179.142 254.845L180.279 256.766L181.377 258.669L182.514 260.59L183.651 262.512L184.789 264.414L185.926 266.335L187.063 268.257L188.201 270.159L189.377 272.081L190.514 274.002L191.691 275.905L192.828 277.826L194.005 279.728L195.181 281.65L196.358 283.572L197.534 285.474L198.75 287.395L199.926 289.298L201.142 291.219L202.318 293.121L203.534 295.043L204.75 296.945L205.966 298.867L207.22 300.769L208.436 302.671L209.691 304.593L210.946 306.495L212.201 308.417L213.495 310.319L214.75 312.221L216.044 314.143L217.338 316.045L218.632 317.947L219.966 319.85L221.299 321.771L222.632 323.674L223.966 325.576L225.299 327.478L226.672 329.38L228.084 331.283L229.456 333.185L230.868 335.087L232.28 336.99L233.731 338.892L235.182 340.794L236.633 342.697L238.123 344.599L239.613 346.501L241.143 348.403L242.672 350.287L244.201 352.189L245.809 354.091L247.378 355.974L249.025 357.877L250.633 359.76L252.319 361.662L254.006 363.545L255.731 365.428L257.496 367.311L259.3 369.214L261.104 371.097L262.947 372.98L264.868 374.844L266.79 376.727L268.79 378.61L270.829 380.474L272.908 382.337L275.065 384.201L277.261 386.065L279.535 387.929L281.928 389.774L284.359 391.638L286.908 393.463L289.575 395.308L292.359 397.133L295.3 398.939L298.398 400.746L301.732 402.533L305.3 404.281L309.183 406.011L313.536 407.702L318.477 409.316L324.36 410.814L331.889 412.083L339.732 412.621L347.576 412.352L355.419 411.314L363.262 409.527L371.105 406.971L377.027 404.569L381.772 402.36L385.89 400.246L389.615 398.152L393.066 396.115L396.282 394.078L399.341 392.06L402.243 390.043L405.027 388.044L407.694 386.065L410.243 384.067L412.753 382.088L415.184 380.128L417.537 378.149L419.851 376.189L422.087 374.209L424.283 372.25L426.44 370.29L428.518 368.349L430.596 366.389L432.636 364.429L434.636 362.488L436.636 360.528L438.557 358.588L440.479 356.647L442.401 354.687L444.244 352.746L446.087 350.805L447.93 348.865L449.734 346.924L451.538 344.983L453.303 343.042L455.067 341.102L456.793 339.161L458.558 337.239L460.244 335.299L461.969 333.358L463.656 331.417L465.342 329.496L466.989 327.555L468.675 325.634L470.323 323.693L471.93 321.771L473.578 319.831L475.185 317.909L476.832 315.968L478.44 314.047L480.009 312.106L481.617 310.185L483.225 308.263L484.793 306.322L486.362 304.401L487.931 302.479L489.499 300.539L491.068 298.617L492.637 296.695L494.205 294.774L495.735 292.852L497.303 290.912L498.872 288.99L500.401 287.069L501.931 285.147L503.5 283.226L505.029 281.304L506.558 279.383L508.127 277.461L509.656 275.54L511.186 273.618L512.755 271.697L514.284 269.775L515.813 267.854L517.343 265.932L518.912 264.01L520.441 262.089L522.01 260.167L523.539 258.265L525.108 256.344L526.637 254.422L528.206 252.501L529.774 250.579L531.343 248.677L532.912 246.755L534.48 244.834L536.049 242.912L537.618 241.01L539.226 239.088L540.794 237.167L542.402 235.265L544.01 233.343L545.618 231.441L547.226 229.519L548.834 227.617L550.481 225.695L552.128 223.793L553.775 221.872L555.422 219.969L557.069 218.048L558.755 216.145L560.442 214.224L562.128 212.322L563.853 210.419L565.579 208.517L567.304 206.596L569.03 204.693L570.795 202.791L572.559 200.889L574.363 198.986L576.167 197.084L578.01 195.182L579.814 193.279L581.697 191.377L583.579 189.475L585.462 187.573L587.383 185.67L589.344 183.768L591.305 181.866L593.305 179.983L595.305 178.08L597.344 176.197L599.423 174.295L601.54 172.412L603.697 170.529L605.893 168.626L608.089 166.743L610.364 164.86L612.678 162.977L615.031 161.094L617.462 159.23L619.933 157.347L622.482 155.483L625.07 153.619L627.737 151.755L630.521 149.892L633.345 148.028L636.325 146.183L639.384 144.338L642.56 142.513L645.933 140.687L649.463 138.862L653.188 137.056L657.149 135.269L661.423 133.52L666.09 131.772L671.267 130.081L677.149 128.447L684.051 126.929L691.895 125.719L699.738 125.066L707.581 124.95L715.424 125.373L723.268 126.315L731.111 127.756L738.954 129.696L746.719 132.079L752.994 134.327L758.366 136.46L763.151 138.555L767.582 140.611L771.7 142.647L775.621 144.665L779.347 146.663L782.916 148.662L786.327 150.66L789.661 152.639L792.877 154.599L795.975 156.578L799.033 158.538L802.014 160.498L804.955 162.458L807.818 164.418L810.641 166.378L813.387 168.319L816.132 170.279L818.798 172.22L821.465 174.16L824.093 176.101L826.681 178.061L829.23 179.983L831.779 181.923L834.289 183.864L836.799 185.805L839.269 187.745L841.74 189.667L844.171 191.608L846.603 193.529L849.034 195.47L851.466 197.391L853.858 199.313L856.25 201.254L858.642 203.175L860.995 205.097L863.387 207.018L865.74 208.959L868.133 210.881L870.486 212.802L872.838 214.724L875.231 216.645L877.584 218.547L879.976 220.469L882.329 222.39L884.721 224.312L887.074 226.233L889.466 228.136L891.898 230.057L894.29 231.96L896.721 233.881L899.113 235.803L901.584 237.705L904.015 239.607L906.486 241.529L908.996 243.431L911.467 245.333L914.016 247.255L916.525 249.157L919.114 251.059L921.702 252.962L924.29 254.864L926.957 256.766L929.624 258.649L932.33 260.552L935.036 262.454L937.82 264.337L940.643 266.239L943.506 268.123L946.408 270.025L949.349 271.908L952.369 273.791L955.428 275.674L958.565 277.538L961.781 279.421L965.036 281.304L968.409 283.168L971.899 285.032L975.467 286.896L979.154 288.74L982.958 290.585L986.919 292.43L991.076 294.274L995.429 296.081L1000.02 297.906L1004.88 299.693L1010.06 301.461L1015.7 303.229L1021.86 304.939L1028.8 306.591L1036.64 308.148L1044.49 309.358L1052.33 310.204L1060.17 310.723L1068.02 310.876L1075.86 310.723L1083.7 310.242L1091.55 309.435L1099.39 308.34L1107.23 306.937L1115.08 305.265L1122.92 303.344L1130.72 301.173L1137.67 299.059L1143.94 297.003L1149.82 294.966L1155.35 292.949L1160.61 290.95L1165.63 288.952L1170.53 286.973L1175.27 284.993L1179.86 283.033L1184.37 281.074L1188.8 279.114L1193.16 277.173L1197.43 275.232L1201.67 273.291L1205.82 271.351L1209.98 269.41L1214.1 267.469L1218.22 265.548L1222.29 263.626L1226.33 261.705L1230.41 259.783L1234.45 257.862L1238.53 255.94L1242.61 254.019L1246.73 252.116L1250.84 250.214L1254.96 248.292L1259.16 246.39L1263.35 244.488L1267.63 242.605L1271.94 240.702L1276.33 238.819L1280.77 236.917L1285.28 235.034L1289.9 233.151L1294.61 231.287L1299.43 229.404L1304.37 227.54L1309.47 225.676L1314.77 223.832L1320.22 221.987L1325.9 220.142L1331.87 218.317L1338.18 216.511L1344.85 214.724L1351.98 212.956L1359.71 211.207L1367.55 209.632L1375.4 208.267L1383.24 207.076L1391.08 206.096L1398.93 205.327L1406.77 204.732L1414.61 204.328L1422.45 204.117L1430.3 204.098L1438.14 204.232L1445.98 204.559L1453.83 205.039L1461.67 205.673L1469.51 206.461L1477.36 207.383L1485.2 208.44L1493.04 209.612L1500.89 210.9L1508.73 212.283L1516.57 213.763L1524.42 215.319L1532.26 216.933L1540.1 218.605L1547.95 220.334L1555.79 222.102L1563.63 223.87L1571.48 225.676L1579.32 227.482L1587.16 229.289L1595.01 231.056L1602.85 232.824L1610.69 234.554L1618.54 236.245L1626.38 237.897L1634.22 239.473L1642.07 241.01L1649.91 242.47L1657.75 243.854L1665.6 245.18L1673.44 246.409L1681.28 247.543L1689.13 248.619L1696.97 249.58L1704.81 250.464L1712.66 251.252L1720.5 251.943L1728.34 252.558L1736.19 253.058L1744.03 253.481L1751.87 253.826L1759.71 254.057L1767.56 254.23L1775.4 254.307H1783.24L1791.09 254.23L1798.93 254.076L1806.77 253.865L1814.62 253.596L1822.46 253.269L1830.3 252.885L1838.15 252.443L1845.99 251.982L1853.83 251.463L1861.68 250.925L1869.52 250.348L1877.36 249.753L1885.21 249.157L1893.05 248.523L1900.89 247.889L1908.74 247.255L1916.58 246.621L1924.42 246.006L1932.27 245.372L1940.11 244.776L1947.95 244.18L1955.8 243.604L1963.64 243.066L1971.48 242.528L1979.33 242.028L1987.17 241.567L1995.01 241.125L2002.86 240.702L2010.7 240.337L2018.54 239.991L2026.39 239.665L2034.23 239.396L2042.07 239.146L2049.92 238.935L2057.76 238.743L2065.6 238.589L2073.45 238.474L2081.29 238.377L2089.13 238.32L2096.97 238.281L2104.82 238.262H2112.66L2120.5 238.301L2128.35 238.339L2136.19 238.397L2144.03 238.474L2151.88 238.57L2159.72 238.666L2167.56 238.762L2175.41 238.877L2183.25 238.992L2191.09 239.127L2198.94 239.242L2206.78 239.357L2214.62 239.473L2222.47 239.588L2230.31 239.703L2238.15 239.819L2246 239.915L2253.84 240.011L2261.68 240.088L2269.53 240.164L2277.37 240.241L2285.21 240.299L2293.06 240.337L2300.9 240.395L2308.74 240.433L2316.59 240.453L2324.43 240.472L2332.27 240.491L2340.12 240.51H2347.96H2355.8H2363.65H2371.49H2379.33H2387.18L2395.02 240.53H2402.86H2410.71L2418.55 240.549L2426.39 240.568L2434.23 240.587L2442.08 240.626L2449.92 240.664L2457.76 240.722L2465.61 240.76L2473.45 240.837L2481.29 240.895L2489.14 240.991L2496.98 241.068L2504.82 241.164L2512.67 241.26L2520.51 241.375L2528.35 241.49" stroke="url(#paint4_linear)" stroke-linecap="square"/>
<defs>
<linearGradient id="paint0_linear" x1="-404.741" y1="429.417" x2="-404.741" y2="0.762601" gradientUnits="userSpaceOnUse">
<stop stop-color="#00A5BA"/>
<stop offset="0.637238" stop-color="#F7C604"/>
<stop offset="1" stop-color="#FF0000"/>
</linearGradient>
<linearGradient id="paint1_linear" x1="-379.685" y1="429.417" x2="-379.685" y2="0.762601" gradientUnits="userSpaceOnUse">
<stop stop-color="#00A5BA"/>
<stop offset="0.637238" stop-color="#F7C604"/>
<stop offset="1" stop-color="#FF0000"/>
</linearGradient>
<linearGradient id="paint2_linear" x1="-354.629" y1="429.417" x2="-354.629" y2="0.762601" gradientUnits="userSpaceOnUse">
<stop stop-color="#00A5BA"/>
<stop offset="0.637238" stop-color="#F7C604"/>
<stop offset="1" stop-color="#FF0000"/>
</linearGradient>
<linearGradient id="paint3_linear" x1="-329.573" y1="429.417" x2="-329.573" y2="0.762601" gradientUnits="userSpaceOnUse">
<stop stop-color="#00A5BA"/>
<stop offset="0.637238" stop-color="#F7C604"/>
<stop offset="1" stop-color="#FF0000"/>
</linearGradient>
<linearGradient id="paint4_linear" x1="-304.517" y1="429.417" x2="-304.517" y2="0.762601" gradientUnits="userSpaceOnUse">
<stop stop-color="#00A5BA"/>
<stop offset="0.637238" stop-color="#F7C604"/>
<stop offset="1" stop-color="#FF0000"/>
</linearGradient>
</defs>
</svg>
