<svg xmlns="http://www.w3.org/2000/svg" width="76" height="59" viewBox="0 0 76 59">
    <defs>
        <linearGradient id="a" x1="49.998%" x2="50%" y1="1830.756%" y2="-128.575%">
            <stop offset="0%" stop-color="#00A5BA"/>
            <stop offset="51.529%" stop-color="#F7C604"/>
            <stop offset="100%" stop-color="#F00"/>
        </linearGradient>
        <linearGradient id="b" x1="50%" x2="50%" y1="100%" y2="-2002.639%">
            <stop offset="0%" stop-color="#00A5BA"/>
            <stop offset="51.529%" stop-color="#F7C604"/>
            <stop offset="100%" stop-color="#F00"/>
        </linearGradient>
        <linearGradient id="c" x1="50%" x2="50%" y1="138.586%" y2="-41.689%">
            <stop offset="0%" stop-color="#00A5BA"/>
            <stop offset="51.529%" stop-color="#F7C604"/>
            <stop offset="100%" stop-color="#F00"/>
        </linearGradient>
        <linearGradient id="d" x1="50%" x2="50%" y1="130.854%" y2="-40.023%">
            <stop offset="0%" stop-color="#00A5BA"/>
            <stop offset="51.529%" stop-color="#F7C604"/>
            <stop offset="100%" stop-color="#F00"/>
        </linearGradient>
        <linearGradient id="e" x1="50%" x2="50%" y1="530.757%" y2="-38.491%">
            <stop offset="0%" stop-color="#00A5BA"/>
            <stop offset="51.529%" stop-color="#F7C604"/>
            <stop offset="100%" stop-color="#F00"/>
        </linearGradient>
        <linearGradient id="f" x1="50%" x2="50%" y1="100%" y2="-405.06%">
            <stop offset="0%" stop-color="#00A5BA"/>
            <stop offset="51.529%" stop-color="#F7C604"/>
            <stop offset="100%" stop-color="#F00"/>
        </linearGradient>
        <linearGradient id="g" x1="50%" x2="50%" y1="135.503%" y2="-427.861%">
            <stop offset="0%" stop-color="#00A5BA"/>
            <stop offset="51.529%" stop-color="#F7C604"/>
            <stop offset="100%" stop-color="#F00"/>
        </linearGradient>
        <linearGradient id="h" x1="50%" x2="50%" y1="507.395%" y2="0%">
            <stop offset="0%" stop-color="#00A5BA"/>
            <stop offset="51.529%" stop-color="#F7C604"/>
            <stop offset="100%" stop-color="#F00"/>
        </linearGradient>
    </defs>
    <g fill="none" fill-rule="nonzero">
        <path fill="#000" d="M45.5 7v.5h-1V7a5.5 5.5 0 1 0-5.5 5.5h.5v1H39A6.5 6.5 0 1 1 45.5 7z"/>
        <path fill="url(#a)" d="M11 21a1 1 0 0 1 0-2h53a1 1 0 0 1 0 2H11z" transform="translate(1 1)"/>
        <path fill="url(#b)" d="M10.5 53a1 1 0 0 1 0-2h53a1 1 0 0 1 0 2h-53z" transform="translate(1 1)"/>
        <path fill="url(#c)" d="M70 47.5a1 1 0 0 1-2 0v-23a1 1 0 0 1 2 0v23zM6 47.5a1 1 0 0 1-2 0v-23a1 1 0 0 1 2 0v23z" transform="translate(1 1)"/>
        <path fill="url(#d)" d="M5.942 52.397a1 1 0 0 1-.884-1.794l63-31a1 1 0 0 1 .884 1.794l-63 31z" transform="translate(1 1)"/>
        <path fill="url(#d)" d="M5.058 21.397a1 1 0 1 1 .884-1.794l63.021 31.022a1 1 0 1 1-.883 1.794L5.058 21.397z" transform="translate(1 1)"/>
        <path fill="#FFF" d="M6 16a5 5 0 1 1 0 10 5 5 0 0 1 0-10z"/>
        <path fill="url(#e)" d="M5 17a3 3 0 1 0 0 6 3 3 0 0 0 0-6zm0-2a5 5 0 1 1 0 10 5 5 0 0 1 0-10z" transform="translate(1 1)"/>
        <path fill="#FFF" d="M6 16a5 5 0 1 0 0 10 5 5 0 0 0 0-10zm0-1a6 6 0 1 1 0 12 6 6 0 0 1 0-12zM6 48a5 5 0 1 1 0 10 5 5 0 0 1 0-10z"/>
        <path fill="url(#f)" d="M5 49a3 3 0 1 0 0 6 3 3 0 0 0 0-6zm0-2a5 5 0 1 1 0 10 5 5 0 0 1 0-10z" transform="translate(1 1)"/>
        <path fill="#FFF" d="M6 48a5 5 0 1 0 0 10 5 5 0 0 0 0-10zm0-1a6 6 0 1 1 0 12 6 6 0 0 1 0-12zM70 48a5 5 0 1 1 0 10 5 5 0 0 1 0-10z"/>
        <path fill="url(#g)" d="M69 49a3 3 0 1 0 0 6 3 3 0 0 0 0-6zm0-2a5 5 0 1 1 0 10 5 5 0 0 1 0-10z" transform="translate(1 1)"/>
        <path fill="#FFF" d="M70 48a5 5 0 1 0 0 10 5 5 0 0 0 0-10zm0-1a6 6 0 1 1 0 12 6 6 0 0 1 0-12zM70 16a5 5 0 1 1 0 10 5 5 0 0 1 0-10z"/>
        <path fill="url(#h)" d="M69 17a3 3 0 1 0 0 6 3 3 0 0 0 0-6zm0-2a5 5 0 1 1 0 10 5 5 0 0 1 0-10z" transform="translate(1 1)"/>
        <path fill="#FFF" d="M70 16a5 5 0 1 0 0 10 5 5 0 0 0 0-10zm0-1a6 6 0 1 1 0 12 6 6 0 0 1 0-12z"/>
    </g>
</svg>
