<svg xmlns="http://www.w3.org/2000/svg" width="117" height="117" viewBox="0 0 117 117">
    <g fill="none" fill-rule="evenodd">
        <rect width="115" height="115" x="1" y="1" stroke="#00A5BA" stroke-width="2" rx="3"/>
        <g transform="translate(19 71)">
            <rect width="77" height="29" x="1" y="1" stroke="#00A5BA" stroke-width="2" rx="2"/>
            <g transform="translate(52 4)">
                <circle cx="11.5" cy="11.5" r="10.5" stroke="#00A5BA" stroke-width="2"/>
                <rect width="2" height="5" x="7" y="7" fill="#00A5BA" rx="1"/>
                <rect width="2" height="5" x="14" y="7" fill="#00A5BA" rx="1"/>
                <path fill="#00A5BA" d="M11.5 15a1.5 1.5 0 0 1 1.5 1.5V18h-3v-1.5a1.5 1.5 0 0 1 1.5-1.5z"/>
            </g>
            <g fill="#00A5BA">
                <path d="M0 2h2v27H0zM12 0h2v31h-2zM36 0h2v31h-2zM24 0h2v31h-2zM48 0h2v31h-2z"/>
            </g>
        </g>
        <g transform="translate(71 12)">
            <rect width="25" height="49" x="1" y="1" stroke="#00A5BA" stroke-width="2" rx="2"/>
            <path fill="#00A5BA" d="M15 18h-3a2 2 0 0 1-2 2H9a2 2 0 0 1-2-2H6a2 2 0 0 1-2-2v-1a2 2 0 0 1 2-2h15a2 2 0 0 1 2 2v1a2 2 0 0 1-2 2h-1a2 2 0 0 1-2 2h-1a2 2 0 0 1-2-2z"/>
        </g>
        <g transform="translate(19 12)">
            <rect width="44" height="49" x="1" y="1" stroke="#00A5BA" stroke-width="2" rx="2"/>
            <rect width="33" height="11" x="6.5" y="10.5" stroke="#00A5BA" rx="2"/>
            <rect width="22" height="2" x="12" y="15" fill="#00A5BA" rx="1"/>
            <path stroke="#00A5BA" stroke-linecap="round" d="M13.522 30L9 37.028l5-.725-5 7.56"/>
        </g>
    </g>
</svg>
