<svg xmlns="http://www.w3.org/2000/svg" xmlns:xlink="http://www.w3.org/1999/xlink" width="69" height="61" viewBox="0 0 69 61">
    <defs>
        <linearGradient id="a" x1="49.998%" x2="50%" y1="1830.756%" y2="-128.575%">
            <stop offset="0%" stop-color="#00A5BA"/>
            <stop offset="51.529%" stop-color="#F7C604"/>
            <stop offset="100%" stop-color="#F00"/>
        </linearGradient>
        <linearGradient id="b" x1="50%" x2="50%" y1="1846.658%" y2="-128.575%">
            <stop offset="0%" stop-color="#00A5BA"/>
            <stop offset="51.529%" stop-color="#F7C604"/>
            <stop offset="100%" stop-color="#F00"/>
        </linearGradient>
        <linearGradient id="c" x1="50%" x2="50%" y1="130.854%" y2="-40.023%">
            <stop offset="0%" stop-color="#00A5BA"/>
            <stop offset="51.529%" stop-color="#F7C604"/>
            <stop offset="100%" stop-color="#F00"/>
        </linearGradient>
        <linearGradient id="d" x1="50%" x2="50%" y1="138.586%" y2="-41.689%">
            <stop offset="0%" stop-color="#00A5BA"/>
            <stop offset="51.529%" stop-color="#F7C604"/>
            <stop offset="100%" stop-color="#F00"/>
        </linearGradient>
        <linearGradient id="e" x1="50%" x2="50%" y1="136.838%" y2="-36.818%">
            <stop offset="0%" stop-color="#00A5BA"/>
            <stop offset="51.529%" stop-color="#F7C604"/>
            <stop offset="100%" stop-color="#F00"/>
        </linearGradient>
        <linearGradient id="f" x1="50%" x2="50%" y1="530.757%" y2="-38.491%">
            <stop offset="0%" stop-color="#00A5BA"/>
            <stop offset="51.529%" stop-color="#F7C604"/>
            <stop offset="100%" stop-color="#F00"/>
        </linearGradient>
        <linearGradient id="g" x1="50%" x2="50%" y1="100%" y2="-405.06%">
            <stop offset="0%" stop-color="#00A5BA"/>
            <stop offset="51.529%" stop-color="#F7C604"/>
            <stop offset="100%" stop-color="#F00"/>
        </linearGradient>
        <linearGradient id="h" x1="50%" x2="50%" y1="100%" y2="-412.468%">
            <stop offset="0%" stop-color="#00A5BA"/>
            <stop offset="51.529%" stop-color="#F7C604"/>
            <stop offset="100%" stop-color="#F00"/>
        </linearGradient>
        <linearGradient id="i" x1="50%" x2="50%" y1="135.503%" y2="-427.861%">
            <stop offset="0%" stop-color="#00A5BA"/>
            <stop offset="51.529%" stop-color="#F7C604"/>
            <stop offset="100%" stop-color="#F00"/>
        </linearGradient>
        <linearGradient id="j" x1="50%" x2="50%" y1="507.395%" y2="0%">
            <stop offset="0%" stop-color="#00A5BA"/>
            <stop offset="51.529%" stop-color="#F7C604"/>
            <stop offset="100%" stop-color="#F00"/>
        </linearGradient>
        <path id="k" d="M0 0h14v17H0z"/>
        <path id="m" d="M0 0h14v11H0z"/>
    </defs>
    <g fill="none" fill-rule="evenodd">
        <path stroke="url(#a)" stroke-linecap="round" stroke-width="2" d="M5 27h24"/>
        <path stroke="url(#b)" stroke-linecap="round" stroke-width="2" d="M39 27h25.087"/>
        <path stroke="url(#c)" stroke-linecap="round" stroke-width="2" d="M10 51.5l21-21"/>
        <path stroke="url(#d)" stroke-linecap="round" stroke-width="2" d="M34.5 31.5v26.02"/>
        <path stroke="url(#e)" stroke-linecap="round" stroke-width="2" d="M38 30.5l21.022 21.022"/>
        <rect width="2" height="2" x="1.5" y="26" stroke="url(#f)" stroke-width="2" rx="1"/>
        <rect width="2" height="2" x="8.5" y="51" stroke="url(#g)" stroke-width="2" rx="1"/>
        <rect width="2" height="2" x="33.5" y="58" stroke="url(#h)" stroke-width="2" rx="1"/>
        <rect width="2" height="2" x="58.5" y="51" stroke="url(#i)" stroke-width="2" rx="1"/>
        <rect width="2" height="2" x="65.5" y="26" stroke="url(#j)" stroke-width="2" rx="1"/>
        <g stroke-linecap="round">
            <rect width="11" height="11" x="29" y="21.5" stroke="#FFF" rx="5.5"/>
            <rect width="8" height="8" x="30.5" y="23" stroke="url(#f)" stroke-width="2" rx="4"/>
        </g>
        <g transform="translate(27.5)">
            <mask id="l" fill="#fff">
                <use xlink:href="#k"/>
            </mask>
            <path stroke="#000" stroke-linecap="square" d="M-3.4 13.12c3.967 0 3.768 2 7.91 2s4.045-2 8.243-2" mask="url(#l)" transform="rotate(-90 4.677 14.12)"/>
            <path stroke="#000" stroke-linecap="square" d="M-3.4-2.88c3.967 0 3.768 2 7.91 2s4.045-2 8.243-2" mask="url(#l)" transform="rotate(-90 4.677 -1.88)"/>
        </g>
        <g transform="translate(27.5 3)">
            <mask id="n" fill="#fff">
                <use xlink:href="#m"/>
            </mask>
            <path stroke="#000" stroke-linecap="square" d="M.6 10.12c3.967 0 3.768 2 7.91 2s4.045-2 8.243-2" mask="url(#n)" transform="rotate(-90 8.677 11.12)"/>
            <path stroke="#000" stroke-linecap="square" d="M.6-5.88c3.967 0 3.768 2 7.91 2s4.045-2 8.243-2" mask="url(#n)" transform="rotate(-90 8.677 -4.88)"/>
        </g>
    </g>
</svg>
