<svg xmlns="http://www.w3.org/2000/svg" width="601" height="223" viewBox="0 0 601 223">
    <defs>
        <linearGradient id="a" x1="50%" x2="50%" y1="100%" y2="0%">
            <stop offset="0%" stop-color="#00A5BA"/>
            <stop offset="51.529%" stop-color="#F7C604"/>
            <stop offset="100%" stop-color="#F00"/>
        </linearGradient>
        <filter id="b" width="102.3%" height="106.4%" x="-1.2%" y="-3.2%" filterUnits="objectBoundingBox">
            <feGaussianBlur in="SourceGraphic" stdDeviation="2"/>
        </filter>
    </defs>
    <g fill="none" fill-rule="evenodd" stroke="url(#a)" stroke-linecap="square">
        <path stroke-width="2" d="M1 138.96c26.602 0 35.671 32.04 68.644 32.56 32.973.521 64.834-23.631 106.79-23.617 41.954.015 99.55 74.86 182.677 73.46C442.237 219.966 469.893 1 494.818 1 519.743 1 523.11 138.26 602 138.26" filter="url(#b)"/>
        <path stroke-width="3" d="M1 138.96c26.602 0 35.671 32.04 68.644 32.56 32.973.521 64.834-23.631 106.79-23.617 41.954.015 99.55 74.86 182.677 73.46C442.237 219.966 469.893 1 494.818 1 519.743 1 523.11 138.26 602 138.26"/>
    </g>
</svg>
