<svg xmlns="http://www.w3.org/2000/svg" width="627" height="401" viewBox="0 0 627 401">
    <defs>
        <linearGradient id="a" x1="21.83%" x2="75.642%" y1="50%" y2="50%">
            <stop offset="0%" stop-color="#404042"/>
            <stop offset="19.432%" stop-color="#FFF"/>
            <stop offset="78.062%" stop-color="#FFF"/>
            <stop offset="100%" stop-color="#404042"/>
        </linearGradient>
        <linearGradient id="b" x1="50%" x2="50%" y1="100%" y2="0%">
            <stop offset="0%" stop-color="#00A5BA"/>
            <stop offset="51.529%" stop-color="#F7C604"/>
            <stop offset="100%" stop-color="#F00"/>
        </linearGradient>
        <filter id="c" width="102.3%" height="106.4%" x="-1.1%" y="-3.2%" filterUnits="objectBoundingBox">
            <feGaussianBlur in="SourceGraphic" stdDeviation="2"/>
        </filter>
    </defs>
    <g fill="none" fill-rule="evenodd">
        <rect width="625" height="350" x="2" y="23" fill="url(#a)" opacity=".08" rx="8"/>
        <text fill="#022133" font-family="OpenSans-Regular, Open Sans" font-size="16">
            <tspan x="2" y="12">Потребление энергии</tspan>
        </text>
        <g stroke="url(#b)" stroke-linecap="square" transform="translate(3 65)">
            <path stroke-width="2" d="M1.033 138.96c27.488 0 36.859 32.04 70.929 32.56 34.07.521 66.991-23.631 110.343-23.617 43.35.015 102.864 74.86 188.756 73.46C456.954 219.966 485.53 1 511.284 1c25.755 0 29.235 137.26 110.75 137.26" filter="url(#c)"/>
            <path stroke-width="3" d="M1.033 138.96c27.488 0 36.859 32.04 70.929 32.56 34.07.521 66.991-23.631 110.343-23.617 43.35.015 102.864 74.86 188.756 73.46C456.954 219.966 485.53 1 511.284 1c25.755 0 29.235 137.26 110.75 137.26"/>
        </g>
        <text fill="#022133" font-family="OpenSans-Regular, Open Sans" font-size="14" opacity=".5">
            <tspan x="1.179" y="394">Полночь</tspan>
        </text>
        <text fill="#022133" font-family="OpenSans-Regular, Open Sans" font-size="14" opacity=".5">
            <tspan x="159.367" y="394">Утро</tspan>
        </text>
        <text fill="#022133" font-family="OpenSans-Regular, Open Sans" font-size="14" opacity=".5">
            <tspan x="291.212" y="394">День</tspan>
        </text>
        <text fill="#022133" font-family="OpenSans-Regular, Open Sans" font-size="14" opacity=".5">
            <tspan x="427.065" y="394">Вечер</tspan>
        </text>
        <text fill="#022133" font-family="OpenSans-Regular, Open Sans" font-size="14" opacity=".5">
            <tspan x="569.179" y="394">Полночь</tspan>
        </text>
    </g>
</svg>
