<svg xmlns="http://www.w3.org/2000/svg" xmlns:xlink="http://www.w3.org/1999/xlink" width="265" height="148" viewBox="0 0 265 148">
    <defs>
        <linearGradient id="b" x1="50%" x2="50%" y1="100%" y2="-39.234%">
            <stop offset="0%" stop-color="#00A5BA"/>
            <stop offset="51.529%" stop-color="#F7C604"/>
            <stop offset="100%" stop-color="#F00"/>
        </linearGradient>
        <path id="a" d="M4 0h12a4 4 0 0 1 4 4v12a4 4 0 0 1-4 4H4a4 4 0 0 1-4-4V4a4 4 0 0 1 4-4z"/>
        <path id="c" d="M4 2a2 2 0 0 0-2 2v12a2 2 0 0 0 2 2h12a2 2 0 0 0 2-2V4a2 2 0 0 0-2-2H4z"/>
    </defs>
    <g fill="none" fill-rule="evenodd" transform="translate(1 1)">
        <path id = "dashed" fill="#000" fill-rule="nonzero"
              d="M56.066 64.333l-.697 1.328-6.641-3.485.697-1.328 6.641 3.485zM43.67 57.828l-.697 1.328-6.641-3.485.697-1.328
              6.641 3.485zm-12.397-6.505l-.697 1.328-6.641-3.484.697-1.329 6.641 3.485zM10.734 90.174h-1.5v-7.5h1.5v7.5zm0-14h-1.5v-7.5h1.5v7.5zm0-14h-1.5v-7.5h1.5v7.5z"
              opacity=".3"/>
        <path fill="#00A5BA" fill-rule="nonzero" d="M193.672 73.75h-1.5V8.25h1.5z"/>
        <path fill="#00A5BA" fill-rule="nonzero" d="M193.934 9.82l-.697-1.329-62.307 32.693.697 1.329z"/>
        <path fill="#00A5BA" fill-rule="nonzero" d="M193.934 72.68l-.697 1.329-62.307-32.693.697-1.329z"/>
        <path fill="#00A5BA" fill-rule="nonzero" d="M132.692 105.75h-1.5v-65.5h1.5zM71.713 137.75h-1.5v-65.5h1.5z"/>
        <path fill="#00A5BA" fill-rule="nonzero" d="M71.976 136.68l-.697 1.329L8.97 105.316l.697-1.329zM132.955 41.316l-.697-1.329L69.951 72.68l.696 1.329z"/>
        <path fill="#00A5BA" fill-rule="nonzero" d="M132.955 105.316l-.697-1.329-62.307 32.693.696 1.329z"/>
        <path fill="#00A5BA" fill-rule="nonzero" d="M132.955 105.184l-.697 1.329L69.951 73.82l.696-1.329z"/>
        <path fill="#00A5BA" fill-rule="nonzero" d="M71.976 73.82l-.697-1.329L8.97 105.184l.697 1.329zM193.934 73.82l-.697-1.329-62.307 32.693.697 1.329zM254.914 41.184l-.697 1.329L191.909 9.82l.697-1.329z"/>
        <path fill="#00A5BA" fill-rule="nonzero" d="M254.651 105.75h-1.5v-65.5h1.5z"/>
        <path fill="#00A5BA" fill-rule="nonzero" d="M254.914 41.316l-.697-1.329-62.308 32.693.697 1.329z"/>
        <path fill="#00A5BA" fill-rule="nonzero" d="M254.914 105.184l-.697 1.329-62.308-32.693.697-1.329z"/>
        <rect width="18" height="18" x="244.425" y="32" fill="#FFF" stroke="#00A5BA" stroke-linecap="round" stroke-width="2" rx="3"/>
        <rect width="18" height="18" x="244.425" y="96" fill="#FFF" stroke="#00A5BA" stroke-linecap="round" stroke-width="2" rx="3"/>
        <rect width="18" height="18" x=".507" y="96" fill="#FFF" stroke="#00A5BA" stroke-linecap="round" stroke-width="2" rx="3"/>
        <rect width="18" height="18" x="122.466" y="32" fill="#FFF" stroke="#00A5BA" stroke-linecap="round" stroke-width="2" rx="3"/>
        <rect width="18" height="18" x="122.466" y="96" fill="#FFF" stroke="#00A5BA" stroke-linecap="round" stroke-width="2" rx="3"/>
        <rect width="18" height="18" x="61.487" y="64" fill="#FFF" stroke="#00A5BA" stroke-linecap="round" stroke-width="2" rx="3"/>
        <rect width="18" height="18" x="183.445" y="64" fill="#FFF" stroke="#00A5BA" stroke-linecap="round" stroke-width="2" rx="3"/>
        <rect width="18" height="18" x="183.445" fill="#FFF" stroke="#00A5BA" stroke-linecap="round" stroke-width="2" rx="3"/>
        <rect width="18" height="18" x="61.487" y="128" fill="#FFF" stroke="#00A5BA" stroke-linecap="round" stroke-width="2" rx="3"/>
        <g fill-rule="evenodd" transform="translate(0 31)">
            <use fill="#FFF" xlink:href="#a"/>
            <use fill="url(#b)" xlink:href="#a"/>
        </g>
        <g transform="translate(0 31)">
            <use fill="url(#b)" xlink:href="#c"/>
            <use fill="#FFF" xlink:href="#c"/>
        </g>
    </g>
</svg>
