<svg xmlns="http://www.w3.org/2000/svg" width="601" height="223" viewBox="0 0 601 223">
    <defs>
        <linearGradient id="a" x1="50%" x2="50%" y1="297.927%" y2="-317.494%">
            <stop offset="0%" stop-color="#00A5BA"/>
            <stop offset="51.529%" stop-color="#F7C604"/>
            <stop offset="100%" stop-color="#F00"/>
        </linearGradient>
        <filter id="b" width="102.3%" height="140.5%" x="-1.2%" y="-20.2%" filterUnits="objectBoundingBox">
            <feGaussianBlur in="SourceGraphic" stdDeviation="2"/>
        </filter>
    </defs>
    <g fill="none" fill-rule="evenodd" stroke="url(#a)" stroke-linecap="square">
        <path stroke-width="2" d="M.52 135.55c26.545 0 35.595 9.867 68.498 10.027 32.903.16 64.696-7.277 106.561-7.273 41.865.005 99.339 13.25 182.287 12.818 82.949-.43 96.511-34.562 138.071-34.562 29.749 0 55.56 18.774 104.3 18.774" filter="url(#b)"/>
        <path stroke-width="3" d="M.52 135.55c26.545 0 35.595 9.867 68.498 10.027 32.903.16 64.696-7.277 106.561-7.273 41.865.005 99.339 13.25 182.287 12.818 82.949-.43 96.511-34.562 138.071-34.562 29.749 0 55.56 18.774 104.3 18.774"/>
    </g>
</svg>
