<svg xmlns="http://www.w3.org/2000/svg" xmlns:xlink="http://www.w3.org/1999/xlink" width="277" height="148" viewBox="0 0 277 148">
    <defs>
        <linearGradient id="b" x1="50%" x2="50%" y1="100%" y2="-39.234%">
            <stop offset="0%" stop-color="#00A5BA"/>
            <stop offset="51.529%" stop-color="#F7C604"/>
            <stop offset="100%" stop-color="#F00"/>
        </linearGradient>
        <path id="a" d="M17 0h12a4 4 0 0 1 4 4v12a4 4 0 0 1-4 4H17a4 4 0 0 1-4-4V4a4 4 0 0 1 4-4z"/>
        <path id="c" d="M17 2a2 2 0 0 0-2 2v12a2 2 0 0 0 2 2h12a2 2 0 0 0 2-2V4a2 2 0 0 0-2-2H17z"/>
    </defs>
    <g fill="none" fill-rule="evenodd" transform="translate(0 1)">

        <path id = "con-line-1"  fill="#00A5BA" fill-rule="nonzero" d="M23.734 105.75h-1.5v-65.5h1.5z"/>
        <path  id = "con-line-2" fill="#00A5BA" fill-rule="nonzero" d="M21.97 41.316l.697-1.329L84.976 72.68l-.697 1.329z"/>

        <path id = "dashed" fill="#000"
              fill-rule="nonzero"
              d="M69.066 64.333l-.697 1.328-6.641-3.485.697-1.328 6.641 3.485z
                 M56.67 57.828l-.697 1.328-6.641-3.485.697-1.328 6.641 3.485zm-12.397-6.505l-.697 1.328-6.641-3.484.697-1.329 6.641 3.485z
                 M23.734 90.174h-1.5v-7.5h1.5v7.5zm0-14h-1.5v-7.5h1.5v7.5zm0-14h-1.5v-7.5h1.5v7.5z"
              opacity=".3"/>

        


        <path fill="#00A5BA" fill-rule="nonzero" d="M145.692 105.75h-1.5v-65.5h1.5z"/>
        <path fill="#00A5BA" fill-rule="nonzero" d="M84.713 137.75h-1.5v-65.5h1.5z"/>

        <path fill="#00A5BA" fill-rule="nonzero" d="M206.934 72.68l-.697 1.329-62.307-32.693.697-1.329z"/>


        <path fill="#00A5BA" fill-rule="nonzero" d="M84.976 136.68l-.697 1.329-62.308-32.693.697-1.329zM145.955 41.316l-.697-1.329L82.951 72.68l.696 1.329z"/>

        <path fill="#00A5BA" fill-rule="nonzero" d="M84.976 73.82l-.697-1.329-62.308 32.693.697 1.329z"/>

        <path fill="#00A5BA" fill-rule="nonzero" d="M206.934 73.82l-.697-1.329-62.307 32.693.697 1.329z"/>
        <path fill="#00A5BA" fill-rule="nonzero" d="M267.914 41.184l-.697 1.329L204.909 9.82l.697-1.329z"/>

        <path fill="#00A5BA" fill-rule="nonzero" d="M145.955 105.316l-.697-1.329-62.307 32.693.696 1.329z"/>
        <path fill="#00A5BA" fill-rule="nonzero" d="M145.955 105.184l-.697 1.329L82.951 73.82l.696-1.329z"/>

        <path fill="#00A5BA" fill-rule="nonzero" d="M267.651 105.75h-1.5v-65.5h1.5z"/>
        <path fill="#00A5BA" fill-rule="nonzero" d="M206.934 9.82l-.697-1.329-62.307 32.693.697 1.329z"/>
        <path fill="#00A5BA" fill-rule="nonzero" d="M267.914 41.316l-.697-1.329-62.308 32.693.697 1.329z"/>
        <path fill="#00A5BA" fill-rule="nonzero" d="M267.914 105.184l-.697 1.329-62.308-32.693.697-1.329z"/>
        <rect width="18" height="18" x="257.425" y="32" fill="#FFF" stroke="#00A5BA" stroke-linecap="round" stroke-width="2" rx="3"/>
        <rect width="18" height="18" x="257.425" y="96" fill="#FFF" stroke="#00A5BA" stroke-linecap="round" stroke-width="2" rx="3"/>
        <rect width="18" height="18" x="13.507" y="96" fill="#FFF" stroke="#00A5BA" stroke-linecap="round" stroke-width="2" rx="3"/>
        <rect width="18" height="18" x="135.466" y="32" fill="#FFF" stroke="#00A5BA" stroke-linecap="round" stroke-width="2" rx="3"/>
        <rect width="18" height="18" x="135.466" y="96" fill="#FFF" stroke="#00A5BA" stroke-linecap="round" stroke-width="2" rx="3"/>
        <rect width="18" height="18" x="74.487" y="64" fill="#FFF" stroke="#00A5BA" stroke-linecap="round" stroke-width="2" rx="3"/>
        <rect width="18" height="18" x="196.445" y="64" fill="#FFF" stroke="#00A5BA" stroke-linecap="round" stroke-width="2" rx="3"/>
        <rect width="18" height="18" x="196.445" fill="#FFF" stroke="#00A5BA" stroke-linecap="round" stroke-width="2" rx="3"/>
        <rect width="18" height="18" x="74.487" y="128" fill="#FFF" stroke="#00A5BA" stroke-linecap="round" stroke-width="2" rx="3"/>
    
      
       <rect width="18" height="18" x="0" y="31" fill="#FFF" stroke="#00A5BA" stroke-linecap="round" stroke-width="2" rx="3" filter="url(#b)">
              

		<path id="check-1" fill="#00A5BA" d="M57.124 47.338L66.333 35.1l1.598 1.203-10.67 14.18-5.143-5.723 1.488-1.337z"/>

        <path id="check-2" fill="#00A5BA" d="M7.124 77.338L16.333 65.1l1.598 1.203-10.67 14.18-5.143-5.723 1.488-1.337z"/>

       <path id="check-3" fill="#00A5BA" d="M22.124 40.338L31.333 28.1l1.598 1.203-10.67 14.18-5.143-5.723 1.488-1.337z"/>

    </g>
</svg>
