<svg xmlns="http://www.w3.org/2000/svg" width="601" height="223" viewBox="0 0 601 223">
    <defs>
        <linearGradient id="a" x1="50%" x2="50%" y1="127.346%" y2="-68.483%">
            <stop offset="0%" stop-color="#00A5BA"/>
            <stop offset="51.529%" stop-color="#F7C604"/>
            <stop offset="100%" stop-color="#F00"/>
        </linearGradient>
        <filter id="b" width="102.3%" height="112.4%" x="-1.2%" y="-6.2%" filterUnits="objectBoundingBox">
            <feGaussianBlur in="SourceGraphic" stdDeviation="2"/>
        </filter>
    </defs>
    <g fill="none" fill-rule="evenodd" stroke="url(#a)" stroke-linecap="square">
        <path stroke-width="2" d="M.52 139.405c26.545 0 35.595 32.204 68.498 32.728 32.903.524 64.696-23.753 106.561-23.738 41.865.015 99.339 43.243 182.287 41.837 82.949-1.406 96.511-112.804 138.071-112.804 29.749 0 55.56 61.274 104.3 61.274" filter="url(#b)"/>
        <path stroke-width="3" d="M.52 139.405c26.545 0 35.595 32.204 68.498 32.728 32.903.524 64.696-23.753 106.561-23.738 41.865.015 99.339 43.243 182.287 41.837 82.949-1.406 96.511-112.804 138.071-112.804 29.749 0 55.56 61.274 104.3 61.274"/>
    </g>
</svg>
