<svg xmlns="http://www.w3.org/2000/svg" width="1183" height="180" viewBox="0 0 1183 180">
    <defs>
        <linearGradient id="a" x1="50%" x2="50%" y1="100%" y2="-37.671%">
            <stop offset="0%" stop-color="#00A5BA"/>
            <stop offset="51.529%" stop-color="#F7C604"/>
            <stop offset="100%" stop-color="#F00"/>
        </linearGradient>
    </defs>
    <g fill="none" fill-rule="evenodd" stroke="url(#a)" stroke-linecap="square" transform="translate(-120 -20)">
        <path d="M1303 97.175c-52.363 0-70.215 39.582-135.119 40.226-64.903.643-127.618-29.195-210.202-29.176-82.583.018-195.955 92.48-359.58 90.751C434.477 197.248 407.724 21 325.742 21 267.06 21 216.144 96.311 120 96.311"/>
        <path d="M1303 97.175c-53.425 0-71.64 39.582-137.86 40.226-66.22.643-130.207-29.195-214.466-29.176-84.26.018-199.93 92.48-366.875 90.751C416.856 197.248 389.56 21 305.915 21 246.043 21 194.095 96.311 96 96.311"/>
        <path d="M1303 97.175c-54.488 0-73.064 39.582-140.6 40.226-67.538.643-132.797-29.195-218.732-29.176-85.934.018-203.906 92.48-374.17 90.751C399.236 197.248 371.398 21 286.09 21 225.027 21 172.045 96.311 72 96.311"/>
        <path d="M1303 97.175c-55.55 0-74.488 39.582-143.342 40.226-68.854.643-135.386-29.195-222.995-29.176-87.61.018-207.882 92.48-381.465 90.751C381.615 197.248 353.234 21 266.263 21 204.01 21 149.995 96.311 48 96.311"/>
        <path d="M1303 97.175c-56.612 0-75.913 39.582-146.083 40.226-70.171.643-137.975-29.195-227.26-29.176-89.285.018-211.857 92.48-388.76 90.751C363.996 197.248 335.072 21 246.438 21 182.993 21 127.946 96.311 24 96.311"/>
        <path d="M1303 97.175c-57.675 0-77.337 39.582-148.825 40.226-71.487.643-140.563-29.195-231.524-29.176-90.96.018-215.832 92.48-396.054 90.751C346.375 197.248 316.908 21 226.611 21 161.977 21 105.896 96.311 0 96.311"/>
    </g>
</svg>
