<svg xmlns="http://www.w3.org/2000/svg" width="17" height="17" viewBox="0 0 17 17">
    <path fill="#12100E" fill-rule="nonzero" d="M0 0h17v17H0V0zm4.08 5.742v5.004a.576.576 0 0 1-.154.497l-1.19 1.442v.19H6.11v-.19l-1.19-1.442a.597.597 0 0 1-.164-.497V6.418l2.963 6.457h.344l2.545-6.457v5.147c0 .137 0 .164-.09.254l-.916.887v.19h4.445v-.19l-.884-.866a.264.264 0 0 1-.1-.254V5.22a.264.264 0 0 1 .1-.254l.905-.867v-.19h-3.132L8.704 9.472l-2.54-5.564H2.878v.19l1.059 1.274c.104.093.157.23.143.37z"/>
</svg>
