<?xml version="1.0" encoding="UTF-8"?>
<svg width="255px" height="219px" viewBox="0 0 255 219" version="1.1" xmlns="http://www.w3.org/2000/svg" xmlns:xlink="http://www.w3.org/1999/xlink">
    <!-- Generator: Sketch 50 (54983) - http://www.bohemiancoding.com/sketch -->
    <title>rocket-chat</title>
    <desc>Created with Sketch.</desc>
    <defs></defs>
    <g id="rocket-chat" stroke="none" stroke-width="1" fill="none" fill-rule="evenodd">
        <g fill="#000000" fill-rule="nonzero">
            <path d="M255.95,109.307 L255.948,109.483 C255.948,109.542 255.951,109.597 255.951,109.657 C255.951,122.504 252.106,134.83 244.521,146.285 C237.71,156.573 228.169,165.672 216.165,173.343 C192.984,188.15 162.52,196.301 130.383,196.301 C119.649,196.301 109.07,195.395 98.806,193.599 C92.437,199.556 84.985,204.921 77.099,209.159 C34.964,229.578 0.022,209.639 0.022,209.639 C0.022,209.639 32.509,182.95 27.226,159.556 C12.69,145.14 4.814,127.754 4.814,109.654 C4.814,109.593 4.817,109.537 4.817,109.48 C4.817,109.422 4.814,109.363 4.814,109.307 C4.814,91.207 12.693,73.821 27.226,59.402 C32.509,36.01 0.022,9.322 0.022,9.322 C0.022,9.322 34.964,-10.62 77.099,9.802 C84.986,14.04 92.44,19.402 98.806,25.362 C109.068,23.564 119.649,22.657 130.383,22.657 C162.518,22.657 192.985,30.814 216.165,45.62 C228.169,53.292 237.71,62.394 244.52,72.677 C252.106,84.134 255.95,96.454 255.95,109.307 Z M130.383,40.828 C70.876,40.828 22.635,71.639 22.638,109.652 C22.638,126.214 31.798,141.411 47.06,153.284 C49.686,178.044 37.416,193.075 29.134,201.97 C54.596,208.41 80.806,188.482 92.721,174.15 C104.443,176.943 117.133,178.475 130.383,178.475 C189.888,178.475 238.129,147.659 238.129,109.652 C238.129,71.642 189.888,40.828 130.383,40.828 Z" id="Combined-Shape"></path>
            <path d="M130.383,126.18 C138.289,126.18 144.697,119.772 144.697,111.866 C144.697,103.961 138.289,97.553 130.383,97.553 C122.478,97.553 116.07,103.961 116.07,111.866 C116.07,119.772 122.478,126.18 130.383,126.18 Z M180.147,126.18 C188.052,126.18 194.461,119.772 194.461,111.866 C194.461,103.961 188.052,97.553 180.147,97.553 C172.242,97.553 165.834,103.961 165.834,111.866 C165.834,119.772 172.242,126.18 180.147,126.18 Z M80.617,126.177 C88.521,126.177 94.928,119.77 94.928,111.867 C94.928,103.963 88.521,97.555 80.618,97.555 C72.713,97.555 66.306,103.963 66.306,111.866 C66.306,119.77 72.713,126.177 80.617,126.177 Z" id="Shape"></path>
        </g>
    </g>
</svg>