<svg xmlns="http://www.w3.org/2000/svg" width="18" height="15" viewBox="0 0 18 15">
    <path fill="#12100E" fill-rule="evenodd" d="M17.187 7.516c0 1.064-.365 2.029-1.095 2.895-.73.866-1.72 1.546-2.969 2.04-1.25.496-2.616.743-4.1.743-.693 0-1.374-.062-2.042-.186-.42.396-.89.743-1.41 1.04a5.949 5.949 0 0 1-1.93.556 6.858 6.858 0 0 1-1.595-.037A6.164 6.164 0 0 1 .97 14.27l-.408-.185c.346-.297.68-.656 1.002-1.077.643-.84.902-1.583.779-2.226C1.353 9.817.858 8.728.858 7.516c0-1.212.495-2.3 1.485-3.265.099-.47-.013-.99-.334-1.559-.198-.396-.507-.804-.928-1.225l-.52-.52L.97.763C1.29.64 1.65.54 2.046.465A6.858 6.858 0 0 1 3.642.428c.668.075 1.31.26 1.93.557.519.272.989.618 1.41 1.039a11.185 11.185 0 0 1 2.04-.186c1.485 0 2.852.248 4.101.743 1.25.494 2.239 1.175 2.969 2.04.73.867 1.095 1.831 1.095 2.895zm-8.165 4.602c1.312 0 2.512-.204 3.6-.613 1.089-.408 1.954-.964 2.598-1.67.643-.705.965-1.471.965-2.3 0-.829-.322-1.596-.965-2.301-.644-.705-1.51-1.268-2.598-1.688-1.088-.421-2.282-.631-3.581-.631s-2.492.21-3.581.63c-1.089.421-1.954.984-2.598 1.689-.643.705-.965 1.466-.965 2.282 0 1.113.532 2.09 1.596 2.932.1.717 0 1.385-.297 2.004-.198.396-.494.804-.89 1.224.767.198 1.583.062 2.449-.408a5.288 5.288 0 0 0 1.781-1.447c.817.198 1.645.297 2.486.297zm.965-4.602a.933.933 0 0 1-.278.687.911.911 0 0 1-.668.278.911.911 0 0 1-.668-.278.911.911 0 0 1-.278-.668c0-.26.093-.489.278-.687a.884.884 0 0 1 .668-.297c.26 0 .482.1.668.297.186.198.278.42.278.668zm3.303 0a.933.933 0 0 1-.278.687.911.911 0 0 1-.668.278.911.911 0 0 1-.668-.278.911.911 0 0 1-.279-.668c0-.26.093-.489.279-.687a.884.884 0 0 1 .668-.297c.26 0 .482.1.668.297.185.198.278.42.278.668zm-6.605 0a.933.933 0 0 1-.279.687.911.911 0 0 1-.668.278.911.911 0 0 1-.668-.278.911.911 0 0 1-.278-.668c0-.26.093-.489.278-.687a.884.884 0 0 1 .668-.297c.26 0 .483.1.668.297.186.198.279.42.279.668z"/>
</svg>
