<svg xmlns="http://www.w3.org/2000/svg" width="20" height="16" viewBox="0 0 20 16">
    <path fill="#12100E" fill-rule="evenodd" d="M17.372 3.983c.025.099.037.26.037.482 0 1.782-.433 3.501-1.298 5.159-.891 1.756-2.14 3.154-3.748 4.193-1.757 1.163-3.773 1.744-6.05 1.744-2.176 0-4.168-.581-5.974-1.744.272.025.581.037.928.037 1.806 0 3.426-.557 4.861-1.67-.866 0-1.626-.253-2.282-.76A3.875 3.875 0 0 1 2.49 9.511c.248.025.483.037.706.037.346 0 .692-.037 1.039-.11a3.926 3.926 0 0 1-2.227-1.374 3.736 3.736 0 0 1-.89-2.45v-.073a3.668 3.668 0 0 0 1.744.52A4.323 4.323 0 0 1 1.6 4.65a3.743 3.743 0 0 1-.483-1.874c0-.68.186-1.33.557-1.948a10.745 10.745 0 0 0 3.544 2.894 10.786 10.786 0 0 0 4.472 1.188 5.409 5.409 0 0 1-.075-.89c0-.694.174-1.343.52-1.95a3.814 3.814 0 0 1 1.41-1.428 3.764 3.764 0 0 1 1.93-.52c.569 0 1.095.112 1.577.335.482.222.91.52 1.28.89A7.928 7.928 0 0 0 18.82.421c-.297.915-.866 1.632-1.708 2.152a8.37 8.37 0 0 0 2.227-.631 8.565 8.565 0 0 1-1.967 2.041z"/>
</svg>
