<svg xmlns="http://www.w3.org/2000/svg" width="1920" height="184" viewBox="0 0 1200 264" preserveAspectRatio="none">
    <defs>
        <linearGradient id="a" x1="40.854%" x2="40.854%" y1="-4.078%" y2="100%">
            <stop offset="0%" stop-color="#00A5BA"/>
            <stop offset="63.724%" stop-color="#F7C604"/>
            <stop offset="100%" stop-color="#F00"/>
        </linearGradient>
    </defs>
    <g fill="none" fill-rule="evenodd" stroke="url(#a)" stroke-linecap="square">
        <path stroke-width="1.7" d="M0 .5l7.513 1.387 5.008 1.766 3.481 1.62 2.63 1.436L20.91 8.07l2.029 1.337 1.853 1.313 1.753 1.3 1.628 1.301 1.552 1.276 1.478 1.289 1.427 1.264 1.377 1.276 1.328 1.264 1.277 1.263 1.252 1.264 1.202 1.252 1.202 1.264 1.152 1.251 1.127 1.252 1.102 1.251 1.077 1.252 1.076 1.252 1.027 1.251 1.027 1.24 1.027 1.25.976 1.24 1.002 1.252.952 1.24.951 1.238.952 1.252.926 1.24.927 1.239.901 1.239.902 1.24.876 1.238.877 1.24L60 49.63l.877 1.24.851 1.239.852 1.239.826 1.24.827 1.226.826 1.24.826 1.239.827 1.24.801 1.226.801 1.24.802 1.239.801 1.227.776 1.239.777 1.24.776 1.226.776 1.24.777 1.227.776 1.239.751 1.227.752 1.24.75 1.226.752 1.24.751 1.227.752 1.227.75 1.239.727 1.227.726 1.24.752 1.226.726 1.227.726 1.24.726 1.227.727 1.227.7 1.239.727 1.227.726 1.227.701 1.227.727 1.24.7 1.226.702 1.227.726 1.227.701 1.24.702 1.227.7 1.227.702 1.227.701 1.227.701 1.227.702 1.239.7 1.227.677 1.227.701 1.227.701 1.227.701 1.227.677 1.227.7 1.227.702 1.227.676 1.227.701 1.24.676 1.227.702 1.227.676 1.227.7 1.227.677 1.227.701 1.227.701 1.227.677 1.227.7 1.227.677 1.227.701 1.227.676 1.214.701 1.227.677 1.228.7 1.227.702 1.227.676 1.227.701 1.227.701 1.227.677 1.227.7 1.227.702 1.214.701 1.227.701 1.227.701 1.227.702 1.228.7 1.227.702 1.214.701 1.227.701 1.227.702 1.227.726 1.227.701 1.215.726 1.227.701 1.227.727 1.227.7 1.215.727 1.227.726 1.227.727 1.215.726 1.227.726 1.227.726 1.215.751 1.227.727 1.227.751 1.214.726 1.227.751 1.215.752 1.227.751 1.227.751 1.215.777 1.227.75 1.215.777 1.227.751 1.214.777 1.227.776 1.215.776 1.227.802 1.215.776 1.215.801 1.227.802 1.215.801 1.227.827 1.214.8 1.215.827 1.227.827 1.215.826 1.215.851 1.214.852 1.227.851 1.215.852 1.215.851 1.215.877 1.214.901 1.215.877 1.215.901 1.215.902 1.214.926 1.215.927 1.215.926 1.215.952 1.214.952 1.215.976 1.215.977 1.202.977 1.215 1.026 1.215 1.002 1.202 1.052 1.215 1.027 1.203 1.076 1.214 1.077 1.203 1.102 1.202 1.127 1.203 1.152 1.215 1.152 1.202 1.177 1.203 1.227 1.19 1.227 1.202 1.277 1.203 1.302 1.19 1.328 1.19 1.377 1.19 1.402 1.19 1.453 1.19 1.527 1.179 1.553 1.19 1.628 1.166 1.703 1.178 1.778 1.165 1.878 1.154 1.978 1.153 2.129 1.141 2.279 1.117 2.479 1.104 2.78 1.08 3.155 1.03 3.756.958 4.808.81 5.009.343 5.008-.172 5.009-.662 5.008-1.142 5.009-1.631 3.781-1.534 3.03-1.411 2.63-1.35 2.379-1.337 2.203-1.301 2.054-1.3 1.953-1.29 1.853-1.288 1.778-1.276 1.703-1.263 1.628-1.277 1.603-1.263 1.552-1.252 1.503-1.264 1.477-1.251 1.428-1.264 1.402-1.252 1.377-1.251 1.328-1.24 1.327-1.251 1.302-1.252 1.277-1.239 1.277-1.252 1.227-1.239 1.227-1.24 1.228-1.25 1.177-1.24 1.177-1.24 1.177-1.239 1.151-1.239 1.152-1.24 1.127-1.238 1.127-1.24 1.102-1.24 1.127-1.226 1.077-1.24 1.102-1.239 1.077-1.239 1.076-1.227 1.052-1.24 1.077-1.226 1.052-1.24 1.026-1.227 1.052-1.239 1.027-1.227 1.052-1.24 1.026-1.226 1.002-1.24 1.027-1.227 1.027-1.227 1.001-1.239 1.002-1.227 1.002-1.227 1.001-1.24 1.002-1.226 1.002-1.227 1.001-1.227.977-1.227 1.002-1.24 1.002-1.227.976-1.227.977-1.227 1.002-1.227.976-1.227.977-1.227 1.002-1.227.976-1.227.977-1.227 1.002-1.227.976-1.227.977-1.227.976-1.227 1.002-1.227.977-1.227 1.002-1.227.976-1.215 1.002-1.227.976-1.227 1.002-1.227 1.002-1.227 1.002-1.215 1.001-1.227 1.002-1.227 1.002-1.227 1.001-1.214 1.027-1.227 1.002-1.227 1.027-1.215 1.026-1.227 1.027-1.215 1.027-1.227 1.026-1.215 1.052-1.227 1.052-1.215 1.052-1.227 1.052-1.214 1.051-1.227 1.077-1.215 1.077-1.227 1.077-1.215 1.102-1.215 1.102-1.214 1.101-1.227 1.102-1.215 1.127-1.215 1.127-1.215 1.152-1.214 1.152-1.215 1.177-1.215 1.152-1.215 1.202-1.214 1.202-1.215 1.202-1.215 1.227-1.215 1.252-1.214 1.252-1.215 1.277-1.203 1.278-1.214 1.302-1.203 1.327-1.215 1.352-1.202 1.378-1.203 1.402-1.214 1.402-1.203 1.453-1.202 1.477-1.203 1.503-1.202 1.553-1.19 1.577-1.203 1.628-1.19 1.653-1.19 1.703-1.19 1.778-1.19 1.803-1.191 1.903-1.178 1.953-1.178 2.029-1.166 2.153-1.165 2.254-1.166 2.38-1.153 2.528-1.141 2.73-1.117 2.98-1.117 3.306-1.08 3.756-1.042 4.407-.97 5.009-.773 5.008-.417 5.009-.074 5.008.27 5.009.602 5.008.92 5.009 1.24 4.958 1.52 4.007 1.436 3.43 1.362 3.056 1.338 2.83 1.313 2.629 1.3 2.504 1.289 2.38 1.276 2.278 1.276 2.179 1.276 2.128 1.264 2.054 1.251 1.978 1.264 1.954 1.252 1.903 1.251 1.878 1.252 1.828 1.252 1.803 1.251 1.753 1.24 1.753 1.25 1.703 1.24 1.703 1.24 1.678 1.239 1.652 1.251 1.628 1.227 1.628 1.24 1.603 1.239 1.602 1.24 1.578 1.239 1.578 1.227 1.552 1.239 1.553 1.227 1.552 1.24 1.553 1.226 1.528 1.227 1.527 1.24 1.528 1.227 1.502 1.227 1.528 1.227 1.502 1.239 1.528 1.227 1.503 1.227 1.502 1.227 1.528 1.227 1.502 1.215 1.528 1.227 1.502 1.227 1.528 1.227 1.503 1.227 1.527 1.215 1.553 1.227 1.527 1.214 1.553 1.227 1.528 1.227 1.577 1.215 1.553 1.215 1.577 1.227 1.603 1.215 1.578 1.214 1.628 1.227 1.602 1.215 1.653 1.215 1.653 1.215 1.653 1.214 1.703 1.215 1.702 1.203 1.728 1.214 1.728 1.215 1.778 1.203 1.803 1.214 1.828 1.203 1.854 1.215 1.878 1.202 1.928 1.203 1.953 1.202 2.004 1.19 2.053 1.203 2.079 1.202 2.153 1.19 2.23 1.19 2.278 1.19 2.354 1.179 2.429 1.178 2.53 1.178 2.654 1.178 2.78 1.153 2.93 1.166 3.105 1.14 3.305 1.13 3.606 1.129 3.932 1.092 4.432 1.055 5.009.994 5.008.773 5.009.54 5.008.331 5.009.098 5.008-.098 5.009-.307 5.008-.515 5.009-.7 5.008-.895 5.009-1.068 5.008-1.227 4.984-1.386 4.432-1.35 4.007-1.313 3.756-1.3 3.531-1.289 3.356-1.276 3.205-1.276 3.13-1.264 3.03-1.264 2.93-1.251 2.88-1.252 2.83-1.252 2.78-1.239 2.73-1.24 2.704-1.238 2.655-1.24 2.654-1.239 2.63-1.24 2.629-1.226 2.604-1.227 2.58-1.227 2.604-1.227 2.58-1.227 2.604-1.227 2.604-1.227 2.63-1.215 2.63-1.215 2.629-1.227 2.68-1.215 2.679-1.214 2.73-1.203 2.754-1.215 2.805-1.202 2.83-1.215 2.88-1.202 2.954-1.203 3.005-1.19 3.08-1.203 3.156-1.19 3.255-1.19 3.381-1.178 3.481-1.178 3.631-1.178 3.807-1.166 4.031-1.153 4.258-1.141 4.557-1.129 4.934-1.116 5.008-1.007 5.009-.87 5.008-.762 5.009-.625 5.008-.491 5.008-.38 5.009-.258 5.008-.135 5.009-.012 5.008.085 5.009.209 5.008.307 5.009.405 5.008.503 5.009.589 5.008.675 5.009.748 5.008.822 5.008.884 5.009.944 5.008.994 5.009 1.031 5.008 1.068 5.009 1.104 5.008 1.129 5.009 1.129 5.008 1.153 5.009 1.153 5.008 1.154 5.009 1.129 5.008 1.129 5.009 1.104 5.008 1.08 5.008 1.055 5.009 1.006 5.008.982 5.009.932 5.008.884 5.009.846 5.008.786 5.009.723 5.008.688 5.009.613 5.008.565 5.009.503 5.008.441 5.009.393 5.008.32 5.008.269 5.009.22 5.008.148 5.009.11 5.008.05h5.009l5.008-.05 5.009-.098 5.008-.135 5.009-.171 5.008-.209 5.009-.245 5.008-.283 5.009-.294 5.008-.331 5.008-.344 5.009-.368 5.008-.38 5.009-.38 5.008-.406 5.009-.405 5.008-.405 5.009-.404 5.008-.393 5.009-.405 5.008-.38 5.009-.38 5.008-.369 5.008-.343 5.009-.344 5.008-.32 5.009-.294 5.008-.282 5.009-.27 5.008-.233 5.009-.22 5.008-.21 5.009-.171 5.008-.16 5.009-.135 5.008-.122 5.009-.098 5.008-.074 5.008-.061 5.009-.037 5.008-.025 5.009-.012h5.008l5.009.025 5.008.024 5.009.037 5.008.049 5.009.061 5.008.062 5.009.061 5.008.074 5.009.073 5.008.086 5.008.074 5.009.073 5.008.074 5.009.074 5.008.073 5.009.074 5.008.061 5.009.062 5.008.049 5.009.049 5.008.049 5.009.037 5.008.024 5.008.037 5.009.025 5.008.012 5.009.012 5.008.012 5.009.013h30.051l5.008.012h10.017l5.008.012 5.009.012 5.008.013 5.009.024 5.008.025 5.009.037 5.008.024 5.009.05 5.008.036 5.009.061 5.008.05 5.009.06 5.008.062 5.009.074 5.008.073"/>
        <g stroke-width="1.4">
            <path d="M16 .5l7.513 1.387 5.008 1.766 3.481 1.62 2.63 1.436L36.91 8.07l2.029 1.337 1.853 1.313 1.753 1.3 1.628 1.301 1.552 1.276 1.478 1.289 1.427 1.264 1.377 1.276 1.328 1.264 1.277 1.263 1.252 1.264 1.202 1.252 1.202 1.264 1.152 1.251 1.127 1.252 1.102 1.251 1.077 1.252 1.076 1.252 1.027 1.251 1.027 1.24 1.027 1.25.976 1.24 1.002 1.252.952 1.24.951 1.238.952 1.252.926 1.24.927 1.239.901 1.239.902 1.24.876 1.238.877 1.24L76 49.63l.877 1.24.851 1.239.852 1.239.826 1.24.827 1.226.826 1.24.826 1.239.827 1.24.801 1.226.801 1.24.802 1.239.801 1.227.776 1.239.777 1.24.776 1.226.776 1.24.777 1.227.776 1.239.751 1.227.752 1.24.75 1.226.752 1.24.751 1.227.752 1.227.75 1.239.727 1.227.726 1.24.752 1.226.726 1.227.726 1.24.726 1.227.727 1.227.7 1.239.727 1.227.726 1.227.701 1.227.727 1.24.7 1.226.702 1.227.726 1.227.701 1.24.702 1.227.7 1.227.702 1.227.701 1.227.701 1.227.702 1.239.7 1.227.677 1.227.701 1.227.701 1.227.701 1.227.677 1.227.7 1.227.702 1.227.676 1.227.701 1.24.676 1.227.702 1.227.676 1.227.7 1.227.677 1.227.701 1.227.701 1.227.677 1.227.7 1.227.677 1.227.701 1.227.676 1.214.701 1.227.677 1.228.7 1.227.702 1.227.676 1.227.701 1.227.701 1.227.677 1.227.7 1.227.702 1.214.701 1.227.701 1.227.701 1.227.702 1.228.7 1.227.702 1.214.701 1.227.701 1.227.702 1.227.726 1.227.701 1.215.726 1.227.701 1.227.727 1.227.7 1.215.727 1.227.726 1.227.727 1.215.726 1.227.726 1.227.726 1.215.751 1.227.727 1.227.751 1.214.726 1.227.751 1.215.752 1.227.751 1.227.751 1.215.777 1.227.75 1.215.777 1.227.751 1.214.777 1.227.776 1.215.776 1.227.802 1.215.776 1.215.801 1.227.802 1.215.801 1.227.827 1.214.8 1.215.827 1.227.827 1.215.826 1.215.851 1.214.852 1.227.851 1.215.852 1.215.851 1.215.877 1.214.901 1.215.877 1.215.901 1.215.902 1.214.926 1.215.927 1.215.926 1.215.952 1.214.952 1.215.976 1.215.977 1.202.977 1.215 1.026 1.215 1.002 1.202 1.052 1.215 1.027 1.203 1.076 1.214 1.077 1.203 1.102 1.202 1.127 1.203 1.152 1.215 1.152 1.202 1.177 1.203 1.227 1.19 1.227 1.202 1.277 1.203 1.302 1.19 1.328 1.19 1.377 1.19 1.402 1.19 1.453 1.19 1.527 1.179 1.553 1.19 1.628 1.166 1.703 1.178 1.778 1.165 1.878 1.154 1.978 1.153 2.129 1.141 2.279 1.117 2.479 1.104 2.78 1.08 3.155 1.03 3.756.958 4.808.81 5.009.343 5.008-.172 5.009-.662 5.008-1.142 5.009-1.631 3.781-1.534 3.03-1.411 2.63-1.35 2.379-1.337 2.203-1.301 2.054-1.3 1.953-1.29 1.853-1.288 1.778-1.276 1.703-1.263 1.628-1.277 1.603-1.263 1.552-1.252 1.503-1.264 1.477-1.251 1.428-1.264 1.402-1.252 1.377-1.251 1.328-1.24 1.327-1.251 1.302-1.252 1.277-1.239 1.277-1.252 1.227-1.239 1.227-1.24 1.228-1.25 1.177-1.24 1.177-1.24 1.177-1.239 1.151-1.239 1.152-1.24 1.127-1.238 1.127-1.24 1.102-1.24 1.127-1.226 1.077-1.24 1.102-1.239 1.077-1.239 1.076-1.227 1.052-1.24 1.077-1.226 1.052-1.24 1.026-1.227 1.052-1.239 1.027-1.227 1.052-1.24 1.026-1.226 1.002-1.24 1.027-1.227 1.027-1.227 1.001-1.239 1.002-1.227 1.002-1.227 1.001-1.24 1.002-1.226 1.002-1.227 1.001-1.227.977-1.227 1.002-1.24 1.002-1.227.976-1.227.977-1.227 1.002-1.227.976-1.227.977-1.227 1.002-1.227.976-1.227.977-1.227 1.002-1.227.976-1.227.977-1.227.976-1.227 1.002-1.227.977-1.227 1.002-1.227.976-1.215 1.002-1.227.976-1.227 1.002-1.227 1.002-1.227 1.002-1.215 1.001-1.227 1.002-1.227 1.002-1.227 1.001-1.214 1.027-1.227 1.002-1.227 1.027-1.215 1.026-1.227 1.027-1.215 1.027-1.227 1.026-1.215 1.052-1.227 1.052-1.215 1.052-1.227 1.052-1.214 1.051-1.227 1.077-1.215 1.077-1.227 1.077-1.215 1.102-1.215 1.102-1.214 1.101-1.227 1.102-1.215 1.127-1.215 1.127-1.215 1.152-1.214 1.152-1.215 1.177-1.215 1.152-1.215 1.202-1.214 1.202-1.215 1.202-1.215 1.227-1.215 1.252-1.214 1.252-1.215 1.277-1.203 1.278-1.214 1.302-1.203 1.327-1.215 1.352-1.202 1.378-1.203 1.402-1.214 1.402-1.203 1.453-1.202 1.477-1.203 1.503-1.202 1.553-1.19 1.577-1.203 1.628-1.19 1.653-1.19 1.703-1.19 1.778-1.19 1.803-1.191 1.903-1.178 1.953-1.178 2.029-1.166 2.153-1.165 2.254-1.166 2.38-1.153 2.528-1.141 2.73-1.117 2.98-1.117 3.306-1.08 3.756-1.042 4.407-.97 5.009-.773 5.008-.417 5.009-.074 5.008.27 5.009.602 5.008.92 5.009 1.24 4.958 1.52 4.007 1.436 3.43 1.362 3.056 1.338 2.83 1.313 2.629 1.3 2.504 1.289 2.38 1.276 2.278 1.276 2.179 1.276 2.128 1.264 2.054 1.251 1.978 1.264 1.954 1.252 1.903 1.251 1.878 1.252 1.828 1.252 1.803 1.251 1.753 1.24 1.753 1.25 1.703 1.24 1.703 1.24 1.678 1.239 1.652 1.251 1.628 1.227 1.628 1.24 1.603 1.239 1.602 1.24 1.578 1.239 1.578 1.227 1.552 1.239 1.553 1.227 1.552 1.24 1.553 1.226 1.528 1.227 1.527 1.24 1.528 1.227 1.502 1.227 1.528 1.227 1.502 1.239 1.528 1.227 1.503 1.227 1.502 1.227 1.528 1.227 1.502 1.215 1.528 1.227 1.502 1.227 1.528 1.227 1.503 1.227 1.527 1.215 1.553 1.227 1.527 1.214 1.553 1.227 1.528 1.227 1.577 1.215 1.553 1.215 1.577 1.227 1.603 1.215 1.578 1.214 1.628 1.227 1.602 1.215 1.653 1.215 1.653 1.215 1.653 1.214 1.703 1.215 1.702 1.203 1.728 1.214 1.728 1.215 1.778 1.203 1.803 1.214 1.828 1.203 1.854 1.215 1.878 1.202 1.928 1.203 1.953 1.202 2.004 1.19 2.053 1.203 2.079 1.202 2.153 1.19 2.23 1.19 2.278 1.19 2.354 1.179 2.429 1.178 2.53 1.178 2.654 1.178 2.78 1.153 2.93 1.166 3.105 1.14 3.305 1.13 3.606 1.129 3.932 1.092 4.432 1.055 5.009.994 5.008.773 5.009.54 5.008.331 5.009.098 5.008-.098 5.009-.307 5.008-.515 5.009-.7 5.008-.895 5.009-1.068 5.008-1.227 4.984-1.386 4.432-1.35 4.007-1.313 3.756-1.3 3.531-1.289 3.356-1.276 3.205-1.276 3.13-1.264 3.03-1.264 2.93-1.251 2.88-1.252 2.83-1.252 2.78-1.239 2.73-1.24 2.704-1.238 2.655-1.24 2.654-1.239 2.63-1.24 2.629-1.226 2.604-1.227 2.58-1.227 2.604-1.227 2.58-1.227 2.604-1.227 2.604-1.227 2.63-1.215 2.63-1.215 2.629-1.227 2.68-1.215 2.679-1.214 2.73-1.203 2.754-1.215 2.805-1.202 2.83-1.215 2.88-1.202 2.954-1.203 3.005-1.19 3.08-1.203 3.156-1.19 3.255-1.19 3.381-1.178 3.481-1.178 3.631-1.178 3.807-1.166 4.031-1.153 4.258-1.141 4.557-1.129 4.934-1.116 5.008-1.007 5.009-.87 5.008-.762 5.009-.625 5.008-.491 5.008-.38 5.009-.258 5.008-.135 5.009-.012 5.008.085 5.009.209 5.008.307 5.009.405 5.008.503 5.009.589 5.008.675 5.009.748 5.008.822 5.008.884 5.009.944 5.008.994 5.009 1.031 5.008 1.068 5.009 1.104 5.008 1.129 5.009 1.129 5.008 1.153 5.009 1.153 5.008 1.154 5.009 1.129 5.008 1.129 5.009 1.104 5.008 1.08 5.008 1.055 5.009 1.006 5.008.982 5.009.932 5.008.884 5.009.846 5.008.786 5.009.723 5.008.688 5.009.613 5.008.565 5.009.503 5.008.441 5.009.393 5.008.32 5.008.269 5.009.22 5.008.148 5.009.11 5.008.05h5.009l5.008-.05 5.009-.098 5.008-.135 5.009-.171 5.008-.209 5.009-.245 5.008-.283 5.009-.294 5.008-.331 5.008-.344 5.009-.368 5.008-.38 5.009-.38 5.008-.406 5.009-.405 5.008-.405 5.009-.404 5.008-.393 5.009-.405 5.008-.38 5.009-.38 5.008-.369 5.008-.343 5.009-.344 5.008-.32 5.009-.294 5.008-.282 5.009-.27 5.008-.233 5.009-.22 5.008-.21 5.009-.171 5.008-.16 5.009-.135 5.008-.122 5.009-.098 5.008-.074 5.008-.061 5.009-.037 5.008-.025 5.009-.012h5.008l5.009.025 5.008.024 5.009.037 5.008.049 5.009.061 5.008.062 5.009.061 5.008.074 5.009.073 5.008.086 5.008.074 5.009.073 5.008.074 5.009.074 5.008.073 5.009.074 5.008.061 5.009.062 5.008.049 5.009.049 5.008.049 5.009.037 5.008.024 5.008.037 5.009.025 5.008.012 5.009.012 5.008.012 5.009.013h30.051l5.008.012h10.017l5.008.012 5.009.012 5.008.013 5.009.024 5.008.025 5.009.037 5.008.024 5.009.05 5.008.036 5.009.061 5.008.05 5.009.06 5.008.062 5.009.074 5.008.073M15 .5L7.487 1.887 2.48 3.653l-3.481 1.62-2.63 1.436L-5.91 8.07-7.94 9.408l-1.853 1.313-1.753 1.3-1.628 1.301-1.552 1.276-1.478 1.289-1.427 1.264-1.377 1.276-1.328 1.264-1.277 1.263-1.252 1.264-1.202 1.252-1.202 1.264-1.152 1.251-1.127 1.252-1.102 1.251-1.077 1.252-1.076 1.252-1.027 1.251-1.027 1.24-1.027 1.25-.976 1.24-1.002 1.252-.952 1.24-.951 1.238-.952 1.252-.926 1.24-.927 1.239-.901 1.239-.902 1.24-.876 1.238-.877 1.24L-45 49.63l-.877 1.24-.851 1.239-.852 1.239-.826 1.24-.827 1.226-.826 1.24-.826 1.239-.827 1.24-.801 1.226-.801 1.24-.802 1.239-.801 1.227-.776 1.239-.777 1.24-.776 1.226-.776 1.24-.777 1.227-.776 1.239-.751 1.227-.752 1.24-.75 1.226-.752 1.24-.751 1.227-.752 1.227-.75 1.239-.727 1.227-.726 1.24-.752 1.226-.726 1.227-.726 1.24-.726 1.227-.727 1.227-.7 1.239-.727 1.227-.726 1.227-.701 1.227-.727 1.24-.7 1.226-.702 1.227-.726 1.227-.701 1.24-.702 1.227-.7 1.227-.702 1.227-.701 1.227-.701 1.227-.702 1.239-.7 1.227-.677 1.227-.701 1.227-.701 1.227-.701 1.227-.677 1.227-.7 1.227-.702 1.227-.676 1.227-.701 1.24-.676 1.227-.702 1.227-.676 1.227-.7 1.227-.677 1.227-.701 1.227-.701 1.227-.677 1.227-.7 1.227-.677 1.227-.701 1.227-.676 1.214-.701 1.227-.677 1.228-.7 1.227-.702 1.227-.676 1.227-.701 1.227-.701 1.227-.677 1.227-.7 1.227-.702 1.214-.701 1.227-.701 1.227-.701 1.227-.702 1.228-.7 1.227-.702 1.214-.701 1.227-.701 1.227-.702 1.227-.726 1.227-.701 1.215-.726 1.227-.701 1.227-.727 1.227-.7 1.215-.727 1.227-.726 1.227-.727 1.215-.726 1.227-.726 1.227-.726 1.215-.751 1.227-.727 1.227-.751 1.214-.726 1.227-.751 1.215-.752 1.227-.751 1.227-.751 1.215-.777 1.227-.75 1.215-.777 1.227-.751 1.214-.777 1.227-.776 1.215-.776 1.227-.802 1.215-.776 1.215-.801 1.227-.802 1.215-.801 1.227-.827 1.214-.8 1.215-.827 1.227-.827 1.215-.826 1.215-.851 1.214-.852 1.227-.851 1.215-.852 1.215-.851 1.215-.877 1.214-.901 1.215-.877 1.215-.901 1.215-.902 1.214-.926 1.215-.927 1.215-.926 1.215-.952 1.214-.952 1.215-.976 1.215-.977 1.202-.977 1.215-1.026 1.215-1.002 1.202-1.052 1.215-1.027 1.203-1.076 1.214-1.077 1.203-1.102 1.202-1.127 1.203-1.152 1.215-1.152 1.202-1.177 1.203-1.227 1.19-1.227 1.202-1.277 1.203-1.302 1.19-1.328 1.19-1.377 1.19-1.402 1.19-1.453 1.19-1.527 1.179-1.553 1.19-1.628 1.166-1.703 1.178-1.778 1.165-1.878 1.154-1.978 1.153-2.129 1.141-2.279 1.117-2.479 1.104-2.78 1.08-3.155 1.03-3.756.958-4.808.81-5.009.343-5.008-.172-5.009-.662-5.008-1.142-5.009-1.631-3.781-1.534-3.03-1.411-2.63-1.35-2.379-1.337-2.203-1.301-2.054-1.3-1.953-1.29-1.853-1.288-1.778-1.276-1.703-1.263-1.628-1.277-1.603-1.263-1.552-1.252-1.503-1.264-1.477-1.251-1.428-1.264-1.402-1.252-1.377-1.251-1.328-1.24-1.327-1.251-1.302-1.252-1.277-1.239-1.277-1.252-1.227-1.239-1.227-1.24-1.228-1.25-1.177-1.24-1.177-1.24-1.177-1.239-1.151-1.239-1.152-1.24-1.127-1.238-1.127-1.24-1.102-1.24-1.127-1.226-1.077-1.24-1.102-1.239-1.077-1.239-1.076-1.227-1.052-1.24-1.077-1.226-1.052-1.24-1.026-1.227-1.052-1.239-1.027-1.227-1.052-1.24-1.026-1.226-1.002-1.24-1.027-1.227-1.027-1.227-1.001-1.239-1.002-1.227-1.002-1.227-1.001-1.24-1.002-1.226-1.002-1.227-1.001-1.227-.977-1.227-1.002-1.24-1.002-1.227-.976-1.227-.977-1.227-1.002-1.227-.976-1.227-.977-1.227-1.002-1.227-.976-1.227-.977-1.227-1.002-1.227-.976-1.227-.977-1.227-.976-1.227-1.002-1.227-.977-1.227-1.001-1.227-.977-1.215-1.002-1.227-.976-1.227-1.002-1.227-1.002-1.227-1.002-1.215-1.001-1.227-1.002-1.227-1.002-1.227-1.001-1.214-1.027-1.227-1.002-1.227-1.027-1.215-1.026-1.227-1.027-1.215-1.027-1.227-1.026-1.215-1.052-1.227-1.052-1.215-1.052-1.227-1.052-1.214-1.051-1.227-1.077-1.215-1.077-1.227-1.077-1.215-1.102-1.215-1.102-1.214-1.101-1.227-1.102-1.215-1.127-1.215-1.127-1.215-1.152-1.214-1.152-1.215-1.177-1.215-1.152-1.215-1.202-1.214-1.202-1.215-1.202-1.215-1.227-1.215-1.252-1.214-1.252-1.215-1.277-1.203-1.278-1.214-1.302-1.203-1.327-1.215-1.352-1.202-1.378-1.203-1.402-1.214-1.402-1.203-1.453-1.202-1.477-1.203-1.503-1.202-1.553-1.19-1.577-1.203-1.628-1.19-1.653-1.19-1.703-1.19-1.778-1.19-1.803-1.191-1.903-1.178-1.953-1.178-2.029-1.166-2.153-1.165-2.254-1.166-2.38-1.153-2.528-1.141-2.73-1.117-2.98-1.117-3.306-1.08-3.756-1.042-4.407-.97-5.009-.773-5.008-.417-5.009-.074-5.008.27-5.009.602-5.008.92-5.009 1.24-4.958 1.52-4.007 1.436-3.43 1.362-3.056 1.338-2.83 1.313-2.629 1.3-2.504 1.289-2.38 1.276-2.278 1.276-2.179 1.276-2.128 1.264-2.054 1.251-1.978 1.264-1.953 1.252-1.904 1.251-1.878 1.252-1.828 1.252-1.803 1.251-1.753 1.24-1.753 1.25-1.703 1.24-1.703 1.24-1.678 1.239-1.652 1.251-1.628 1.227-1.628 1.24-1.603 1.239-1.602 1.24-1.578 1.239-1.578 1.227-1.552 1.239-1.553 1.227-1.552 1.24-1.553 1.226-1.528 1.227-1.527 1.24-1.528 1.227-1.502 1.227-1.528 1.227-1.502 1.239-1.528 1.227-1.503 1.227-1.502 1.227-1.528 1.227-1.502 1.215-1.528 1.227-1.502 1.227-1.528 1.227-1.503 1.227-1.527 1.215-1.553 1.227-1.527 1.214-1.553 1.227-1.528 1.227-1.577 1.215-1.553 1.215-1.577 1.227-1.603 1.215-1.578 1.214-1.628 1.227-1.602 1.215-1.653 1.215-1.653 1.215-1.653 1.214-1.703 1.215-1.702 1.203-1.728 1.214-1.728 1.215-1.778 1.203-1.803 1.214-1.828 1.203-1.854 1.215-1.878 1.202-1.928 1.203-1.953 1.202-2.004 1.19-2.053 1.203-2.079 1.202-2.153 1.19-2.23 1.19-2.278 1.19-2.354 1.179-2.429 1.178-2.53 1.178-2.654 1.178-2.78 1.153-2.93 1.166-3.105 1.14-3.305 1.13-3.606 1.129-3.932 1.092-4.432 1.055-5.009.994-5.008.773-5.009.54-5.008.331-5.009.098-5.008-.098-5.009-.307-5.008-.515-5.009-.7-5.008-.895-5.009-1.068-5.008-1.227-4.983-1.386-4.433-1.35-4.007-1.313-3.756-1.3-3.531-1.289-3.356-1.276-3.205-1.276-3.13-1.264-3.03-1.264-2.93-1.251-2.88-1.252-2.83-1.252-2.78-1.239-2.73-1.24-2.704-1.238-2.655-1.24-2.654-1.239-2.63-1.24-2.629-1.226-2.604-1.227-2.58-1.227-2.604-1.227-2.58-1.227-2.604-1.227-2.604-1.227-2.63-1.215-2.63-1.215-2.629-1.227-2.68-1.215-2.679-1.214-2.73-1.203-2.754-1.215-2.805-1.202-2.83-1.215-2.88-1.202-2.954-1.203-3.005-1.19-3.08-1.203-3.156-1.19-3.255-1.19-3.381-1.178-3.481-1.178-3.631-1.178-3.807-1.166-4.031-1.153-4.258-1.141-4.557-1.129-4.934-1.116-5.008-1.007-5.009-.87-5.008-.762-5.009-.625-5.008-.491-5.008-.38-5.009-.258-5.008-.135-5.009-.012-5.008.085-5.009.209-5.008.307-5.009.405-5.008.503-5.009.589-5.008.675-5.009.748-5.008.822-5.008.884-5.009.944-5.008.994-5.009 1.031-5.008 1.068-5.009 1.104-5.008 1.129-5.009 1.129-5.008 1.153-5.009 1.153-5.008 1.154-5.009 1.129-5.008 1.129-5.009 1.104-5.008 1.08-5.008 1.055-5.009 1.006-5.008.982-5.009.932-5.008.884-5.009.846-5.008.786-5.009.723-5.008.688-5.009.613-5.008.565-5.009.503-5.008.441-5.009.393-5.008.32-5.008.269-5.009.22-5.008.148-5.009.11-5.008.05h-5.009l-5.008-.05-5.009-.098-5.008-.135-5.009-.171-5.008-.209-5.009-.245-5.008-.283-5.009-.294-5.008-.331-5.008-.344-5.009-.368-5.008-.38-5.009-.38-5.008-.406-5.009-.405-5.008-.405-5.009-.404-5.008-.393-5.009-.405-5.008-.38-5.009-.38-5.008-.369-5.008-.343-5.009-.344-5.008-.32-5.009-.294-5.008-.282-5.009-.27-5.008-.233-5.009-.22-5.008-.21-5.009-.171-5.008-.16-5.009-.135-5.008-.122-5.009-.098-5.008-.074-5.008-.061-5.009-.037-5.008-.025-5.009-.012h-5.008l-5.009.025-5.008.024-5.009.037-5.008.049-5.009.061-5.008.062-5.009.061-5.008.074-5.009.073-5.008.086-5.008.074-5.009.073-5.008.074-5.009.074-5.008.073-5.009.074-5.008.061-5.009.062-5.008.049-5.009.049-5.008.049-5.009.037-5.008.024-5.008.037-5.009.025-5.008.012-5.009.012-5.008.012-5.009.013h-30.051l-5.008.012h-10.017l-5.008.012-5.009.012-5.008.013-5.009.024-5.008.025-5.009.037-5.008.024-5.009.05-5.008.036-5.009.061-5.008.05-5.009.06-5.008.062-5.009.074-5.008.073"/>
        </g>
        <g stroke-width="1.1">
            <path d="M32 .5l7.513 1.387 5.008 1.766 3.481 1.62 2.63 1.436L52.91 8.07l2.029 1.337 1.853 1.313 1.753 1.3 1.628 1.301 1.552 1.276 1.478 1.289 1.427 1.264 1.377 1.276 1.328 1.264 1.277 1.263 1.252 1.264 1.202 1.252 1.202 1.264 1.152 1.251 1.127 1.252 1.102 1.251 1.077 1.252 1.076 1.252 1.027 1.251 1.027 1.24 1.027 1.25.976 1.24 1.002 1.252.952 1.24.951 1.238.952 1.252.926 1.24.927 1.239.901 1.239.902 1.24.876 1.238.877 1.24L92 49.63l.877 1.24.851 1.239.852 1.239.826 1.24.827 1.226.826 1.24.826 1.239.827 1.24.801 1.226.801 1.24.802 1.239.801 1.227.776 1.239.777 1.24.776 1.226.776 1.24.777 1.227.776 1.239.751 1.227.752 1.24.75 1.226.752 1.24.751 1.227.752 1.227.75 1.239.727 1.227.726 1.24.752 1.226.726 1.227.726 1.24.726 1.227.727 1.227.7 1.239.727 1.227.726 1.227.701 1.227.727 1.24.7 1.226.702 1.227.726 1.227.701 1.24.702 1.227.7 1.227.702 1.227.701 1.227.701 1.227.702 1.239.7 1.227.677 1.227.701 1.227.701 1.227.701 1.227.677 1.227.7 1.227.702 1.227.676 1.227.701 1.24.676 1.227.702 1.227.676 1.227.7 1.227.677 1.227.701 1.227.701 1.227.677 1.227.7 1.227.677 1.227.701 1.227.676 1.214.701 1.227.677 1.228.7 1.227.702 1.227.676 1.227.701 1.227.701 1.227.677 1.227.7 1.227.702 1.214.701 1.227.701 1.227.701 1.227.702 1.228.7 1.227.702 1.214.701 1.227.701 1.227.702 1.227.726 1.227.701 1.215.726 1.227.701 1.227.727 1.227.7 1.215.727 1.227.726 1.227.727 1.215.726 1.227.726 1.227.726 1.215.751 1.227.727 1.227.751 1.214.726 1.227.751 1.215.752 1.227.751 1.227.751 1.215.777 1.227.75 1.215.777 1.227.751 1.214.777 1.227.776 1.215.776 1.227.802 1.215.776 1.215.801 1.227.802 1.215.801 1.227.827 1.214.8 1.215.827 1.227.827 1.215.826 1.215.851 1.214.852 1.227.851 1.215.852 1.215.851 1.215.877 1.214.901 1.215.877 1.215.901 1.215.902 1.214.926 1.215.927 1.215.926 1.215.952 1.214.952 1.215.976 1.215.977 1.202.977 1.215 1.026 1.215 1.002 1.202 1.052 1.215 1.027 1.203 1.076 1.214 1.077 1.203 1.102 1.202 1.127 1.203 1.152 1.215 1.152 1.202 1.177 1.203 1.227 1.19 1.227 1.202 1.277 1.203 1.302 1.19 1.328 1.19 1.377 1.19 1.402 1.19 1.453 1.19 1.527 1.179 1.553 1.19 1.628 1.166 1.703 1.178 1.778 1.165 1.878 1.154 1.978 1.153 2.129 1.141 2.279 1.117 2.479 1.104 2.78 1.08 3.155 1.03 3.756.958 4.808.81 5.009.343 5.008-.172 5.009-.662 5.008-1.142 5.009-1.631 3.781-1.534 3.03-1.411 2.63-1.35 2.379-1.337 2.203-1.301 2.054-1.3 1.953-1.29 1.853-1.288 1.778-1.276 1.703-1.263 1.628-1.277 1.603-1.263 1.552-1.252 1.503-1.264 1.477-1.251 1.428-1.264 1.402-1.252 1.377-1.251 1.328-1.24 1.327-1.251 1.302-1.252 1.277-1.239 1.277-1.252 1.227-1.239 1.227-1.24 1.228-1.25 1.177-1.24 1.177-1.24 1.177-1.239 1.151-1.239 1.152-1.24 1.127-1.238 1.127-1.24 1.102-1.24 1.127-1.226 1.077-1.24 1.102-1.239 1.077-1.239 1.076-1.227 1.052-1.24 1.077-1.226 1.052-1.24 1.026-1.227 1.052-1.239 1.027-1.227 1.052-1.24 1.026-1.226 1.002-1.24 1.027-1.227 1.027-1.227 1.001-1.239 1.002-1.227 1.002-1.227 1.001-1.24 1.002-1.226 1.002-1.227 1.001-1.227.977-1.227 1.002-1.24 1.002-1.227.976-1.227.977-1.227 1.002-1.227.976-1.227.977-1.227 1.002-1.227.976-1.227.977-1.227 1.002-1.227.976-1.227.977-1.227.976-1.227 1.002-1.227.977-1.227 1.002-1.227.976-1.215 1.002-1.227.976-1.227 1.002-1.227 1.002-1.227 1.002-1.215 1.001-1.227 1.002-1.227 1.002-1.227 1.001-1.214 1.027-1.227 1.002-1.227 1.027-1.215 1.026-1.227 1.027-1.215 1.027-1.227 1.026-1.215 1.052-1.227 1.052-1.215 1.052-1.227 1.052-1.214 1.051-1.227 1.077-1.215 1.077-1.227 1.077-1.215 1.102-1.215 1.102-1.214 1.101-1.227 1.102-1.215 1.127-1.215 1.127-1.215 1.152-1.214 1.152-1.215 1.177-1.215 1.152-1.215 1.202-1.214 1.202-1.215 1.202-1.215 1.227-1.215 1.252-1.214 1.252-1.215 1.277-1.203 1.278-1.214 1.302-1.203 1.327-1.215 1.352-1.202 1.378-1.203 1.402-1.214 1.402-1.203 1.453-1.202 1.477-1.203 1.503-1.202 1.553-1.19 1.577-1.203 1.628-1.19 1.653-1.19 1.703-1.19 1.778-1.19 1.803-1.191 1.903-1.178 1.953-1.178 2.029-1.166 2.153-1.165 2.254-1.166 2.38-1.153 2.528-1.141 2.73-1.117 2.98-1.117 3.306-1.08 3.756-1.042 4.407-.97 5.009-.773 5.008-.417 5.009-.074 5.008.27 5.009.602 5.008.92 5.009 1.24 4.958 1.52 4.007 1.436 3.43 1.362 3.056 1.338 2.83 1.313 2.629 1.3 2.504 1.289 2.38 1.276 2.278 1.276 2.179 1.276 2.128 1.264 2.054 1.251 1.978 1.264 1.954 1.252 1.903 1.251 1.878 1.252 1.828 1.252 1.803 1.251 1.753 1.24 1.753 1.25 1.703 1.24 1.703 1.24 1.678 1.239 1.652 1.251 1.628 1.227 1.628 1.24 1.603 1.239 1.602 1.24 1.578 1.239 1.578 1.227 1.552 1.239 1.553 1.227 1.552 1.24 1.553 1.226 1.528 1.227 1.527 1.24 1.528 1.227 1.502 1.227 1.528 1.227 1.502 1.239 1.528 1.227 1.503 1.227 1.502 1.227 1.528 1.227 1.502 1.215 1.528 1.227 1.502 1.227 1.528 1.227 1.503 1.227 1.527 1.215 1.553 1.227 1.527 1.214 1.553 1.227 1.528 1.227 1.577 1.215 1.553 1.215 1.577 1.227 1.603 1.215 1.578 1.214 1.628 1.227 1.602 1.215 1.653 1.215 1.653 1.215 1.653 1.214 1.703 1.215 1.702 1.203 1.728 1.214 1.728 1.215 1.778 1.203 1.803 1.214 1.828 1.203 1.854 1.215 1.878 1.202 1.928 1.203 1.953 1.202 2.004 1.19 2.053 1.203 2.079 1.202 2.153 1.19 2.23 1.19 2.278 1.19 2.354 1.179 2.429 1.178 2.53 1.178 2.654 1.178 2.78 1.153 2.93 1.166 3.105 1.14 3.305 1.13 3.606 1.129 3.932 1.092 4.432 1.055 5.009.994 5.008.773 5.009.54 5.008.331 5.009.098 5.008-.098 5.009-.307 5.008-.515 5.009-.7 5.008-.895 5.009-1.068 5.008-1.227 4.984-1.386 4.432-1.35 4.007-1.313 3.756-1.3 3.531-1.289 3.356-1.276 3.205-1.276 3.13-1.264 3.03-1.264 2.93-1.251 2.88-1.252 2.83-1.252 2.78-1.239 2.73-1.24 2.704-1.238 2.655-1.24 2.654-1.239 2.63-1.24 2.629-1.226 2.604-1.227 2.58-1.227 2.604-1.227 2.58-1.227 2.604-1.227 2.604-1.227 2.63-1.215 2.63-1.215 2.629-1.227 2.68-1.215 2.679-1.214 2.73-1.203 2.754-1.215 2.805-1.202 2.83-1.215 2.88-1.202 2.954-1.203 3.005-1.19 3.08-1.203 3.156-1.19 3.255-1.19 3.381-1.178 3.481-1.178 3.631-1.178 3.807-1.166 4.031-1.153 4.258-1.141 4.557-1.129 4.934-1.116 5.008-1.007 5.009-.87 5.008-.762 5.009-.625 5.008-.491 5.008-.38 5.009-.258 5.008-.135 5.009-.012 5.008.085 5.009.209 5.008.307 5.009.405 5.008.503 5.009.589 5.008.675 5.009.748 5.008.822 5.008.884 5.009.944 5.008.994 5.009 1.031 5.008 1.068 5.009 1.104 5.008 1.129 5.009 1.129 5.008 1.153 5.009 1.153 5.008 1.154 5.009 1.129 5.008 1.129 5.009 1.104 5.008 1.08 5.008 1.055 5.009 1.006 5.008.982 5.009.932 5.008.884 5.009.846 5.008.786 5.009.723 5.008.688 5.009.613 5.008.565 5.009.503 5.008.441 5.009.393 5.008.32 5.008.269 5.009.22 5.008.148 5.009.11 5.008.05h5.009l5.008-.05 5.009-.098 5.008-.135 5.009-.171 5.008-.209 5.009-.245 5.008-.283 5.009-.294 5.008-.331 5.008-.344 5.009-.368 5.008-.38 5.009-.38 5.008-.406 5.009-.405 5.008-.405 5.009-.404 5.008-.393 5.009-.405 5.008-.38 5.009-.38 5.008-.369 5.008-.343 5.009-.344 5.008-.32 5.009-.294 5.008-.282 5.009-.27 5.008-.233 5.009-.22 5.008-.21 5.009-.171 5.008-.16 5.009-.135 5.008-.122 5.009-.098 5.008-.074 5.008-.061 5.009-.037 5.008-.025 5.009-.012h5.008l5.009.025 5.008.024 5.009.037 5.008.049 5.009.061 5.008.062 5.009.061 5.008.074 5.009.073 5.008.086 5.008.074 5.009.073 5.008.074 5.009.074 5.008.073 5.009.074 5.008.061 5.009.062 5.008.049 5.009.049 5.008.049 5.009.037 5.008.024 5.008.037 5.009.025 5.008.012 5.009.012 5.008.012 5.009.013h30.051l5.008.012h10.017l5.008.012 5.009.012 5.008.013 5.009.024 5.008.025 5.009.037 5.008.024 5.009.05 5.008.036 5.009.061 5.008.05 5.009.06 5.008.062 5.009.074 5.008.073M31 .5l-7.513 1.387-5.008 1.766-3.481 1.62-2.63 1.436L10.09 8.07 8.06 9.408l-1.853 1.313-1.753 1.3-1.628 1.301-1.552 1.276-1.478 1.289-1.427 1.264-1.377 1.276-1.328 1.264-1.277 1.263-1.252 1.264-1.202 1.252-1.202 1.264-1.152 1.251-1.127 1.252-1.102 1.251-1.077 1.252-1.076 1.252-1.027 1.251-1.027 1.24-1.027 1.25-.976 1.24-1.002 1.252-.952 1.24-.951 1.238-.952 1.252-.926 1.24-.927 1.239-.901 1.239-.902 1.24-.876 1.238-.877 1.24L-29 49.63l-.877 1.24-.851 1.239-.852 1.239-.826 1.24-.827 1.226-.826 1.24-.826 1.239-.827 1.24-.801 1.226-.801 1.24-.802 1.239-.801 1.227-.776 1.239-.777 1.24-.776 1.226-.776 1.24-.777 1.227-.776 1.239-.751 1.227-.752 1.24-.75 1.226-.752 1.24-.751 1.227-.752 1.227-.75 1.239-.727 1.227-.726 1.24-.752 1.226-.726 1.227-.726 1.24-.726 1.227-.727 1.227-.7 1.239-.727 1.227-.726 1.227-.701 1.227-.727 1.24-.7 1.226-.702 1.227-.726 1.227-.701 1.24-.702 1.227-.7 1.227-.702 1.227-.701 1.227-.701 1.227-.702 1.239-.7 1.227-.677 1.227-.701 1.227-.701 1.227-.701 1.227-.677 1.227-.7 1.227-.702 1.227-.676 1.227-.701 1.24-.676 1.227-.702 1.227-.676 1.227-.7 1.227-.677 1.227-.701 1.227-.701 1.227-.677 1.227-.7 1.227-.677 1.227-.701 1.227-.676 1.214-.701 1.227-.677 1.228-.7 1.227-.702 1.227-.676 1.227-.701 1.227-.701 1.227-.677 1.227-.7 1.227-.702 1.214-.701 1.227-.701 1.227-.701 1.227-.702 1.228-.7 1.227-.702 1.214-.701 1.227-.701 1.227-.702 1.227-.726 1.227-.701 1.215-.726 1.227-.701 1.227-.727 1.227-.7 1.215-.727 1.227-.726 1.227-.727 1.215-.726 1.227-.726 1.227-.726 1.215-.751 1.227-.727 1.227-.751 1.214-.726 1.227-.751 1.215-.752 1.227-.751 1.227-.751 1.215-.777 1.227-.75 1.215-.777 1.227-.751 1.214-.777 1.227-.776 1.215-.776 1.227-.802 1.215-.776 1.215-.801 1.227-.802 1.215-.801 1.227-.827 1.214-.8 1.215-.827 1.227-.827 1.215-.826 1.215-.851 1.214-.852 1.227-.851 1.215-.852 1.215-.851 1.215-.877 1.214-.901 1.215-.877 1.215-.901 1.215-.902 1.214-.926 1.215-.927 1.215-.926 1.215-.952 1.214-.952 1.215-.976 1.215-.977 1.202-.977 1.215-1.026 1.215-1.002 1.202-1.052 1.215-1.027 1.203-1.076 1.214-1.077 1.203-1.102 1.202-1.127 1.203-1.152 1.215-1.152 1.202-1.177 1.203-1.227 1.19-1.227 1.202-1.277 1.203-1.302 1.19-1.328 1.19-1.377 1.19-1.402 1.19-1.453 1.19-1.527 1.179-1.553 1.19-1.628 1.166-1.703 1.178-1.778 1.165-1.878 1.154-1.978 1.153-2.129 1.141-2.279 1.117-2.479 1.104-2.78 1.08-3.155 1.03-3.756.958-4.808.81-5.009.343-5.008-.172-5.009-.662-5.008-1.142-5.009-1.631-3.781-1.534-3.03-1.411-2.63-1.35-2.379-1.337-2.203-1.301-2.054-1.3-1.953-1.29-1.853-1.288-1.778-1.276-1.703-1.263-1.628-1.277-1.603-1.263-1.552-1.252-1.503-1.264-1.477-1.251-1.428-1.264-1.402-1.252-1.377-1.251-1.328-1.24-1.327-1.251-1.302-1.252-1.277-1.239-1.277-1.252-1.227-1.239-1.227-1.24-1.228-1.25-1.177-1.24-1.177-1.24-1.177-1.239-1.151-1.239-1.152-1.24-1.127-1.238-1.127-1.24-1.102-1.24-1.127-1.226-1.077-1.24-1.102-1.239-1.077-1.239-1.076-1.227-1.052-1.24-1.077-1.226-1.052-1.24-1.026-1.227-1.052-1.239-1.027-1.227-1.052-1.24-1.026-1.226-1.002-1.24-1.027-1.227-1.027-1.227-1.001-1.239-1.002-1.227-1.002-1.227-1.001-1.24-1.002-1.226-1.002-1.227-1.001-1.227-.977-1.227-1.002-1.24-1.002-1.227-.976-1.227-.977-1.227-1.002-1.227-.976-1.227-.977-1.227-1.002-1.227-.976-1.227-.977-1.227-1.002-1.227-.976-1.227-.977-1.227-.976-1.227-1.002-1.227-.977-1.227-1.001-1.227-.977-1.215-1.002-1.227-.976-1.227-1.002-1.227-1.002-1.227-1.002-1.215-1.001-1.227-1.002-1.227-1.002-1.227-1.001-1.214-1.027-1.227-1.002-1.227-1.027-1.215-1.026-1.227-1.027-1.215-1.027-1.227-1.026-1.215-1.052-1.227-1.052-1.215-1.052-1.227-1.052-1.214-1.051-1.227-1.077-1.215-1.077-1.227-1.077-1.215-1.102-1.215-1.102-1.214-1.101-1.227-1.102-1.215-1.127-1.215-1.127-1.215-1.152-1.214-1.152-1.215-1.177-1.215-1.152-1.215-1.202-1.214-1.202-1.215-1.202-1.215-1.227-1.215-1.252-1.214-1.252-1.215-1.277-1.203-1.278-1.214-1.302-1.203-1.327-1.215-1.352-1.202-1.378-1.203-1.402-1.214-1.402-1.203-1.453-1.202-1.477-1.203-1.503-1.202-1.553-1.19-1.577-1.203-1.628-1.19-1.653-1.19-1.703-1.19-1.778-1.19-1.803-1.191-1.903-1.178-1.953-1.178-2.029-1.166-2.153-1.165-2.254-1.166-2.38-1.153-2.528-1.141-2.73-1.117-2.98-1.117-3.306-1.08-3.756-1.042-4.407-.97-5.009-.773-5.008-.417-5.009-.074-5.008.27-5.009.602-5.008.92-5.009 1.24-4.958 1.52-4.007 1.436-3.43 1.362-3.056 1.338-2.83 1.313-2.629 1.3-2.504 1.289-2.38 1.276-2.278 1.276-2.179 1.276-2.128 1.264-2.054 1.251-1.978 1.264-1.953 1.252-1.904 1.251-1.878 1.252-1.828 1.252-1.803 1.251-1.753 1.24-1.753 1.25-1.703 1.24-1.703 1.24-1.678 1.239-1.652 1.251-1.628 1.227-1.628 1.24-1.603 1.239-1.602 1.24-1.578 1.239-1.578 1.227-1.552 1.239-1.553 1.227-1.552 1.24-1.553 1.226-1.528 1.227-1.527 1.24-1.528 1.227-1.502 1.227-1.528 1.227-1.502 1.239-1.528 1.227-1.503 1.227-1.502 1.227-1.528 1.227-1.502 1.215-1.528 1.227-1.502 1.227-1.528 1.227-1.503 1.227-1.527 1.215-1.553 1.227-1.527 1.214-1.553 1.227-1.528 1.227-1.577 1.215-1.553 1.215-1.577 1.227-1.603 1.215-1.578 1.214-1.628 1.227-1.602 1.215-1.653 1.215-1.653 1.215-1.653 1.214-1.703 1.215-1.702 1.203-1.728 1.214-1.728 1.215-1.778 1.203-1.803 1.214-1.828 1.203-1.854 1.215-1.878 1.202-1.928 1.203-1.953 1.202-2.004 1.19-2.053 1.203-2.079 1.202-2.153 1.19-2.23 1.19-2.278 1.19-2.354 1.179-2.429 1.178-2.53 1.178-2.654 1.178-2.78 1.153-2.93 1.166-3.105 1.14-3.305 1.13-3.606 1.129-3.932 1.092-4.432 1.055-5.009.994-5.008.773-5.009.54-5.008.331-5.009.098-5.008-.098-5.009-.307-5.008-.515-5.009-.7-5.008-.895-5.009-1.068-5.008-1.227-4.983-1.386-4.433-1.35-4.007-1.313-3.756-1.3-3.531-1.289-3.356-1.276-3.205-1.276-3.13-1.264-3.03-1.264-2.93-1.251-2.88-1.252-2.83-1.252-2.78-1.239-2.73-1.24-2.704-1.238-2.655-1.24-2.654-1.239-2.63-1.24-2.629-1.226-2.604-1.227-2.58-1.227-2.604-1.227-2.58-1.227-2.604-1.227-2.604-1.227-2.63-1.215-2.63-1.215-2.629-1.227-2.68-1.215-2.679-1.214-2.73-1.203-2.754-1.215-2.805-1.202-2.83-1.215-2.88-1.202-2.954-1.203-3.005-1.19-3.08-1.203-3.156-1.19-3.255-1.19-3.381-1.178-3.481-1.178-3.631-1.178-3.807-1.166-4.031-1.153-4.258-1.141-4.557-1.129-4.934-1.116-5.008-1.007-5.009-.87-5.008-.762-5.009-.625-5.008-.491-5.008-.38-5.009-.258-5.008-.135-5.009-.012-5.008.085-5.009.209-5.008.307-5.009.405-5.008.503-5.009.589-5.008.675-5.009.748-5.008.822-5.008.884-5.009.944-5.008.994-5.009 1.031-5.008 1.068-5.009 1.104-5.008 1.129-5.009 1.129-5.008 1.153-5.009 1.153-5.008 1.154-5.009 1.129-5.008 1.129-5.009 1.104-5.008 1.08-5.008 1.055-5.009 1.006-5.008.982-5.009.932-5.008.884-5.009.846-5.008.786-5.009.723-5.008.688-5.009.613-5.008.565-5.009.503-5.008.441-5.009.393-5.008.32-5.008.269-5.009.22-5.008.148-5.009.11-5.008.05h-5.009l-5.008-.05-5.009-.098-5.008-.135-5.009-.171-5.008-.209-5.009-.245-5.008-.283-5.009-.294-5.008-.331-5.008-.344-5.009-.368-5.008-.38-5.009-.38-5.008-.406-5.009-.405-5.008-.405-5.009-.404-5.008-.393-5.009-.405-5.008-.38-5.009-.38-5.008-.369-5.008-.343-5.009-.344-5.008-.32-5.009-.294-5.008-.282-5.009-.27-5.008-.233-5.009-.22-5.008-.21-5.009-.171-5.008-.16-5.009-.135-5.008-.122-5.009-.098-5.008-.074-5.008-.061-5.009-.037-5.008-.025-5.009-.012h-5.008l-5.009.025-5.008.024-5.009.037-5.008.049-5.009.061-5.008.062-5.009.061-5.008.074-5.009.073-5.008.086-5.008.074-5.009.073-5.008.074-5.009.074-5.008.073-5.009.074-5.008.061-5.009.062-5.008.049-5.009.049-5.008.049-5.009.037-5.008.024-5.008.037-5.009.025-5.008.012-5.009.012-5.008.012-5.009.013h-30.051l-5.008.012h-10.017l-5.008.012-5.009.012-5.008.013-5.009.024-5.008.025-5.009.037-5.008.024-5.009.05-5.008.036-5.009.061-5.008.05-5.009.06-5.008.062-5.009.074-5.008.073"/>
        </g>
        <g stroke-width=".8">
            <path d="M48 .5l7.513 1.387 5.008 1.766 3.481 1.62 2.63 1.436L68.91 8.07l2.029 1.337 1.853 1.313 1.753 1.3 1.628 1.301 1.552 1.276 1.478 1.289 1.427 1.264 1.377 1.276 1.328 1.264 1.277 1.263 1.252 1.264 1.202 1.252 1.202 1.264 1.152 1.251 1.127 1.252 1.102 1.251 1.077 1.252 1.076 1.252 1.027 1.251 1.027 1.24 1.027 1.25.976 1.24 1.002 1.252.952 1.24.951 1.238.952 1.252.926 1.24.927 1.239.901 1.239.902 1.24.876 1.238.877 1.24.876 1.239.877 1.24.851 1.239.852 1.239.826 1.24.827 1.226.826 1.24.826 1.239.827 1.24.801 1.226.801 1.24.802 1.239.801 1.227.776 1.239.777 1.24.776 1.226.776 1.24.777 1.227.776 1.239.751 1.227.752 1.24.75 1.226.752 1.24.751 1.227.752 1.227.75 1.239.727 1.227.726 1.24.752 1.226.726 1.227.726 1.24.726 1.227.727 1.227.7 1.239.727 1.227.726 1.227.701 1.227.727 1.24.7 1.226.702 1.227.726 1.227.701 1.24.702 1.227.7 1.227.702 1.227.701 1.227.701 1.227.702 1.239.7 1.227.677 1.227.701 1.227.701 1.227.701 1.227.677 1.227.7 1.227.702 1.227.676 1.227.701 1.24.676 1.227.702 1.227.676 1.227.7 1.227.677 1.227.701 1.227.701 1.227.677 1.227.7 1.227.677 1.227.701 1.227.676 1.214.701 1.227.677 1.228.7 1.227.702 1.227.676 1.227.701 1.227.701 1.227.677 1.227.7 1.227.702 1.214.701 1.227.701 1.227.701 1.227.702 1.228.7 1.227.702 1.214.701 1.227.701 1.227.702 1.227.726 1.227.701 1.215.726 1.227.701 1.227.727 1.227.7 1.215.727 1.227.726 1.227.727 1.215.726 1.227.726 1.227.726 1.215.751 1.227.727 1.227.751 1.214.726 1.227.751 1.215.752 1.227.751 1.227.751 1.215.777 1.227.75 1.215.777 1.227.751 1.214.777 1.227.776 1.215.776 1.227.802 1.215.776 1.215.801 1.227.802 1.215.801 1.227.827 1.214.8 1.215.827 1.227.827 1.215.826 1.215.851 1.214.852 1.227.851 1.215.852 1.215.851 1.215.877 1.214.901 1.215.877 1.215.901 1.215.902 1.214.926 1.215.927 1.215.926 1.215.952 1.214.952 1.215.976 1.215.977 1.202.977 1.215 1.026 1.215 1.002 1.202 1.052 1.215 1.027 1.203 1.076 1.214 1.077 1.203 1.102 1.202 1.127 1.203 1.152 1.215 1.152 1.202 1.177 1.203 1.227 1.19 1.227 1.202 1.277 1.203 1.302 1.19 1.328 1.19 1.377 1.19 1.402 1.19 1.453 1.19 1.527 1.179 1.553 1.19 1.628 1.166 1.703 1.178 1.778 1.165 1.878 1.154 1.978 1.153 2.129 1.141 2.279 1.117 2.479 1.104 2.78 1.08 3.155 1.03 3.756.958 4.808.81 5.009.343 5.008-.172 5.009-.662 5.008-1.142 5.009-1.631 3.781-1.534 3.03-1.411 2.63-1.35 2.379-1.337 2.203-1.301 2.054-1.3 1.953-1.29 1.853-1.288 1.778-1.276 1.703-1.263 1.628-1.277 1.603-1.263 1.552-1.252 1.503-1.264 1.477-1.251 1.428-1.264 1.402-1.252 1.377-1.251 1.328-1.24 1.327-1.251 1.302-1.252 1.277-1.239 1.277-1.252 1.227-1.239 1.227-1.24 1.228-1.25 1.177-1.24 1.177-1.24 1.177-1.239 1.151-1.239 1.152-1.24 1.127-1.238 1.127-1.24 1.102-1.24 1.127-1.226 1.077-1.24 1.102-1.239 1.077-1.239 1.076-1.227 1.052-1.24 1.077-1.226 1.052-1.24 1.026-1.227 1.052-1.239 1.027-1.227 1.052-1.24 1.026-1.226 1.002-1.24 1.027-1.227 1.027-1.227 1.001-1.239 1.002-1.227 1.002-1.227 1.001-1.24 1.002-1.226 1.002-1.227 1.001-1.227.977-1.227 1.002-1.24 1.002-1.227.976-1.227.977-1.227 1.002-1.227.976-1.227.977-1.227 1.002-1.227.976-1.227.977-1.227 1.002-1.227.976-1.227.977-1.227.976-1.227 1.002-1.227.977-1.227 1.002-1.227.976-1.215 1.002-1.227.976-1.227 1.002-1.227 1.002-1.227 1.002-1.215 1.001-1.227 1.002-1.227 1.002-1.227 1.001-1.214 1.027-1.227 1.002-1.227 1.027-1.215 1.026-1.227 1.027-1.215 1.027-1.227 1.026-1.215 1.052-1.227 1.052-1.215 1.052-1.227 1.052-1.214 1.051-1.227 1.077-1.215 1.077-1.227 1.077-1.215 1.102-1.215 1.102-1.214 1.101-1.227 1.102-1.215 1.127-1.215 1.127-1.215 1.152-1.214 1.152-1.215 1.177-1.215 1.152-1.215 1.202-1.214 1.202-1.215 1.202-1.215 1.227-1.215 1.252-1.214 1.252-1.215 1.277-1.203 1.278-1.214 1.302-1.203 1.327-1.215 1.352-1.202 1.378-1.203 1.402-1.214 1.402-1.203 1.453-1.202 1.477-1.203 1.503-1.202 1.553-1.19 1.577-1.203 1.628-1.19 1.653-1.19 1.703-1.19 1.778-1.19 1.803-1.191 1.903-1.178 1.953-1.178 2.029-1.166 2.153-1.165 2.254-1.166 2.38-1.153 2.528-1.141 2.73-1.117 2.98-1.117 3.306-1.08 3.756-1.042 4.407-.97 5.009-.773 5.008-.417 5.009-.074 5.008.27 5.009.602 5.008.92 5.009 1.24 4.958 1.52 4.007 1.436 3.43 1.362 3.056 1.338 2.83 1.313 2.629 1.3 2.504 1.289 2.38 1.276 2.278 1.276 2.179 1.276 2.128 1.264 2.054 1.251 1.978 1.264 1.954 1.252 1.903 1.251 1.878 1.252 1.828 1.252 1.803 1.251 1.753 1.24 1.753 1.25 1.703 1.24 1.703 1.24 1.678 1.239 1.652 1.251 1.628 1.227 1.628 1.24 1.603 1.239 1.602 1.24 1.578 1.239 1.578 1.227 1.552 1.239 1.553 1.227 1.552 1.24 1.553 1.226 1.528 1.227 1.527 1.24 1.528 1.227 1.502 1.227 1.528 1.227 1.502 1.239 1.528 1.227 1.503 1.227 1.502 1.227 1.528 1.227 1.502 1.215 1.528 1.227 1.502 1.227 1.528 1.227 1.503 1.227 1.527 1.215 1.553 1.227 1.527 1.214 1.553 1.227 1.528 1.227 1.577 1.215 1.553 1.215 1.577 1.227 1.603 1.215 1.578 1.214 1.628 1.227 1.602 1.215 1.653 1.215 1.653 1.215 1.653 1.214 1.703 1.215 1.702 1.203 1.728 1.214 1.728 1.215 1.778 1.203 1.803 1.214 1.828 1.203 1.854 1.215 1.878 1.202 1.928 1.203 1.953 1.202 2.004 1.19 2.053 1.203 2.079 1.202 2.153 1.19 2.23 1.19 2.278 1.19 2.354 1.179 2.429 1.178 2.53 1.178 2.654 1.178 2.78 1.153 2.93 1.166 3.105 1.14 3.305 1.13 3.606 1.129 3.932 1.092 4.432 1.055 5.009.994 5.008.773 5.009.54 5.008.331 5.009.098 5.008-.098 5.009-.307 5.008-.515 5.009-.7 5.008-.895 5.009-1.068 5.008-1.227 4.984-1.386 4.432-1.35 4.007-1.313 3.756-1.3 3.531-1.289 3.356-1.276 3.205-1.276 3.13-1.264 3.03-1.264 2.93-1.251 2.88-1.252 2.83-1.252 2.78-1.239 2.73-1.24 2.704-1.238 2.655-1.24 2.654-1.239 2.63-1.24 2.629-1.226 2.604-1.227 2.58-1.227 2.604-1.227 2.58-1.227 2.604-1.227 2.604-1.227 2.63-1.215 2.63-1.215 2.629-1.227 2.68-1.215 2.679-1.214 2.73-1.203 2.754-1.215 2.805-1.202 2.83-1.215 2.88-1.202 2.954-1.203 3.005-1.19 3.08-1.203 3.156-1.19 3.255-1.19 3.381-1.178 3.481-1.178 3.631-1.178 3.807-1.166 4.031-1.153 4.258-1.141 4.557-1.129 4.934-1.116 5.008-1.007 5.009-.87 5.008-.762 5.009-.625 5.008-.491 5.008-.38 5.009-.258 5.008-.135 5.009-.012 5.008.085 5.009.209 5.008.307 5.009.405 5.008.503 5.009.589 5.008.675 5.009.748 5.008.822 5.008.884 5.009.944 5.008.994 5.009 1.031 5.008 1.068 5.009 1.104 5.008 1.129 5.009 1.129 5.008 1.153 5.009 1.153 5.008 1.154 5.009 1.129 5.008 1.129 5.009 1.104 5.008 1.08 5.008 1.055 5.009 1.006 5.008.982 5.009.932 5.008.884 5.009.846 5.008.786 5.009.723 5.008.688 5.009.613 5.008.565 5.009.503 5.008.441 5.009.393 5.008.32 5.008.269 5.009.22 5.008.148 5.009.11 5.008.05h5.009l5.008-.05 5.009-.098 5.008-.135 5.009-.171 5.008-.209 5.009-.245 5.008-.283 5.009-.294 5.008-.331 5.008-.344 5.009-.368 5.008-.38 5.009-.38 5.008-.406 5.009-.405 5.008-.405 5.009-.404 5.008-.393 5.009-.405 5.008-.38 5.009-.38 5.008-.369 5.008-.343 5.009-.344 5.008-.32 5.009-.294 5.008-.282 5.009-.27 5.008-.233 5.009-.22 5.008-.21 5.009-.171 5.008-.16 5.009-.135 5.008-.122 5.009-.098 5.008-.074 5.008-.061 5.009-.037 5.008-.025 5.009-.012h5.008l5.009.025 5.008.024 5.009.037 5.008.049 5.009.061 5.008.062 5.009.061 5.008.074 5.009.073 5.008.086 5.008.074 5.009.073 5.008.074 5.009.074 5.008.073 5.009.074 5.008.061 5.009.062 5.008.049 5.009.049 5.008.049 5.009.037 5.008.024 5.008.037 5.009.025 5.008.012 5.009.012 5.008.012 5.009.013h30.051l5.008.012h10.017l5.008.012 5.009.012 5.008.013 5.009.024 5.008.025 5.009.037 5.008.024 5.009.05 5.008.036 5.009.061 5.008.05 5.009.06 5.008.062 5.009.074 5.008.073M47 .5l-7.513 1.387-5.008 1.766-3.481 1.62-2.63 1.436L26.09 8.07 24.06 9.408l-1.853 1.313-1.753 1.3-1.628 1.301-1.552 1.276-1.478 1.289-1.427 1.264-1.377 1.276-1.328 1.264-1.277 1.263-1.252 1.264-1.202 1.252-1.202 1.264-1.152 1.251-1.127 1.252-1.102 1.251-1.077 1.252-1.076 1.252L.17 32.243l-1.027 1.24-1.027 1.25-.976 1.24-1.002 1.252-.952 1.24-.951 1.238-.952 1.252-.926 1.24-.927 1.239-.901 1.239-.902 1.24-.876 1.238-.877 1.24L-13 49.63l-.877 1.24-.851 1.239-.852 1.239-.826 1.24-.827 1.226-.826 1.24-.826 1.239-.827 1.24-.801 1.226-.801 1.24-.802 1.239-.801 1.227-.776 1.239-.777 1.24-.776 1.226-.776 1.24-.777 1.227-.776 1.239-.751 1.227-.752 1.24-.75 1.226-.752 1.24-.751 1.227-.752 1.227-.75 1.239-.727 1.227-.726 1.24-.752 1.226-.726 1.227-.726 1.24-.726 1.227-.727 1.227-.7 1.239-.727 1.227-.726 1.227-.701 1.227-.727 1.24-.7 1.226-.702 1.227-.726 1.227-.701 1.24-.702 1.227-.7 1.227-.702 1.227-.701 1.227-.701 1.227-.702 1.239-.7 1.227-.677 1.227-.701 1.227-.701 1.227-.701 1.227-.677 1.227-.7 1.227-.702 1.227-.676 1.227-.701 1.24-.676 1.227-.702 1.227-.676 1.227-.7 1.227-.677 1.227-.701 1.227-.701 1.227-.677 1.227-.7 1.227-.677 1.227-.701 1.227-.676 1.214-.701 1.227-.677 1.228-.7 1.227-.702 1.227-.676 1.227-.701 1.227-.701 1.227-.677 1.227-.7 1.227-.702 1.214-.701 1.227-.701 1.227-.701 1.227-.702 1.228-.7 1.227-.702 1.214-.701 1.227-.701 1.227-.702 1.227-.726 1.227-.701 1.215-.726 1.227-.701 1.227-.727 1.227-.7 1.215-.727 1.227-.726 1.227-.727 1.215-.726 1.227-.726 1.227-.726 1.215-.751 1.227-.727 1.227-.751 1.214-.726 1.227-.751 1.215-.752 1.227-.751 1.227-.751 1.215-.777 1.227-.75 1.215-.777 1.227-.751 1.214-.777 1.227-.776 1.215-.776 1.227-.802 1.215-.776 1.215-.801 1.227-.802 1.215-.801 1.227-.827 1.214-.8 1.215-.827 1.227-.827 1.215-.826 1.215-.851 1.214-.852 1.227-.851 1.215-.852 1.215-.851 1.215-.877 1.214-.901 1.215-.877 1.215-.901 1.215-.902 1.214-.926 1.215-.927 1.215-.926 1.215-.952 1.214-.952 1.215-.976 1.215-.977 1.202-.977 1.215-1.026 1.215-1.002 1.202-1.052 1.215-1.027 1.203-1.076 1.214-1.077 1.203-1.102 1.202-1.127 1.203-1.152 1.215-1.152 1.202-1.177 1.203-1.227 1.19-1.227 1.202-1.277 1.203-1.302 1.19-1.328 1.19-1.377 1.19-1.402 1.19-1.453 1.19-1.527 1.179-1.553 1.19-1.628 1.166-1.703 1.178-1.778 1.165-1.878 1.154-1.978 1.153-2.129 1.141-2.279 1.117-2.479 1.104-2.78 1.08-3.155 1.03-3.756.958-4.808.81-5.009.343-5.008-.172-5.009-.662-5.008-1.142-5.009-1.631-3.781-1.534-3.03-1.411-2.63-1.35-2.379-1.337-2.203-1.301-2.054-1.3-1.953-1.29-1.853-1.288-1.778-1.276-1.703-1.263-1.628-1.277-1.603-1.263-1.552-1.252-1.503-1.264-1.477-1.251-1.428-1.264-1.402-1.252-1.377-1.251-1.328-1.24-1.327-1.251-1.302-1.252-1.277-1.239-1.277-1.252-1.227-1.239-1.227-1.24-1.228-1.25-1.177-1.24-1.177-1.24-1.177-1.239-1.151-1.239-1.152-1.24-1.127-1.238-1.127-1.24-1.102-1.24-1.127-1.226-1.077-1.24-1.102-1.239-1.077-1.239-1.076-1.227-1.052-1.24-1.077-1.226-1.052-1.24-1.026-1.227-1.052-1.239-1.027-1.227-1.052-1.24-1.026-1.226-1.002-1.24-1.027-1.227-1.027-1.227-1.001-1.239-1.002-1.227-1.002-1.227-1.001-1.24-1.002-1.226-1.002-1.227-1.001-1.227-.977-1.227-1.002-1.24-1.002-1.227-.976-1.227-.977-1.227-1.002-1.227-.976-1.227-.977-1.227-1.002-1.227-.976-1.227-.977-1.227-1.002-1.227-.976-1.227-.977-1.227-.976-1.227-1.002-1.227-.977-1.227-1.001-1.227-.977-1.215-1.002-1.227-.976-1.227-1.002-1.227-1.002-1.227-1.002-1.215-1.001-1.227-1.002-1.227-1.002-1.227-1.001-1.214-1.027-1.227-1.002-1.227-1.027-1.215-1.026-1.227-1.027-1.215-1.027-1.227-1.026-1.215-1.052-1.227-1.052-1.215-1.052-1.227-1.052-1.214-1.051-1.227-1.077-1.215-1.077-1.227-1.077-1.215-1.102-1.215-1.102-1.214-1.101-1.227-1.102-1.215-1.127-1.215-1.127-1.215-1.152-1.214-1.152-1.215-1.177-1.215-1.152-1.215-1.202-1.214-1.202-1.215-1.202-1.215-1.227-1.215-1.252-1.214-1.252-1.215-1.277-1.203-1.278-1.214-1.302-1.203-1.327-1.215-1.352-1.202-1.378-1.203-1.402-1.214-1.402-1.203-1.453-1.202-1.477-1.203-1.503-1.202-1.553-1.19-1.577-1.203-1.628-1.19-1.653-1.19-1.703-1.19-1.778-1.19-1.803-1.191-1.903-1.178-1.953-1.178-2.029-1.166-2.153-1.165-2.254-1.166-2.38-1.153-2.528-1.141-2.73-1.117-2.98-1.117-3.306-1.08-3.756-1.042-4.407-.97-5.009-.773-5.008-.417-5.009-.074-5.008.27-5.009.602-5.008.92-5.009 1.24-4.958 1.52-4.007 1.436-3.43 1.362-3.056 1.338-2.83 1.313-2.629 1.3-2.504 1.289-2.38 1.276-2.278 1.276-2.179 1.276-2.128 1.264-2.054 1.251-1.978 1.264-1.953 1.252-1.904 1.251-1.878 1.252-1.828 1.252-1.803 1.251-1.753 1.24-1.753 1.25-1.703 1.24-1.703 1.24-1.678 1.239-1.652 1.251-1.628 1.227-1.628 1.24-1.603 1.239-1.602 1.24-1.578 1.239-1.578 1.227-1.552 1.239-1.553 1.227-1.552 1.24-1.553 1.226-1.528 1.227-1.527 1.24-1.528 1.227-1.502 1.227-1.528 1.227-1.502 1.239-1.528 1.227-1.503 1.227-1.502 1.227-1.528 1.227-1.502 1.215-1.528 1.227-1.502 1.227-1.528 1.227-1.503 1.227-1.527 1.215-1.553 1.227-1.527 1.214-1.553 1.227-1.528 1.227-1.577 1.215-1.553 1.215-1.577 1.227-1.603 1.215-1.578 1.214-1.628 1.227-1.602 1.215-1.653 1.215-1.653 1.215-1.653 1.214-1.703 1.215-1.702 1.203-1.728 1.214-1.728 1.215-1.778 1.203-1.803 1.214-1.828 1.203-1.854 1.215-1.878 1.202-1.928 1.203-1.953 1.202-2.004 1.19-2.053 1.203-2.079 1.202-2.153 1.19-2.23 1.19-2.278 1.19-2.354 1.179-2.429 1.178-2.53 1.178-2.654 1.178-2.78 1.153-2.93 1.166-3.105 1.14-3.305 1.13-3.606 1.129-3.932 1.092-4.432 1.055-5.009.994-5.008.773-5.009.54-5.008.331-5.009.098-5.008-.098-5.009-.307-5.008-.515-5.009-.7-5.008-.895-5.009-1.068-5.008-1.227-4.983-1.386-4.433-1.35-4.007-1.313-3.756-1.3-3.531-1.289-3.356-1.276-3.205-1.276-3.13-1.264-3.03-1.264-2.93-1.251-2.88-1.252-2.83-1.252-2.78-1.239-2.73-1.24-2.704-1.238-2.655-1.24-2.654-1.239-2.63-1.24-2.629-1.226-2.604-1.227-2.58-1.227-2.604-1.227-2.58-1.227-2.604-1.227-2.604-1.227-2.63-1.215-2.63-1.215-2.629-1.227-2.68-1.215-2.679-1.214-2.73-1.203-2.754-1.215-2.805-1.202-2.83-1.215-2.88-1.202-2.954-1.203-3.005-1.19-3.08-1.203-3.156-1.19-3.255-1.19-3.381-1.178-3.481-1.178-3.631-1.178-3.807-1.166-4.031-1.153-4.258-1.141-4.557-1.129-4.934-1.116-5.008-1.007-5.009-.87-5.008-.762-5.009-.625-5.008-.491-5.008-.38-5.009-.258-5.008-.135-5.009-.012-5.008.085-5.009.209-5.008.307-5.009.405-5.008.503-5.009.589-5.008.675-5.009.748-5.008.822-5.008.884-5.009.944-5.008.994-5.009 1.031-5.008 1.068-5.009 1.104-5.008 1.129-5.009 1.129-5.008 1.153-5.009 1.153-5.008 1.154-5.009 1.129-5.008 1.129-5.009 1.104-5.008 1.08-5.008 1.055-5.009 1.006-5.008.982-5.009.932-5.008.884-5.009.846-5.008.786-5.009.723-5.008.688-5.009.613-5.008.565-5.009.503-5.008.441-5.009.393-5.008.32-5.008.269-5.009.22-5.008.148-5.009.11-5.008.05h-5.009l-5.008-.05-5.009-.098-5.008-.135-5.009-.171-5.008-.209-5.009-.245-5.008-.283-5.009-.294-5.008-.331-5.008-.344-5.009-.368-5.008-.38-5.009-.38-5.008-.406-5.009-.405-5.008-.405-5.009-.404-5.008-.393-5.009-.405-5.008-.38-5.009-.38-5.008-.369-5.008-.343-5.009-.344-5.008-.32-5.009-.294-5.008-.282-5.009-.27-5.008-.233-5.009-.22-5.008-.21-5.009-.171-5.008-.16-5.009-.135-5.008-.122-5.009-.098-5.008-.074-5.008-.061-5.009-.037-5.008-.025-5.009-.012h-5.008l-5.009.025-5.008.024-5.009.037-5.008.049-5.009.061-5.008.062-5.009.061-5.008.074-5.009.073-5.008.086-5.008.074-5.009.073-5.008.074-5.009.074-5.008.073-5.009.074-5.008.061-5.009.062-5.008.049-5.009.049-5.008.049-5.009.037-5.008.024-5.008.037-5.009.025-5.008.012-5.009.012-5.008.012-5.009.013h-30.051l-5.008.012h-10.017l-5.008.012-5.009.012-5.008.013-5.009.024-5.008.025-5.009.037-5.008.024-5.009.05-5.008.036-5.009.061-5.008.05-5.009.06-5.008.062-5.009.074-5.008.073"/>
        </g>
        <g stroke-width=".5">
            <path d="M64 .5l7.513 1.387 5.008 1.766 3.481 1.62 2.63 1.436L84.91 8.07l2.029 1.337 1.853 1.313 1.753 1.3 1.628 1.301 1.552 1.276 1.478 1.289 1.427 1.264 1.377 1.276 1.328 1.264 1.277 1.263 1.252 1.264 1.202 1.252 1.202 1.264 1.152 1.251 1.127 1.252 1.102 1.251 1.077 1.252 1.076 1.252 1.027 1.251 1.027 1.24 1.027 1.25.976 1.24 1.002 1.252.952 1.24.951 1.238.952 1.252.926 1.24.927 1.239.901 1.239.902 1.24.876 1.238.877 1.24.876 1.239.877 1.24.851 1.239.852 1.239.826 1.24.827 1.226.826 1.24.826 1.239.827 1.24.801 1.226.801 1.24.802 1.239.801 1.227.776 1.239.777 1.24.776 1.226.776 1.24.777 1.227.776 1.239.751 1.227.752 1.24.75 1.226.752 1.24.751 1.227.752 1.227.75 1.239.727 1.227.726 1.24.752 1.226.726 1.227.726 1.24.726 1.227.727 1.227.7 1.239.727 1.227.726 1.227.701 1.227.727 1.24.7 1.226.702 1.227.726 1.227.701 1.24.702 1.227.7 1.227.702 1.227.701 1.227.701 1.227.702 1.239.7 1.227.677 1.227.701 1.227.701 1.227.701 1.227.677 1.227.7 1.227.702 1.227.676 1.227.701 1.24.676 1.227.702 1.227.676 1.227.7 1.227.677 1.227.701 1.227.701 1.227.677 1.227.7 1.227.677 1.227.701 1.227.676 1.214.701 1.227.677 1.228.7 1.227.702 1.227.676 1.227.701 1.227.701 1.227.677 1.227.7 1.227.702 1.214.701 1.227.701 1.227.701 1.227.702 1.228.7 1.227.702 1.214.701 1.227.701 1.227.702 1.227.726 1.227.701 1.215.726 1.227.701 1.227.727 1.227.7 1.215.727 1.227.726 1.227.727 1.215.726 1.227.726 1.227.726 1.215.751 1.227.727 1.227.751 1.214.726 1.227.751 1.215.752 1.227.751 1.227.751 1.215.777 1.227.75 1.215.777 1.227.751 1.214.777 1.227.776 1.215.776 1.227.802 1.215.776 1.215.801 1.227.802 1.215.801 1.227.827 1.214.8 1.215.827 1.227.827 1.215.826 1.215.851 1.214.852 1.227.851 1.215.852 1.215.851 1.215.877 1.214.901 1.215.877 1.215.901 1.215.902 1.214.926 1.215.927 1.215.926 1.215.952 1.214.952 1.215.976 1.215.977 1.202.977 1.215 1.026 1.215 1.002 1.202 1.052 1.215 1.027 1.203 1.076 1.214 1.077 1.203 1.102 1.202 1.127 1.203 1.152 1.215 1.152 1.202 1.177 1.203 1.227 1.19 1.227 1.202 1.277 1.203 1.302 1.19 1.328 1.19 1.377 1.19 1.402 1.19 1.453 1.19 1.527 1.179 1.553 1.19 1.628 1.166 1.703 1.178 1.778 1.165 1.878 1.154 1.978 1.153 2.129 1.141 2.279 1.117 2.479 1.104 2.78 1.08 3.155 1.03 3.756.958 4.808.81 5.009.343 5.008-.172 5.009-.662 5.008-1.142 5.009-1.631 3.781-1.534 3.03-1.411 2.63-1.35 2.379-1.337 2.203-1.301 2.054-1.3 1.953-1.29 1.853-1.288 1.778-1.276 1.703-1.263 1.628-1.277 1.603-1.263 1.552-1.252 1.503-1.264 1.477-1.251 1.428-1.264 1.402-1.252 1.377-1.251 1.328-1.24 1.327-1.251 1.302-1.252 1.277-1.239 1.277-1.252 1.227-1.239 1.227-1.24 1.228-1.25 1.177-1.24 1.177-1.24 1.177-1.239 1.151-1.239 1.152-1.24 1.127-1.238 1.127-1.24 1.102-1.24 1.127-1.226 1.077-1.24 1.102-1.239 1.077-1.239 1.076-1.227 1.052-1.24 1.077-1.226 1.052-1.24 1.026-1.227 1.052-1.239 1.027-1.227 1.052-1.24 1.026-1.226 1.002-1.24 1.027-1.227 1.027-1.227 1.001-1.239 1.002-1.227 1.002-1.227 1.001-1.24 1.002-1.226 1.002-1.227 1.001-1.227.977-1.227 1.002-1.24 1.002-1.227.976-1.227.977-1.227 1.002-1.227.976-1.227.977-1.227 1.002-1.227.976-1.227.977-1.227 1.002-1.227.976-1.227.977-1.227.976-1.227 1.002-1.227.977-1.227 1.002-1.227.976-1.215 1.002-1.227.976-1.227 1.002-1.227 1.002-1.227 1.002-1.215 1.001-1.227 1.002-1.227 1.002-1.227 1.001-1.214 1.027-1.227 1.002-1.227 1.027-1.215 1.026-1.227 1.027-1.215 1.027-1.227 1.026-1.215 1.052-1.227 1.052-1.215 1.052-1.227 1.052-1.214 1.051-1.227 1.077-1.215 1.077-1.227 1.077-1.215 1.102-1.215 1.102-1.214 1.101-1.227 1.102-1.215 1.127-1.215 1.127-1.215 1.152-1.214 1.152-1.215 1.177-1.215 1.152-1.215 1.202-1.214 1.202-1.215 1.202-1.215 1.227-1.215 1.252-1.214 1.252-1.215 1.277-1.203 1.278-1.214 1.302-1.203 1.327-1.215 1.352-1.202 1.378-1.203 1.402-1.214 1.402-1.203 1.453-1.202 1.477-1.203 1.503-1.202 1.553-1.19 1.577-1.203 1.628-1.19 1.653-1.19 1.703-1.19 1.778-1.19 1.803-1.191 1.903-1.178 1.953-1.178 2.029-1.166 2.153-1.165 2.254-1.166 2.38-1.153 2.528-1.141 2.73-1.117 2.98-1.117 3.306-1.08 3.756-1.042 4.407-.97 5.009-.773 5.008-.417 5.009-.074 5.008.27 5.009.602 5.008.92 5.009 1.24 4.958 1.52 4.007 1.436 3.43 1.362 3.056 1.338 2.83 1.313 2.629 1.3 2.504 1.289 2.38 1.276 2.278 1.276 2.179 1.276 2.128 1.264 2.054 1.251 1.978 1.264 1.954 1.252 1.903 1.251 1.878 1.252 1.828 1.252 1.803 1.251 1.753 1.24 1.753 1.25 1.703 1.24 1.703 1.24 1.678 1.239 1.652 1.251 1.628 1.227 1.628 1.24 1.603 1.239 1.602 1.24 1.578 1.239 1.578 1.227 1.552 1.239 1.553 1.227 1.552 1.24 1.553 1.226 1.528 1.227 1.527 1.24 1.528 1.227 1.502 1.227 1.528 1.227 1.502 1.239 1.528 1.227 1.503 1.227 1.502 1.227 1.528 1.227 1.502 1.215 1.528 1.227 1.502 1.227 1.528 1.227 1.503 1.227 1.527 1.215 1.553 1.227 1.527 1.214 1.553 1.227 1.528 1.227 1.577 1.215 1.553 1.215 1.577 1.227 1.603 1.215 1.578 1.214 1.628 1.227 1.602 1.215 1.653 1.215 1.653 1.215 1.653 1.214 1.703 1.215 1.702 1.203 1.728 1.214 1.728 1.215 1.778 1.203 1.803 1.214 1.828 1.203 1.854 1.215 1.878 1.202 1.928 1.203 1.953 1.202 2.004 1.19 2.053 1.203 2.079 1.202 2.153 1.19 2.23 1.19 2.278 1.19 2.354 1.179 2.429 1.178 2.53 1.178 2.654 1.178 2.78 1.153 2.93 1.166 3.105 1.14 3.305 1.13 3.606 1.129 3.932 1.092 4.432 1.055 5.009.994 5.008.773 5.009.54 5.008.331 5.009.098 5.008-.098 5.009-.307 5.008-.515 5.009-.7 5.008-.895 5.009-1.068 5.008-1.227 4.984-1.386 4.432-1.35 4.007-1.313 3.756-1.3 3.531-1.289 3.356-1.276 3.205-1.276 3.13-1.264 3.03-1.264 2.93-1.251 2.88-1.252 2.83-1.252 2.78-1.239 2.73-1.24 2.704-1.238 2.655-1.24 2.654-1.239 2.63-1.24 2.629-1.226 2.604-1.227 2.58-1.227 2.604-1.227 2.58-1.227 2.604-1.227 2.604-1.227 2.63-1.215 2.63-1.215 2.629-1.227 2.68-1.215 2.679-1.214 2.73-1.203 2.754-1.215 2.805-1.202 2.83-1.215 2.88-1.202 2.954-1.203 3.005-1.19 3.08-1.203 3.156-1.19 3.255-1.19 3.381-1.178 3.481-1.178 3.631-1.178 3.807-1.166 4.031-1.153 4.258-1.141 4.557-1.129 4.934-1.116 5.008-1.007 5.009-.87 5.008-.762 5.009-.625 5.008-.491 5.008-.38 5.009-.258 5.008-.135 5.009-.012 5.008.085 5.009.209 5.008.307 5.009.405 5.008.503 5.009.589 5.008.675 5.009.748 5.008.822 5.008.884 5.009.944 5.008.994 5.009 1.031 5.008 1.068 5.009 1.104 5.008 1.129 5.009 1.129 5.008 1.153 5.009 1.153 5.008 1.154 5.009 1.129 5.008 1.129 5.009 1.104 5.008 1.08 5.008 1.055 5.009 1.006 5.008.982 5.009.932 5.008.884 5.009.846 5.008.786 5.009.723 5.008.688 5.009.613 5.008.565 5.009.503 5.008.441 5.009.393 5.008.32 5.008.269 5.009.22 5.008.148 5.009.11 5.008.05h5.009l5.008-.05 5.009-.098 5.008-.135 5.009-.171 5.008-.209 5.009-.245 5.008-.283 5.009-.294 5.008-.331 5.008-.344 5.009-.368 5.008-.38 5.009-.38 5.008-.406 5.009-.405 5.008-.405 5.009-.404 5.008-.393 5.009-.405 5.008-.38 5.009-.38 5.008-.369 5.008-.343 5.009-.344 5.008-.32 5.009-.294 5.008-.282 5.009-.27 5.008-.233 5.009-.22 5.008-.21 5.009-.171 5.008-.16 5.009-.135 5.008-.122 5.009-.098 5.008-.074 5.008-.061 5.009-.037 5.008-.025 5.009-.012h5.008l5.009.025 5.008.024 5.009.037 5.008.049 5.009.061 5.008.062 5.009.061 5.008.074 5.009.073 5.008.086 5.008.074 5.009.073 5.008.074 5.009.074 5.008.073 5.009.074 5.008.061 5.009.062 5.008.049 5.009.049 5.008.049 5.009.037 5.008.024 5.008.037 5.009.025 5.008.012 5.009.012 5.008.012 5.009.013h30.051l5.008.012h10.017l5.008.012 5.009.012 5.008.013 5.009.024 5.008.025 5.009.037 5.008.024 5.009.05 5.008.036 5.009.061 5.008.05 5.009.06 5.008.062 5.009.074 5.008.073M63 .5l-7.513 1.387-5.008 1.766-3.481 1.62-2.63 1.436L42.09 8.07 40.06 9.408l-1.853 1.313-1.753 1.3-1.628 1.301-1.552 1.276-1.478 1.289-1.427 1.264-1.377 1.276-1.328 1.264-1.277 1.263-1.252 1.264-1.202 1.252-1.202 1.264-1.152 1.251-1.127 1.252-1.102 1.251-1.077 1.252-1.076 1.252-1.027 1.251-1.027 1.24-1.027 1.25-.976 1.24-1.002 1.252-.952 1.24-.951 1.238-.952 1.252-.926 1.24-.927 1.239-.901 1.239-.902 1.24-.876 1.238-.877 1.24L3 49.63l-.877 1.24-.851 1.239-.852 1.239-.826 1.24-.827 1.226-.826 1.24-.826 1.239-.827 1.24-.801 1.226-.801 1.24-.802 1.239-.801 1.227-.776 1.239-.777 1.24-.776 1.226-.776 1.24-.777 1.227-.776 1.239-.751 1.227-.752 1.24-.75 1.226-.752 1.24-.751 1.227-.752 1.227-.75 1.239-.727 1.227-.726 1.24-.752 1.226-.726 1.227-.726 1.24-.726 1.227-.727 1.227-.7 1.239-.727 1.227-.726 1.227-.701 1.227-.727 1.24-.7 1.226-.702 1.227-.726 1.227-.701 1.24-.702 1.227-.7 1.227-.702 1.227-.701 1.227-.701 1.227-.702 1.239-.7 1.227-.677 1.227-.701 1.227-.701 1.227-.701 1.227-.677 1.227-.7 1.227-.702 1.227-.676 1.227-.701 1.24-.676 1.227-.702 1.227-.676 1.227-.7 1.227-.677 1.227-.701 1.227-.701 1.227-.677 1.227-.7 1.227-.677 1.227-.701 1.227-.676 1.214-.701 1.227-.677 1.228-.7 1.227-.702 1.227-.676 1.227-.701 1.227-.701 1.227-.677 1.227-.7 1.227-.702 1.214-.701 1.227-.701 1.227-.701 1.227-.702 1.228-.7 1.227-.702 1.214-.701 1.227-.701 1.227-.702 1.227-.726 1.227-.701 1.215-.726 1.227-.701 1.227-.727 1.227-.7 1.215-.727 1.227-.726 1.227-.727 1.215-.726 1.227-.726 1.227-.726 1.215-.751 1.227-.727 1.227-.751 1.214-.726 1.227-.751 1.215-.752 1.227-.751 1.227-.751 1.215-.777 1.227-.75 1.215-.777 1.227-.751 1.214-.777 1.227-.776 1.215-.776 1.227-.802 1.215-.776 1.215-.801 1.227-.802 1.215-.801 1.227-.827 1.214-.8 1.215-.827 1.227-.827 1.215-.826 1.215-.851 1.214-.852 1.227-.851 1.215-.852 1.215-.851 1.215-.877 1.214-.901 1.215-.877 1.215-.901 1.215-.902 1.214-.926 1.215-.927 1.215-.926 1.215-.952 1.214-.952 1.215-.976 1.215-.977 1.202-.977 1.215-1.026 1.215-1.002 1.202-1.052 1.215-1.027 1.203-1.076 1.214-1.077 1.203-1.102 1.202-1.127 1.203-1.152 1.215-1.152 1.202-1.177 1.203-1.227 1.19-1.227 1.202-1.277 1.203-1.302 1.19-1.328 1.19-1.377 1.19-1.402 1.19-1.453 1.19-1.527 1.179-1.553 1.19-1.628 1.166-1.703 1.178-1.778 1.165-1.878 1.154-1.978 1.153-2.129 1.141-2.279 1.117-2.479 1.104-2.78 1.08-3.155 1.03-3.756.958-4.808.81-5.009.343-5.008-.172-5.009-.662-5.008-1.142-5.009-1.631-3.781-1.534-3.03-1.411-2.63-1.35-2.379-1.337-2.203-1.301-2.054-1.3-1.953-1.29-1.853-1.288-1.778-1.276-1.703-1.263-1.628-1.277-1.603-1.263-1.552-1.252-1.503-1.264-1.477-1.251-1.428-1.264-1.402-1.252-1.377-1.251-1.328-1.24-1.327-1.251-1.302-1.252-1.277-1.239-1.277-1.252-1.227-1.239-1.227-1.24-1.228-1.25-1.177-1.24-1.177-1.24-1.177-1.239-1.151-1.239-1.152-1.24-1.127-1.238-1.127-1.24-1.102-1.24-1.127-1.226-1.077-1.24-1.102-1.239-1.077-1.239-1.076-1.227-1.052-1.24-1.077-1.226-1.052-1.24-1.026-1.227-1.052-1.239-1.027-1.227-1.052-1.24-1.026-1.226-1.002-1.24-1.027-1.227-1.027-1.227-1.001-1.239-1.002-1.227-1.002-1.227-1.001-1.24-1.002-1.226-1.002-1.227-1.001-1.227-.977-1.227-1.002-1.24-1.002-1.227-.976-1.227-.977-1.227-1.002-1.227-.976-1.227-.977-1.227-1.002-1.227-.976-1.227-.977-1.227-1.002-1.227-.976-1.227-.977-1.227-.976-1.227-1.002-1.227-.977-1.227-1.001-1.227-.977-1.215-1.002-1.227-.976-1.227-1.002-1.227-1.002-1.227-1.002-1.215-1.001-1.227-1.002-1.227-1.002-1.227-1.001-1.214-1.027-1.227-1.002-1.227-1.027-1.215-1.026-1.227-1.027-1.215-1.027-1.227-1.026-1.215-1.052-1.227-1.052-1.215-1.052-1.227-1.052-1.214-1.051-1.227-1.077-1.215-1.077-1.227-1.077-1.215-1.102-1.215-1.102-1.214-1.101-1.227-1.102-1.215-1.127-1.215-1.127-1.215-1.152-1.214-1.152-1.215-1.177-1.215-1.152-1.215-1.202-1.214-1.202-1.215-1.202-1.215-1.227-1.215-1.252-1.214-1.252-1.215-1.277-1.203-1.278-1.214-1.302-1.203-1.327-1.215-1.352-1.202-1.378-1.203-1.402-1.214-1.402-1.203-1.453-1.202-1.477-1.203-1.503-1.202-1.553-1.19-1.577-1.203-1.628-1.19-1.653-1.19-1.703-1.19-1.778-1.19-1.803-1.191-1.903-1.178-1.953-1.178-2.029-1.166-2.153-1.165-2.254-1.166-2.38-1.153-2.528-1.141-2.73-1.117-2.98-1.117-3.306-1.08-3.756-1.042-4.407-.97-5.009-.773-5.008-.417-5.009-.074-5.008.27-5.009.602-5.008.92-5.009 1.24-4.958 1.52-4.007 1.436-3.43 1.362-3.056 1.338-2.83 1.313-2.629 1.3-2.504 1.289-2.38 1.276-2.278 1.276-2.179 1.276-2.128 1.264-2.054 1.251-1.978 1.264-1.953 1.252-1.904 1.251-1.878 1.252-1.828 1.252-1.803 1.251-1.753 1.24-1.753 1.25-1.703 1.24-1.703 1.24-1.678 1.239-1.652 1.251-1.628 1.227-1.628 1.24-1.603 1.239-1.602 1.24-1.578 1.239-1.578 1.227-1.552 1.239-1.553 1.227-1.552 1.24-1.553 1.226-1.528 1.227-1.527 1.24-1.528 1.227-1.502 1.227-1.528 1.227-1.502 1.239-1.528 1.227-1.503 1.227-1.502 1.227-1.528 1.227-1.502 1.215-1.528 1.227-1.502 1.227-1.528 1.227-1.503 1.227-1.527 1.215-1.553 1.227-1.527 1.214-1.553 1.227-1.528 1.227-1.577 1.215-1.553 1.215-1.577 1.227-1.603 1.215-1.578 1.214-1.628 1.227-1.602 1.215-1.653 1.215-1.653 1.215-1.653 1.214-1.703 1.215-1.702 1.203-1.728 1.214-1.728 1.215-1.778 1.203-1.803 1.214-1.828 1.203-1.854 1.215-1.878 1.202-1.928 1.203-1.953 1.202-2.004 1.19-2.053 1.203-2.079 1.202-2.153 1.19-2.23 1.19-2.278 1.19-2.354 1.179-2.429 1.178-2.53 1.178-2.654 1.178-2.78 1.153-2.93 1.166-3.105 1.14-3.305 1.13-3.606 1.129-3.932 1.092-4.432 1.055-5.009.994-5.008.773-5.009.54-5.008.331-5.009.098-5.008-.098-5.009-.307-5.008-.515-5.009-.7-5.008-.895-5.009-1.068-5.008-1.227-4.983-1.386-4.433-1.35-4.007-1.313-3.756-1.3-3.531-1.289-3.356-1.276-3.205-1.276-3.13-1.264-3.03-1.264-2.93-1.251-2.88-1.252-2.83-1.252-2.78-1.239-2.73-1.24-2.704-1.238-2.655-1.24-2.654-1.239-2.63-1.24-2.629-1.226-2.604-1.227-2.58-1.227-2.604-1.227-2.58-1.227-2.604-1.227-2.604-1.227-2.63-1.215-2.63-1.215-2.629-1.227-2.68-1.215-2.679-1.214-2.73-1.203-2.754-1.215-2.805-1.202-2.83-1.215-2.88-1.202-2.954-1.203-3.005-1.19-3.08-1.203-3.156-1.19-3.255-1.19-3.381-1.178-3.481-1.178-3.631-1.178-3.807-1.166-4.031-1.153-4.258-1.141-4.557-1.129-4.934-1.116-5.008-1.007-5.009-.87-5.008-.762-5.009-.625-5.008-.491-5.008-.38-5.009-.258-5.008-.135-5.009-.012-5.008.085-5.009.209-5.008.307-5.009.405-5.008.503-5.009.589-5.008.675-5.009.748-5.008.822-5.008.884-5.009.944-5.008.994-5.009 1.031-5.008 1.068-5.009 1.104-5.008 1.129-5.009 1.129-5.008 1.153-5.009 1.153-5.008 1.154-5.009 1.129-5.008 1.129-5.009 1.104-5.008 1.08-5.008 1.055-5.009 1.006-5.008.982-5.009.932-5.008.884-5.009.846-5.008.786-5.009.723-5.008.688-5.009.613-5.008.565-5.009.503-5.008.441-5.009.393-5.008.32-5.008.269-5.009.22-5.008.148-5.009.11-5.008.05h-5.009l-5.008-.05-5.009-.098-5.008-.135-5.009-.171-5.008-.209-5.009-.245-5.008-.283-5.009-.294-5.008-.331-5.008-.344-5.009-.368-5.008-.38-5.009-.38-5.008-.406-5.009-.405-5.008-.405-5.009-.404-5.008-.393-5.009-.405-5.008-.38-5.009-.38-5.008-.369-5.008-.343-5.009-.344-5.008-.32-5.009-.294-5.008-.282-5.009-.27-5.008-.233-5.009-.22-5.008-.21-5.009-.171-5.008-.16-5.009-.135-5.008-.122-5.009-.098-5.008-.074-5.008-.061-5.009-.037-5.008-.025-5.009-.012h-5.008l-5.009.025-5.008.024-5.009.037-5.008.049-5.009.061-5.008.062-5.009.061-5.008.074-5.009.073-5.008.086-5.008.074-5.009.073-5.008.074-5.009.074-5.008.073-5.009.074-5.008.061-5.009.062-5.008.049-5.009.049-5.008.049-5.009.037-5.008.024-5.008.037-5.009.025-5.008.012-5.009.012-5.008.012-5.009.013h-30.051l-5.008.012h-10.017l-5.008.012-5.009.012-5.008.013-5.009.024-5.008.025-5.009.037-5.008.024-5.009.05-5.008.036-5.009.061-5.008.05-5.009.06-5.008.062-5.009.074-5.008.073"/>
        </g>
    </g>
</svg>
